<svg xmlns="http://www.w3.org/2000/svg" xmlns:xlink="http://www.w3.org/1999/xlink" xmlns:lucid="lucid" width="1760" height="1360"><g transform="translate(0 0)" lucid:page-tab-id="0_0"><path d="M0 0h1760v1360H0z" fill="#fff"/><path d="M504.72 120h310.56v104H504.72z" fill="#fff"/><path d="M504.72 120h310.56v40H504.72z" fill="#ccc"/><path d="M504.72 120h310.56v104H504.72zM504.72 160h310.56M639.47 160v64M750.6 160v64" stroke="#000" stroke-width="2" fill="none"/><use xlink:href="#a" transform="matrix(1,0,0,1,514.7249761158317,120) translate(114.05 23.6)"/><use xlink:href="#b" transform="matrix(1,0,0,1,509.72497611583174,162.5) translate(23.549999999999997 17.1)"/><use xlink:href="#c" transform="matrix(1,0,0,1,644.4736198771337,162.5) translate(0 17.1)"/><use xlink:href="#d" transform="matrix(1,0,0,1,755.6054545454546,162.5) translate(0 17.1)"/><use xlink:href="#e" transform="matrix(1,0,0,1,755.6054545454546,162.5) translate(24.950000000000003 17.1)"/><use xlink:href="#f" transform="matrix(1,0,0,1,509.72497611583174,194.5) translate(7.099999999999994 17.1)"/><use xlink:href="#g" transform="matrix(1,0,0,1,644.4736198771337,194.5) translate(0 17.1)"/><use xlink:href="#h" transform="matrix(1,0,0,1,755.6054545454546,194.5) translate(0 17.1)"/><path d="M107.1 441.5h315.26v381H107.1z" fill="#fff"/><path d="M107.1 441.5h315.26v40H107.1z" fill="#ccc"/><path d="M107.1 441.5h315.26v381H107.1zM107.1 481.5h315.26M248.13 481.5v341M360.25 481.5v341" stroke="#000" stroke-width="2" fill="none"/><use xlink:href="#i" transform="matrix(1,0,0,1,117.0874641737476,441.5) translate(131.1 23.6)"/><use xlink:href="#j" transform="matrix(1,0,0,1,112.0874641737476,484) translate(41.599999999999994 17.1)"/><use xlink:href="#c" transform="matrix(1,0,0,1,253.12545454545455,484) translate(0 17.1)"/><use xlink:href="#d" transform="matrix(1,0,0,1,365.2490909090909,484) translate(0 17.1)"/><use xlink:href="#e" transform="matrix(1,0,0,1,365.2490909090909,484) translate(24.950000000000003 17.1)"/><use xlink:href="#k" transform="matrix(1,0,0,1,112.0874641737476,516) translate(25.15 17.1)"/><use xlink:href="#g" transform="matrix(1,0,0,1,253.12545454545455,516) translate(0 17.1)"/><use xlink:href="#h" transform="matrix(1,0,0,1,365.2490909090909,516) translate(0 17.1)"/><use xlink:href="#l" transform="matrix(1,0,0,1,112.0874641737476,548) translate(14.074999999999996 17.1)"/><use xlink:href="#m" transform="matrix(1,0,0,1,253.12545454545455,548) translate(0 17.1)"/><use xlink:href="#h" transform="matrix(1,0,0,1,365.2490909090909,548) translate(0 17.1)"/><use xlink:href="#n" transform="matrix(1,0,0,1,112.0874641737476,580) translate(38.025 17.1)"/><use xlink:href="#o" transform="matrix(1,0,0,1,253.12545454545455,580) translate(0 17.1)"/><use xlink:href="#p" transform="matrix(1,0,0,1,365.2490909090909,580) translate(0 17.1)"/><use xlink:href="#q" transform="matrix(1,0,0,1,112.0874641737476,612) translate(23 17.1)"/><use xlink:href="#r" transform="matrix(1,0,0,1,253.12545454545455,612) translate(0 17.1)"/><use xlink:href="#p" transform="matrix(1,0,0,1,365.2490909090909,612) translate(0 17.1)"/><use xlink:href="#s" transform="matrix(1,0,0,1,112.0874641737476,644) translate(1.0749999999999886 17.1)"/><use xlink:href="#t" transform="matrix(1,0,0,1,253.12545454545455,644) translate(0 17.1)"/><use xlink:href="#u" transform="matrix(1,0,0,1,365.2490909090909,644) translate(0 17.1)"/><use xlink:href="#v" transform="matrix(1,0,0,1,112.0874641737476,676) translate(32.074999999999996 17.1)"/><use xlink:href="#w" transform="matrix(1,0,0,1,253.12545454545455,676) translate(0 17.1)"/><use xlink:href="#x" transform="matrix(1,0,0,1,365.2490909090909,676) translate(0 17.1)"/><use xlink:href="#y" transform="matrix(1,0,0,1,112.0874641737476,708) translate(21.099999999999994 17.1)"/><use xlink:href="#z" transform="matrix(1,0,0,1,253.12545454545455,708) translate(0 17.1)"/><use xlink:href="#u" transform="matrix(1,0,0,1,365.2490909090909,708) translate(0 17.1)"/><use xlink:href="#A" transform="matrix(1,0,0,1,112.0874641737476,740) translate(29.625 17.1)"/><use xlink:href="#c" transform="matrix(1,0,0,1,253.12545454545455,740) translate(0 17.1)"/><use xlink:href="#x" transform="matrix(1,0,0,1,365.2490909090909,740) translate(0 17.1)"/><use xlink:href="#B" transform="matrix(1,0,0,1,112.0874641737476,772) translate(33.525 27.6)"/><use xlink:href="#c" transform="matrix(1,0,0,1,253.12545454545455,772) translate(0 27.6)"/><use xlink:href="#C" transform="matrix(1,0,0,1,365.2490909090909,772) translate(0 16.799999999999997)"/><use xlink:href="#D" transform="matrix(1,0,0,1,365.2490909090909,772) translate(0 38.4)"/><path d="M480 955.88h280v157H480z" fill="#fff"/><path d="M480 955.88h280v40H480z" fill="#ccc"/><path d="M480 955.88h280v157H480zM480 995.88h280M585 995.88v117M671.7 995.88v117" stroke="#000" stroke-width="2" fill="none"/><use xlink:href="#E" transform="matrix(1,0,0,1,490,955.8778944709708) translate(106.525 23.6)"/><use xlink:href="#F" transform="matrix(1,0,0,1,485,998.3778944709708) translate(21.549999999999997 17.1)"/><use xlink:href="#c" transform="matrix(1,0,0,1,590.0086124794681,998.3778944709708) translate(0 17.1)"/><use xlink:href="#d" transform="matrix(1,0,0,1,676.7036363636364,998.3778944709708) translate(0 17.1)"/><use xlink:href="#e" transform="matrix(1,0,0,1,676.7036363636364,998.3778944709708) translate(24.950000000000003 17.1)"/><use xlink:href="#G" transform="matrix(1,0,0,1,485,1030.3778944709707) translate(24.525 17.1)"/><use xlink:href="#H" transform="matrix(1,0,0,1,590.0086124794681,1030.3778944709707) translate(0 17.1)"/><use xlink:href="#h" transform="matrix(1,0,0,1,676.7036363636364,1030.3778944709707) translate(0 17.1)"/><use xlink:href="#j" transform="matrix(1,0,0,1,485,1062.3778944709707) translate(23.599999999999998 27.6)"/><use xlink:href="#c" transform="matrix(1,0,0,1,590.0086124794681,1062.3778944709707) translate(0 27.6)"/><use xlink:href="#d" transform="matrix(1,0,0,1,676.7036363636364,1062.3778944709707) translate(0 16.799999999999997)"/><use xlink:href="#I" transform="matrix(1,0,0,1,676.7036363636364,1062.3778944709707) translate(24.950000000000003 16.799999999999997)"/><use xlink:href="#J" transform="matrix(1,0,0,1,676.7036363636364,1062.3778944709707) translate(0 38.4)"/><path d="M107.1 140h335.26v232H107.1z" fill="#fff"/><path d="M107.1 140h335.26v40H107.1z" fill="#ccc"/><path d="M107.1 140h335.26v232H107.1zM107.1 180h335.26M227.66 180v192M340.54 180v192" stroke="#000" stroke-width="2" fill="none"/><use xlink:href="#K" transform="matrix(1,0,0,1,117.0874641737476,140) translate(129.525 23.6)"/><use xlink:href="#L" transform="matrix(1,0,0,1,112.0874641737476,182.5) translate(19.525 17.1)"/><use xlink:href="#c" transform="matrix(1,0,0,1,232.66352402412173,182.5) translate(0 17.1)"/><use xlink:href="#d" transform="matrix(1,0,0,1,345.5352153306432,182.5) translate(0 17.1)"/><use xlink:href="#e" transform="matrix(1,0,0,1,345.5352153306432,182.5) translate(24.950000000000003 17.1)"/><use xlink:href="#M" transform="matrix(1,0,0,1,112.0874641737476,214.5) translate(14.125 17.1)"/><use xlink:href="#g" transform="matrix(1,0,0,1,232.66352402412173,214.5) translate(0 17.1)"/><use xlink:href="#h" transform="matrix(1,0,0,1,345.5352153306432,214.5) translate(0 17.1)"/><use xlink:href="#N" transform="matrix(1,0,0,1,112.0874641737476,246.5) translate(22.549999999999997 17.1)"/><use xlink:href="#m" transform="matrix(1,0,0,1,232.66352402412173,246.5) translate(0 17.1)"/><use xlink:href="#h" transform="matrix(1,0,0,1,345.5352153306432,246.5) translate(0 17.1)"/><use xlink:href="#O" transform="matrix(1,0,0,1,112.0874641737476,278.5) translate(14.549999999999997 17.1)"/><use xlink:href="#g" transform="matrix(1,0,0,1,232.66352402412173,278.5) translate(0 17.1)"/><use xlink:href="#p" transform="matrix(1,0,0,1,345.5352153306432,278.5) translate(0 17.1)"/><use xlink:href="#P" transform="matrix(1,0,0,1,112.0874641737476,310.5) translate(10.574999999999996 17.1)"/><use xlink:href="#g" transform="matrix(1,0,0,1,232.66352402412173,310.5) translate(0 17.1)"/><use xlink:href="#p" transform="matrix(1,0,0,1,345.5352153306432,310.5) translate(0 17.1)"/><use xlink:href="#b" transform="matrix(1,0,0,1,112.0874641737476,342.5) translate(16.549999999999997 17.1)"/><use xlink:href="#Q" transform="matrix(1,0,0,1,232.66352402412173,342.5) translate(0 17.1)"/><use xlink:href="#R" transform="matrix(1,0,0,1,345.5352153306432,342.5) translate(0 17.1)"/><use xlink:href="#J" transform="matrix(1,0,0,1,345.5352153306432,342.5) translate(24 17.1)"/><path d="M715.28 336.52h360v168h-360z" fill="#fff"/><path d="M715.28 336.52h360v40h-360z" fill="#ccc"/><path d="M715.28 336.52h360v168h-360zM715.28 376.52h360M836 376.52v128M954.34 376.52v128" stroke="#000" stroke-width="2" fill="none"/><use xlink:href="#S" transform="matrix(1,0,0,1,725.2750238841683,336.5190909090909) translate(128.15 23.6)"/><use xlink:href="#T" transform="matrix(1,0,0,1,720.2750238841683,379.0190909090909) translate(16.074999999999996 17.1)"/><use xlink:href="#U" transform="matrix(1,0,0,1,840.9877511568956,379.0190909090909) translate(0 17.1)"/><use xlink:href="#p" transform="matrix(1,0,0,1,959.3404784296229,379.0190909090909) translate(0 17.1)"/><use xlink:href="#V" transform="matrix(1,0,0,1,720.2750238841683,411.0190909090909) translate(5.549999999999997 17.1)"/><use xlink:href="#c" transform="matrix(1,0,0,1,840.9877511568956,411.0190909090909) translate(0 17.1)"/><use xlink:href="#d" transform="matrix(1,0,0,1,959.3404784296229,411.0190909090909) translate(0 17.1)"/><use xlink:href="#W" transform="matrix(1,0,0,1,959.3404784296229,411.0190909090909) translate(24.950000000000003 17.1)"/><use xlink:href="#J" transform="matrix(1,0,0,1,959.3404784296229,411.0190909090909) translate(58.95 17.1)"/><use xlink:href="#j" transform="matrix(1,0,0,1,720.2750238841683,443.0190909090909) translate(31.099999999999998 17.1)"/><use xlink:href="#Q" transform="matrix(1,0,0,1,840.9877511568956,443.0190909090909) translate(0 17.1)"/><use xlink:href="#d" transform="matrix(1,0,0,1,959.3404784296229,443.0190909090909) translate(0 17.1)"/><use xlink:href="#W" transform="matrix(1,0,0,1,959.3404784296229,443.0190909090909) translate(24.950000000000003 17.1)"/><use xlink:href="#X" transform="matrix(1,0,0,1,959.3404784296229,443.0190909090909) translate(58.95 17.1)"/><use xlink:href="#L" transform="matrix(1,0,0,1,720.2750238841683,475.0190909090909) translate(19.525 17.1)"/><use xlink:href="#Q" transform="matrix(1,0,0,1,840.9877511568956,475.0190909090909) translate(0 17.1)"/><use xlink:href="#d" transform="matrix(1,0,0,1,959.3404784296229,475.0190909090909) translate(0 17.1)"/><use xlink:href="#W" transform="matrix(1,0,0,1,959.3404784296229,475.0190909090909) translate(24.950000000000003 17.1)"/><use xlink:href="#Y" transform="matrix(1,0,0,1,959.3404784296229,475.0190909090909) translate(58.95 17.1)"/><path d="M859 124h340v104H859z" fill="#fff"/><path d="M859 124h340v40H859z" fill="#ccc"/><path d="M859 124h340v104H859zM859 164h340M1010.25 164v64M1115.63 164v64" stroke="#000" stroke-width="2" fill="none"/><use xlink:href="#Z" transform="matrix(1,0,0,1,869.0000000000001,124) translate(117.55 23.6)"/><use xlink:href="#V" transform="matrix(1,0,0,1,864.0000000000001,166.5) translate(21.049999999999997 17.1)"/><use xlink:href="#c" transform="matrix(1,0,0,1,1015.2477396021701,166.5) translate(0 17.1)"/><use xlink:href="#d" transform="matrix(1,0,0,1,1120.6295005446773,166.5) translate(0 17.1)"/><use xlink:href="#e" transform="matrix(1,0,0,1,1120.6295005446773,166.5) translate(24.950000000000003 17.1)"/><use xlink:href="#aa" transform="matrix(1,0,0,1,864.0000000000001,198.5) translate(4.599999999999994 17.1)"/><use xlink:href="#g" transform="matrix(1,0,0,1,1015.2477396021701,198.5) translate(0 17.1)"/><use xlink:href="#h" transform="matrix(1,0,0,1,1120.6295005446773,198.5) translate(0 17.1)"/><path d="M444.36 196h29.18v-20h11.68" stroke="#000" stroke-width="2" fill="none"/><path d="M444.4 197h-1.04v-2h1.03z"/><path d="M500.5 176l-14.28 4.64v-9.28z" stroke="#000" stroke-width="2"/><path d="M124.72 1080H440v104H124.72z" fill="#fff"/><path d="M124.72 1080H440v40H124.72z" fill="#ccc"/><path d="M124.72 1080H440v104H124.72zM124.72 1120H440M248.15 1120v64M364.65 1120v64" stroke="#000" stroke-width="2" fill="none"/><use xlink:href="#ab" transform="matrix(1,0,0,1,134.72497611583174,1080) translate(123.025 23.6)"/><use xlink:href="#ac" transform="matrix(1,0,0,1,129.72497611583174,1122.5) translate(24.525 17.1)"/><use xlink:href="#c" transform="matrix(1,0,0,1,253.14891626545761,1122.5) translate(0 17.1)"/><use xlink:href="#d" transform="matrix(1,0,0,1,369.6533665835411,1122.5) translate(0 17.1)"/><use xlink:href="#e" transform="matrix(1,0,0,1,369.6533665835411,1122.5) translate(24.950000000000003 17.1)"/><use xlink:href="#ad" transform="matrix(1,0,0,1,129.72497611583174,1154.5) translate(8.074999999999996 17.1)"/><use xlink:href="#g" transform="matrix(1,0,0,1,253.14891626545761,1154.5) translate(0 17.1)"/><use xlink:href="#h" transform="matrix(1,0,0,1,369.6533665835411,1154.5) translate(0 17.1)"/><path d="M829.5 334.52v-39h.5V60H292.14v60.5" stroke="#000" stroke-width="2" fill="none"/><path d="M830.5 335.52h-2v-1.03h2z"/><path d="M292.14 135.76l-4.63-14.26h9.28z" stroke="#000" stroke-width="2"/><path d="M895.28 506.52v86.98H441.86" stroke="#000" stroke-width="2" fill="none"/><path d="M896.28 506.54h-2v-1.02h2z"/><path d="M426.6 593.5l14.26-4.64v9.28z" stroke="#000" stroke-width="2"/><path d="M620 953.88V860H347.78v-18" stroke="#000" stroke-width="2" fill="none"/><path d="M621 954.88h-2v-1.03h2z"/><path d="M347.78 826.74l4.64 14.26h-9.27z" stroke="#000" stroke-width="2"/><path d="M1319.5 80h314.4v136h-314.4z" fill="#fff"/><path d="M1319.5 80h314.4v40h-314.4z" fill="#ccc"/><path d="M1319.5 80h314.4v136h-314.4zM1319.5 120h314.4M1442.92 120v96M1558.56 120v96" stroke="#000" stroke-width="2" fill="none"/><use xlink:href="#ae" transform="matrix(1,0,0,1,1329.5,80) translate(95.275 23.6)"/><use xlink:href="#af" transform="matrix(1,0,0,1,1324.5,122.5) translate(24.224999999999994 17.1)"/><use xlink:href="#c" transform="matrix(1,0,0,1,1447.9239401496259,122.5) translate(0 17.1)"/><use xlink:href="#d" transform="matrix(1,0,0,1,1563.5624606872007,122.5) translate(0 17.1)"/><use xlink:href="#e" transform="matrix(1,0,0,1,1563.5624606872007,122.5) translate(24.950000000000003 17.1)"/><use xlink:href="#ag" transform="matrix(1,0,0,1,1324.5,154.5) translate(7.774999999999999 17.1)"/><use xlink:href="#g" transform="matrix(1,0,0,1,1447.9239401496259,154.5) translate(0 17.1)"/><use xlink:href="#h" transform="matrix(1,0,0,1,1563.5624606872007,154.5) translate(0 17.1)"/><use xlink:href="#ah" transform="matrix(1,0,0,1,1324.5,186.5) translate(12.75 17.1)"/><use xlink:href="#ai" transform="matrix(1,0,0,1,1447.9239401496259,186.5) translate(0 17.1)"/><use xlink:href="#x" transform="matrix(1,0,0,1,1563.5624606872007,186.5) translate(0 17.1)"/><path d="M959.5 601.04h360v136h-360z" fill="#fff"/><path d="M959.5 601.04h360v40h-360z" fill="#ccc"/><path d="M959.5 601.04h360v136h-360zM959.5 641.04h360M1122.47 641.04v96M1244.15 641.04v96" stroke="#000" stroke-width="2" fill="none"/><use xlink:href="#aj" transform="matrix(1,0,0,1,969.5,601.0356353793503) translate(96.125 23.6)"/><use xlink:href="#ak" transform="matrix(1,0,0,1,964.5,643.5356353793503) translate(17.599999999999994 17.1)"/><use xlink:href="#c" transform="matrix(1,0,0,1,1127.4656419529836,643.5356353793503) translate(0 17.1)"/><use xlink:href="#d" transform="matrix(1,0,0,1,1249.1533665835411,643.5356353793503) translate(0 17.1)"/><use xlink:href="#e" transform="matrix(1,0,0,1,1249.1533665835411,643.5356353793503) translate(24.950000000000003 17.1)"/><use xlink:href="#al" transform="matrix(1,0,0,1,964.5,675.5356353793503) translate(1.1499999999999915 17.1)"/><use xlink:href="#g" transform="matrix(1,0,0,1,1127.4656419529836,675.5356353793503) translate(0 17.1)"/><use xlink:href="#h" transform="matrix(1,0,0,1,1249.1533665835411,675.5356353793503) translate(0 17.1)"/><use xlink:href="#am" transform="matrix(1,0,0,1,964.5,707.5356353793503) translate(26.549999999999997 17.1)"/><use xlink:href="#c" transform="matrix(1,0,0,1,1127.4656419529836,707.5356353793503) translate(0 17.1)"/><use xlink:href="#an" transform="matrix(1,0,0,1,1249.1533665835411,707.5356353793503) translate(0 17.1)"/><use xlink:href="#D" transform="matrix(1,0,0,1,1249.1533665835411,707.5356353793503) translate(24 17.1)"/><path d="M1480 255.08h280v168h-280z" fill="#fff"/><path d="M1480 255.08h280v40h-280z" fill="#ccc"/><path d="M1480 255.08h280v168h-280zM1480 295.08h280M1616.45 295.08v128M1657.2 295.08v128" stroke="#000" stroke-width="2" fill="none"/><use xlink:href="#ao" transform="matrix(1,0,0,1,1490,255.07920454545453) translate(87.82499999999999 23.6)"/><use xlink:href="#ap" transform="matrix(1,0,0,1,1485,297.57920454545456) translate(48.05 17.1)"/><use xlink:href="#aq" transform="matrix(1,0,0,1,1621.449090909091,297.57920454545456) translate(0 17.1)"/><use xlink:href="#h" transform="matrix(1,0,0,1,1662.2127272727273,297.57920454545456) translate(0 17.1)"/><use xlink:href="#ar" transform="matrix(1,0,0,1,1485,329.57920454545456) translate(30.724999999999994 17.1)"/><use xlink:href="#c" transform="matrix(1,0,0,1,1621.449090909091,329.57920454545456) translate(0 17.1)"/><use xlink:href="#as" transform="matrix(1,0,0,1,1662.2127272727273,329.57920454545456) translate(0 17.1)"/><use xlink:href="#at" transform="matrix(1,0,0,1,1662.2127272727273,329.57920454545456) translate(24.950000000000003 17.1)"/><use xlink:href="#D" transform="matrix(1,0,0,1,1662.2127272727273,329.57920454545456) translate(58.95 17.1)"/><use xlink:href="#au" transform="matrix(1,0,0,1,1485,361.57920454545456) translate(5.124999999999993 17.1)"/><use xlink:href="#c" transform="matrix(1,0,0,1,1621.449090909091,361.57920454545456) translate(0 17.1)"/><use xlink:href="#as" transform="matrix(1,0,0,1,1662.2127272727273,361.57920454545456) translate(0 17.1)"/><use xlink:href="#at" transform="matrix(1,0,0,1,1662.2127272727273,361.57920454545456) translate(24.950000000000003 17.1)"/><use xlink:href="#av" transform="matrix(1,0,0,1,1662.2127272727273,361.57920454545456) translate(58.95 17.1)"/><use xlink:href="#aw" transform="matrix(1,0,0,1,1485,393.57920454545456) translate(39.099999999999994 17.1)"/><use xlink:href="#c" transform="matrix(1,0,0,1,1621.449090909091,393.57920454545456) translate(0 17.1)"/><use xlink:href="#as" transform="matrix(1,0,0,1,1662.2127272727273,393.57920454545456) translate(0 17.1)"/><use xlink:href="#at" transform="matrix(1,0,0,1,1662.2127272727273,393.57920454545456) translate(24.950000000000003 17.1)"/><use xlink:href="#ax" transform="matrix(1,0,0,1,1662.2127272727273,393.57920454545456) translate(58.95 17.1)"/><path d="M1180 863.97h397.2v168H1180z" fill="#fff"/><path d="M1180 863.97h397.2v40H1180z" fill="#ccc"/><path d="M1180 863.97h397.2v168H1180zM1180 903.97h397.2M1332 903.97v128M1450.34 903.97v128" stroke="#000" stroke-width="2" fill="none"/><use xlink:href="#ay" transform="matrix(1,0,0,1,1190,863.9692307692308) translate(152.2 23.6)"/><use xlink:href="#az" transform="matrix(1,0,0,1,1185,906.4692307692308) translate(27.025 17.1)"/><use xlink:href="#aA" transform="matrix(1,0,0,1,1336.9872727272727,906.4692307692308) translate(0 17.1)"/><use xlink:href="#aB" transform="matrix(1,0,0,1,1336.9872727272727,906.4692307692308) translate(5 17.1)"/><use xlink:href="#x" transform="matrix(1,0,0,1,1455.34,906.4692307692308) translate(0 17.1)"/><use xlink:href="#aC" transform="matrix(1,0,0,1,1185,938.4692307692308) translate(5.099999999999994 17.1)"/><use xlink:href="#aD" transform="matrix(1,0,0,1,1336.9872727272727,938.4692307692308) translate(0 17.1)"/><use xlink:href="#x" transform="matrix(1,0,0,1,1455.34,938.4692307692308) translate(0 17.1)"/><use xlink:href="#aw" transform="matrix(1,0,0,1,1185,970.4692307692308) translate(46.599999999999994 17.1)"/><use xlink:href="#c" transform="matrix(1,0,0,1,1336.9872727272727,970.4692307692308) translate(0 17.1)"/><use xlink:href="#as" transform="matrix(1,0,0,1,1455.34,970.4692307692308) translate(0 17.1)"/><use xlink:href="#at" transform="matrix(1,0,0,1,1455.34,970.4692307692308) translate(24.950000000000003 17.1)"/><use xlink:href="#D" transform="matrix(1,0,0,1,1455.34,970.4692307692308) translate(58.95 17.1)"/><use xlink:href="#aE" transform="matrix(1,0,0,1,1185,1002.4692307692308) translate(32.05 17.1)"/><use xlink:href="#c" transform="matrix(1,0,0,1,1336.9872727272727,1002.4692307692308) translate(0 17.1)"/><use xlink:href="#as" transform="matrix(1,0,0,1,1455.34,1002.4692307692308) translate(0 17.1)"/><use xlink:href="#at" transform="matrix(1,0,0,1,1455.34,1002.4692307692308) translate(24.950000000000003 17.1)"/><use xlink:href="#av" transform="matrix(1,0,0,1,1455.34,1002.4692307692308) translate(58.95 17.1)"/><path d="M1378.6 1033.97V1230H94.72V99H660v1.5" stroke="#000" stroke-width="2" fill="none"/><path d="M1379.6 1034h-2v-1.03h2z"/><path d="M660 115.76l-4.64-14.26h9.28z" stroke="#000" stroke-width="2"/><use xlink:href="#aF" transform="matrix(1,0,0,1,778.4575910905678,1204.3999999999999) translate(0 14.4)"/><path d="M1378.6 861.97v-66.95H900.98v.98H441.86" stroke="#000" stroke-width="2" fill="none"/><path d="M1379.6 862.97h-2v-1.03h2z"/><path d="M426.6 796l14.26-4.64v9.28z" stroke="#000" stroke-width="2"/><path d="M800 948.04h360v200H800z" fill="#fff"/><path d="M800 948.04h360v40H800z" fill="#ccc"/><path d="M800 948.04h360v200H800zM800 988.04h360M923.42 988.04v160M1037.14 988.04v160" stroke="#000" stroke-width="2" fill="none"/><use xlink:href="#aG" transform="matrix(1,0,0,1,810,948.0386428742381) translate(144.55 23.6)"/><use xlink:href="#aH" transform="matrix(1,0,0,1,805,990.5386428742381) translate(26.5 17.1)"/><use xlink:href="#Q" transform="matrix(1,0,0,1,928.4239401496259,990.5386428742381) translate(0 17.1)"/><use xlink:href="#d" transform="matrix(1,0,0,1,1042.1436363636365,990.5386428742381) translate(0 17.1)"/><use xlink:href="#e" transform="matrix(1,0,0,1,1042.1436363636365,990.5386428742381) translate(24.950000000000003 17.1)"/><use xlink:href="#aI" transform="matrix(1,0,0,1,805,1022.5386428742381) translate(20.075000000000003 17.1)"/><use xlink:href="#c" transform="matrix(1,0,0,1,928.4239401496259,1022.5386428742381) translate(0 17.1)"/><use xlink:href="#d" transform="matrix(1,0,0,1,1042.1436363636365,1022.5386428742381) translate(0 17.1)"/><use xlink:href="#e" transform="matrix(1,0,0,1,1042.1436363636365,1022.5386428742381) translate(24.950000000000003 17.1)"/><use xlink:href="#l" transform="matrix(1,0,0,1,805,1054.5386428742381) translate(5.074999999999996 17.1)"/><use xlink:href="#m" transform="matrix(1,0,0,1,928.4239401496259,1054.5386428742381) translate(0 17.1)"/><use xlink:href="#h" transform="matrix(1,0,0,1,1042.1436363636365,1054.5386428742381) translate(0 17.1)"/><use xlink:href="#j" transform="matrix(1,0,0,1,805,1086.5386428742381) translate(32.599999999999994 17.1)"/><use xlink:href="#c" transform="matrix(1,0,0,1,928.4239401496259,1086.5386428742381) translate(0 17.1)"/><use xlink:href="#d" transform="matrix(1,0,0,1,1042.1436363636365,1086.5386428742381) translate(0 17.1)"/><use xlink:href="#W" transform="matrix(1,0,0,1,1042.1436363636365,1086.5386428742381) translate(24.950000000000003 17.1)"/><use xlink:href="#J" transform="matrix(1,0,0,1,1042.1436363636365,1086.5386428742381) translate(58.95 17.1)"/><use xlink:href="#aJ" transform="matrix(1,0,0,1,805,1118.5386428742381) translate(7.600000000000001 17.1)"/><use xlink:href="#g" transform="matrix(1,0,0,1,928.4239401496259,1118.5386428742381) translate(0 17.1)"/><use xlink:href="#x" transform="matrix(1,0,0,1,1042.1436363636365,1118.5386428742381) translate(0 17.1)"/><path d="M980 946.04V840H385.76" stroke="#000" stroke-width="2" fill="none"/><path d="M981 947.04h-2V946h2z"/><path d="M384.15 826.7l6.32 13.62-9.2 1.1z" stroke="#000" stroke-width="2"/><path d="M971.74 334.52V247.5" stroke="#000" stroke-width="2" fill="none"/><path d="M972.74 335.52h-2v-1.03h2z"/><path d="M971.74 232.24l4.63 14.26h-9.27z" stroke="#000" stroke-width="2"/><path d="M1385.8 580H1740v104h-354.2z" fill="#fff"/><path d="M1385.8 580H1740v40h-354.2z" fill="#ccc"/><path d="M1385.8 580H1740v104h-354.2zM1385.8 620H1740M1548.77 620v64M1664.65 620v64" stroke="#000" stroke-width="2" fill="none"/><use xlink:href="#aK" transform="matrix(1,0,0,1,1395.8068205777445,580) translate(105.19999999999999 23.6)"/><use xlink:href="#aL" transform="matrix(1,0,0,1,1390.8068205777445,622.5) translate(18.124999999999993 17.1)"/><use xlink:href="#c" transform="matrix(1,0,0,1,1553.772462530728,622.5) translate(0 17.1)"/><use xlink:href="#d" transform="matrix(1,0,0,1,1669.6533665835411,622.5) translate(0 17.1)"/><use xlink:href="#e" transform="matrix(1,0,0,1,1669.6533665835411,622.5) translate(24.950000000000003 17.1)"/><use xlink:href="#aM" transform="matrix(1,0,0,1,1390.8068205777445,654.5) translate(1.6749999999999972 17.1)"/><use xlink:href="#g" transform="matrix(1,0,0,1,1553.772462530728,654.5) translate(0 17.1)"/><use xlink:href="#h" transform="matrix(1,0,0,1,1669.6533665835411,654.5) translate(0 17.1)"/><path d="M1160 239.73h300v232h-300z" fill="#fff"/><path d="M1160 239.73h300v40h-300z" fill="#ccc"/><path d="M1160 239.73h300v232h-300zM1160 279.73h300M1283.57 279.73v192M1340 279.73v192" stroke="#000" stroke-width="2" fill="none"/><use xlink:href="#aN" transform="matrix(1,0,0,1,1170,239.73276223776224) translate(86.25 23.6)"/><use xlink:href="#ap" transform="matrix(1,0,0,1,1165,282.23276223776224) translate(41.55 17.1)"/><use xlink:href="#aq" transform="matrix(1,0,0,1,1288.5735885953002,282.23276223776224) translate(0 17.1)"/><use xlink:href="#h" transform="matrix(1,0,0,1,1345,282.23276223776224) translate(0 17.1)"/><use xlink:href="#ar" transform="matrix(1,0,0,1,1165,314.23276223776224) translate(24.224999999999994 17.1)"/><use xlink:href="#c" transform="matrix(1,0,0,1,1288.5735885953002,314.23276223776224) translate(0 17.1)"/><use xlink:href="#as" transform="matrix(1,0,0,1,1345,314.23276223776224) translate(0 17.1)"/><use xlink:href="#at" transform="matrix(1,0,0,1,1345,314.23276223776224) translate(24.950000000000003 17.1)"/><use xlink:href="#D" transform="matrix(1,0,0,1,1345,314.23276223776224) translate(58.95 17.1)"/><use xlink:href="#aO" transform="matrix(1,0,0,1,1165,346.23276223776224) translate(-1.9000000000000057 17.1)"/><use xlink:href="#c" transform="matrix(1,0,0,1,1288.5735885953002,346.23276223776224) translate(0 17.1)"/><use xlink:href="#as" transform="matrix(1,0,0,1,1345,346.23276223776224) translate(0 17.1)"/><use xlink:href="#at" transform="matrix(1,0,0,1,1345,346.23276223776224) translate(24.950000000000003 17.1)"/><use xlink:href="#av" transform="matrix(1,0,0,1,1345,346.23276223776224) translate(58.95 17.1)"/><use xlink:href="#am" transform="matrix(1,0,0,1,1165,378.23276223776224) translate(7.049999999999997 17.1)"/><use xlink:href="#c" transform="matrix(1,0,0,1,1288.5735885953002,378.23276223776224) translate(0 17.1)"/><use xlink:href="#as" transform="matrix(1,0,0,1,1345,378.23276223776224) translate(0 17.1)"/><use xlink:href="#at" transform="matrix(1,0,0,1,1345,378.23276223776224) translate(24.950000000000003 17.1)"/><use xlink:href="#ax" transform="matrix(1,0,0,1,1345,378.23276223776224) translate(58.95 17.1)"/><use xlink:href="#aw" transform="matrix(1,0,0,1,1165,410.23276223776224) translate(32.599999999999994 17.1)"/><use xlink:href="#c" transform="matrix(1,0,0,1,1288.5735885953002,410.23276223776224) translate(0 17.1)"/><use xlink:href="#d" transform="matrix(1,0,0,1,1345,410.23276223776224) translate(0 17.1)"/><use xlink:href="#W" transform="matrix(1,0,0,1,1345,410.23276223776224) translate(24.950000000000003 17.1)"/><use xlink:href="#Y" transform="matrix(1,0,0,1,1345,410.23276223776224) translate(58.95 17.1)"/><use xlink:href="#aP" transform="matrix(1,0,0,1,1165,442.23276223776224) translate(21.025 17.1)"/><use xlink:href="#c" transform="matrix(1,0,0,1,1288.5735885953002,442.23276223776224) translate(0 17.1)"/><use xlink:href="#as" transform="matrix(1,0,0,1,1345,442.23276223776224) translate(0 17.1)"/><use xlink:href="#at" transform="matrix(1,0,0,1,1345,442.23276223776224) translate(24.950000000000003 17.1)"/><use xlink:href="#ax" transform="matrix(1,0,0,1,1345,442.23276223776224) translate(58.95 17.1)"/><path d="M1158 424.54h-63.22" stroke="#000" stroke-width="2" fill="none"/><path d="M1159 425.54h-1.03v-2h1.03z"/><path d="M1079.5 424.54l14.28-4.63v9.28z" stroke="#000" stroke-width="2"/><path d="M1653.4 136h22.6v117.08" stroke="#000" stroke-width="2" fill="none"/><path d="M1638.15 136l14.26-4.64v9.28z" stroke="#000" stroke-width="2"/><path d="M1677 254.08h-2v-1.03h2z"/><path d="M1300 136h-23.07v101.73" stroke="#000" stroke-width="2" fill="none"/><path d="M1315.26 136l-14.26 4.64v-9.28z" stroke="#000" stroke-width="2"/><path d="M1277.93 238.73h-2v-1.02h2z"/><path d="M1598.32 560.5v-58.96h20v-76.46" stroke="#000" stroke-width="2" fill="none"/><path d="M1598.32 575.76l-4.63-14.26h9.26z" stroke="#000" stroke-width="2"/><path d="M1619.32 425.1h-2v-1.02h2z"/><path d="M1258.97 581.53v-45.15h.98v-62.65" stroke="#000" stroke-width="2" fill="none"/><path d="M1258.97 596.8l-4.64-14.27h9.27z" stroke="#000" stroke-width="2"/><path d="M1260.95 473.76h-2v-1.03h2z"/><path d="M1561.6 425.08V550H1340v203.5H441.86" stroke="#000" stroke-width="2" fill="none"/><path d="M1562.6 425.1h-2v-1.02h2z"/><path d="M426.6 753.5l14.26-4.64v9.28z" stroke="#000" stroke-width="2"/><path d="M859 260h100v61.04H859z" stroke="#000" stroke-opacity="0" stroke-width="2" fill="#fff" fill-opacity="0"/><use xlink:href="#aQ" transform="matrix(1,0,0,1,864.0000000000001,265) translate(28.525 30.65)"/><path d="M735.28 540h100v61.04h-100z" stroke="#000" stroke-opacity="0" stroke-width="2" fill="#fff" fill-opacity="0"/><use xlink:href="#aF" transform="matrix(1,0,0,1,740.2750238841683,545) translate(28.525 30.65)"/><path d="M580 18.96h100V80H580z" stroke="#000" stroke-opacity="0" stroke-width="2" fill="#fff" fill-opacity="0"/><use xlink:href="#aR" transform="matrix(1,0,0,1,585,23.961818181818188) translate(28.525 30.65)"/><path d="M422.36 120h100v61.04h-100z" stroke="#000" stroke-opacity="0" stroke-width="2" fill="#fff" fill-opacity="0"/><use xlink:href="#aQ" transform="matrix(1,0,0,1,427.36248805791587,124.99999999999999) translate(28.525 30.65)"/><path d="M480 336.52h220v104H480z" fill="#fff"/><path d="M480 336.52h220v40H480z" fill="#ccc"/><path d="M480 336.52h220v104H480zM480 376.52h220M564.77 376.52v64M598 376.52v64" stroke="#000" stroke-width="2" fill="none"/><use xlink:href="#aS" transform="matrix(1,0,0,1,490,336.5190909090909) translate(51.65 23.6)"/><use xlink:href="#aT" transform="matrix(1,0,0,1,485,379.0190909090909) translate(13.099999999999998 17.1)"/><use xlink:href="#aU" transform="matrix(1,0,0,1,569.7709090909091,379.0190909090909) translate(0 17.1)"/><use xlink:href="#aV" transform="matrix(1,0,0,1,602.9927272727273,379.0190909090909) translate(0 17.1)"/><use xlink:href="#aW" transform="matrix(1,0,0,1,602.9927272727273,379.0190909090909) translate(24.950000000000003 17.1)"/><use xlink:href="#aX" transform="matrix(1,0,0,1,602.9927272727273,379.0190909090909) translate(58.95 17.1)"/><use xlink:href="#aY" transform="matrix(1,0,0,1,485,411.0190909090909) translate(-1.4500000000000028 17.1)"/><use xlink:href="#aU" transform="matrix(1,0,0,1,569.7709090909091,411.0190909090909) translate(0 17.1)"/><use xlink:href="#aV" transform="matrix(1,0,0,1,602.9927272727273,411.0190909090909) translate(0 17.1)"/><use xlink:href="#aW" transform="matrix(1,0,0,1,602.9927272727273,411.0190909090909) translate(24.950000000000003 17.1)"/><use xlink:href="#aZ" transform="matrix(1,0,0,1,602.9927272727273,411.0190909090909) translate(58.95 17.1)"/><path d="M590 442.52v54.98H441.86" stroke="#000" stroke-width="2" fill="none"/><path d="M591 442.54h-2v-1.02h2z"/><path d="M426.6 497.5l14.26-4.64v9.28z" stroke="#000" stroke-width="2"/><path d="M590 334.52v-54.26h70V243.5" stroke="#000" stroke-width="2" fill="none"/><path d="M591 335.52h-2v-1.03h2z"/><path d="M660 228.24l4.64 14.26h-9.28z" stroke="#000" stroke-width="2"/><path d="M460 440.52h100v61.04H460z" stroke="#000" stroke-opacity="0" stroke-width="2" fill="#fff" fill-opacity="0"/><use xlink:href="#aQ" transform="matrix(1,0,0,1,465,445.5190909090909) translate(28.525 30.65)"/><path d="M580 231.48h100v61.04H580z" stroke="#000" stroke-opacity="0" stroke-width="2" fill="#fff" fill-opacity="0"/><use xlink:href="#aF" transform="matrix(1,0,0,1,585,236.4809090909091) translate(28.525 30.65)"/><path d="M124.72 880h280v104h-280z" fill="#fff"/><path d="M124.72 880h280v40h-280z" fill="#ccc"/><path d="M124.72 880h280v104h-280zM124.72 920h280M220.1 920v64M294.72 920v64" stroke="#000" stroke-width="2" fill="none"/><g><use xlink:href="#ba" transform="matrix(1,0,0,1,134.72497611583174,880) translate(88.125 23.6)"/></g><g><use xlink:href="#aT" transform="matrix(1,0,0,1,129.72497611583174,922.5) translate(18.599999999999998 17.1)"/></g><g><use xlink:href="#bb" transform="matrix(1,0,0,1,225.09454545454545,922.5) translate(0 17.1)"/></g><g><use xlink:href="#aV" transform="matrix(1,0,0,1,299.72497611583174,922.5) translate(0 17.1)"/><use xlink:href="#aW" transform="matrix(1,0,0,1,299.72497611583174,922.5) translate(24.950000000000003 17.1)"/><use xlink:href="#aX" transform="matrix(1,0,0,1,299.72497611583174,922.5) translate(58.95 17.1)"/></g><g><use xlink:href="#bc" transform="matrix(1,0,0,1,129.72497611583174,954.5) translate(10.524999999999999 17.1)"/></g><g><use xlink:href="#bb" transform="matrix(1,0,0,1,225.09454545454545,954.5) translate(0 17.1)"/></g><g><use xlink:href="#aV" transform="matrix(1,0,0,1,299.72497611583174,954.5) translate(0 17.1)"/><use xlink:href="#aW" transform="matrix(1,0,0,1,299.72497611583174,954.5) translate(24.950000000000003 17.1)"/><use xlink:href="#aZ" transform="matrix(1,0,0,1,299.72497611583174,954.5) translate(58.95 17.1)"/></g><path d="M264.72 986v74.5" stroke="#000" stroke-width="2" fill="none"/><path d="M265.72 986.03h-2V985h2z"/><path d="M264.72 1075.76l-4.63-14.26h9.26z" stroke="#000" stroke-width="2"/><path d="M240 1001.52h100v61.04H240z" stroke="#000" stroke-opacity="0" stroke-width="2" fill="#fff" fill-opacity="0"/><g><use xlink:href="#aF" transform="matrix(1,0,0,1,245,1006.5195519651471) translate(28.525 30.65)"/></g><path d="M309.38 878v-26.75h-.04V842" stroke="#000" stroke-width="2" fill="none"/><path d="M310.38 879h-2v-1.03h2z"/><path d="M309.34 826.74l4.64 14.26h-9.27z" stroke="#000" stroke-width="2"/><path d="M240 820h100v61.04H240z" stroke="#000" stroke-opacity="0" stroke-width="2" fill="#fff" fill-opacity="0"/><g><use xlink:href="#aQ" transform="matrix(1,0,0,1,245,825) translate(28.525 30.65)"/></g><path d="M178.57 860.5v-9.25h.07V824.5" stroke="#000" stroke-width="2" fill="none"/><path d="M178.57 875.76l-4.64-14.26h9.27z" stroke="#000" stroke-width="2"/><path d="M179.64 824.53h-2v-1.03h2z"/><path d="M107.1 820h100v61.04h-100z" stroke="#000" stroke-opacity="0" stroke-width="2" fill="#fff" fill-opacity="0"/><g><use xlink:href="#aQ" transform="matrix(1,0,0,1,112.0874641737476,825) translate(28.525 30.65)"/></g><path d="M600 867.94h100v61.04H600z" stroke="#000" stroke-opacity="0" stroke-width="2" fill="#fff" fill-opacity="0"/><g><use xlink:href="#aQ" transform="matrix(1,0,0,1,605,872.9389472354853) translate(28.525 30.65)"/></g><path d="M680 801.04h100v61.04H680z" stroke="#000" stroke-opacity="0" stroke-width="2" fill="#fff" fill-opacity="0"/><g><use xlink:href="#aQ" transform="matrix(1,0,0,1,685,806.0381818181818) translate(28.525 30.65)"/></g><path d="M815.28 740h100v61.04h-100z" stroke="#000" stroke-opacity="0" stroke-width="2" fill="#fff" fill-opacity="0"/><g><use xlink:href="#aQ" transform="matrix(1,0,0,1,820.2750238841683,745) translate(28.525 30.65)"/></g><path d="M1060 380.46h100v61.04h-100z" stroke="#000" stroke-opacity="0" stroke-width="2" fill="#fff" fill-opacity="0"/><g><use xlink:href="#bd" transform="matrix(1,0,0,1,1065,385.4618181818182) translate(28.525 30.65)"/></g><path d="M1199 160h100v61.04h-100z" stroke="#000" stroke-opacity="0" stroke-width="2" fill="#fff" fill-opacity="0"/><g><use xlink:href="#be" transform="matrix(1,0,0,1,1204,165) translate(28.525 30.65)"/></g><path d="M1240 515.47h100v61.03h-100z" stroke="#000" stroke-opacity="0" stroke-width="2" fill="#fff" fill-opacity="0"/><g><use xlink:href="#bf" transform="matrix(1,0,0,1,1245,520.4655244755245) translate(28.525 30.65)"/></g><path d="M1587.2 480h100v61.04h-100z" stroke="#000" stroke-opacity="0" stroke-width="2" fill="#fff" fill-opacity="0"/><g><use xlink:href="#bf" transform="matrix(1,0,0,1,1592.2045470518296,485) translate(28.525 30.65)"/></g><path d="M1654.4 166.96h100V228h-100z" stroke="#000" stroke-opacity="0" stroke-width="2" fill="#fff" fill-opacity="0"/><g><use xlink:href="#bf" transform="matrix(1,0,0,1,1659.4090941036595,171.96181818181822) translate(28.525 30.65)"/></g><path d="M1127.47 599.04V247.5" stroke="#000" stroke-width="2" fill="none"/><path d="M1128.47 600.04h-2V599h2z"/><path d="M1127.47 232.24l4.63 14.26h-9.27z" stroke="#000" stroke-width="2"/><path d="M1099 519.48h100v61.04h-100z" stroke="#000" stroke-opacity="0" stroke-width="2" fill="#fff" fill-opacity="0"/><g><use xlink:href="#be" transform="matrix(1,0,0,1,1104,524.4809090909091) translate(28.525 30.65)"/></g><path d="M735.28 700h100v61.04h-100z" stroke="#000" stroke-opacity="0" stroke-width="2" fill="#fff" fill-opacity="0"/><g><use xlink:href="#bd" transform="matrix(1,0,0,1,740.2750238841683,705) translate(28.525 30.65)"/></g><defs><path d="M212-179c-10-28-35-45-73-45-59 0-87 40-87 99 0 60 29 101 89 101 43 0 62-24 78-52l27 14C228-24 195 4 139 4 59 4 22-46 18-125c-6-104 99-153 187-111 19 9 31 26 39 46" id="bg"/><path d="M100-194c62-1 85 37 85 99 1 63-27 99-86 99S16-35 15-95c0-66 28-99 85-99zM99-20c44 1 53-31 53-75 0-43-8-75-51-75s-53 32-53 75 10 74 51 75" id="bh"/><path d="M84 4C-5 8 30-112 23-190h32v120c0 31 7 50 39 49 72-2 45-101 50-169h31l1 190h-30c-1-10 1-25-2-33-11 22-28 36-60 37" id="bi"/><path d="M117-194c89-4 53 116 60 194h-32v-121c0-31-8-49-39-48C34-167 62-67 57 0H25l-1-190h30c1 10-1 24 2 32 11-22 29-35 61-36" id="bj"/><path d="M59-47c-2 24 18 29 38 22v24C64 9 27 4 27-40v-127H5v-23h24l9-43h21v43h35v23H59v120" id="bk"/><path d="M114-163C36-179 61-72 57 0H25l-1-190h30c1 12-1 29 2 39 6-27 23-49 58-41v29" id="bl"/><path d="M179-190L93 31C79 59 56 82 12 73V49c39 6 53-20 64-50L1-190h34L92-34l54-156h33" id="bm"/><g id="a"><use transform="matrix(0.05,0,0,0.05,0,0)" xlink:href="#bg"/><use transform="matrix(0.05,0,0,0.05,12.950000000000001,0)" xlink:href="#bh"/><use transform="matrix(0.05,0,0,0.05,22.950000000000003,0)" xlink:href="#bi"/><use transform="matrix(0.05,0,0,0.05,32.95,0)" xlink:href="#bj"/><use transform="matrix(0.05,0,0,0.05,42.95,0)" xlink:href="#bk"/><use transform="matrix(0.05,0,0,0.05,47.95,0)" xlink:href="#bl"/><use transform="matrix(0.05,0,0,0.05,53.900000000000006,0)" xlink:href="#bm"/></g><path d="M33 0v-248h34V0H33" id="bn"/><path d="M85-194c31 0 48 13 60 33l-1-100h32l1 261h-30c-2-10 0-23-3-31C134-8 116 4 85 4 32 4 16-35 15-94c0-66 23-100 70-100zm9 24c-40 0-46 34-46 75 0 40 6 74 45 74 42 0 51-32 51-76 0-42-9-74-50-73" id="bo"/><g id="b"><use transform="matrix(0.05,0,0,0.05,0,0)" xlink:href="#bg"/><use transform="matrix(0.05,0,0,0.05,12.950000000000001,0)" xlink:href="#bh"/><use transform="matrix(0.05,0,0,0.05,22.950000000000003,0)" xlink:href="#bi"/><use transform="matrix(0.05,0,0,0.05,32.95,0)" xlink:href="#bj"/><use transform="matrix(0.05,0,0,0.05,42.95,0)" xlink:href="#bk"/><use transform="matrix(0.05,0,0,0.05,47.95,0)" xlink:href="#bl"/><use transform="matrix(0.05,0,0,0.05,53.900000000000006,0)" xlink:href="#bm"/><use transform="matrix(0.05,0,0,0.05,62.900000000000006,0)" xlink:href="#bn"/><use transform="matrix(0.05,0,0,0.05,67.9,0)" xlink:href="#bo"/></g><path d="M24-231v-30h32v30H24zM24 0v-190h32V0H24" id="bp"/><g id="c"><use transform="matrix(0.05,0,0,0.05,0,0)" xlink:href="#bp"/><use transform="matrix(0.05,0,0,0.05,3.95,0)" xlink:href="#bj"/><use transform="matrix(0.05,0,0,0.05,13.949999999999998,0)" xlink:href="#bk"/></g><path d="M240 0l2-218c-23 76-54 145-80 218h-23L58-218 59 0H30v-248h44l77 211c21-75 51-140 76-211h43V0h-30" id="bq"/><path d="M68-38c1 34 0 65-14 84H32c9-13 17-26 17-46H33v-38h35" id="br"/><g id="d"><use transform="matrix(0.05,0,0,0.05,0,0)" xlink:href="#bq"/><use transform="matrix(0.05,0,0,0.05,14.950000000000001,0)" xlink:href="#br"/></g><path d="M30-248c87 1 191-15 191 75 0 78-77 80-158 76V0H30v-248zm33 125c57 0 124 11 124-50 0-59-68-47-124-48v98" id="bs"/><path d="M194 0L95-120 63-95V0H30v-248h33v124l119-124h40L117-140 236 0h-42" id="bt"/><g id="e"><use transform="matrix(0.05,0,0,0.05,0,0)" xlink:href="#bs"/><use transform="matrix(0.05,0,0,0.05,12,0)" xlink:href="#bt"/></g><path d="M190 0L58-211 59 0H30v-248h39L202-35l-2-213h31V0h-41" id="bu"/><path d="M141-36C126-15 110 5 73 4 37 3 15-17 15-53c-1-64 63-63 125-63 3-35-9-54-41-54-24 1-41 7-42 31l-33-3c5-37 33-52 76-52 45 0 72 20 72 64v82c-1 20 7 32 28 27v20c-31 9-61-2-59-35zM48-53c0 20 12 33 32 33 41-3 63-29 60-74-43 2-92-5-92 41" id="bv"/><path d="M210-169c-67 3-38 105-44 169h-31v-121c0-29-5-50-35-48C34-165 62-65 56 0H25l-1-190h30c1 10-1 24 2 32 10-44 99-50 107 0 11-21 27-35 58-36 85-2 47 119 55 194h-31v-121c0-29-5-49-35-48" id="bw"/><path d="M100-194c63 0 86 42 84 106H49c0 40 14 67 53 68 26 1 43-12 49-29l28 8c-11 28-37 45-77 45C44 4 14-33 15-96c1-61 26-98 85-98zm52 81c6-60-76-77-97-28-3 7-6 17-6 28h103" id="bx"/><g id="f"><use transform="matrix(0.05,0,0,0.05,0,0)" xlink:href="#bg"/><use transform="matrix(0.05,0,0,0.05,12.950000000000001,0)" xlink:href="#bh"/><use transform="matrix(0.05,0,0,0.05,22.950000000000003,0)" xlink:href="#bi"/><use transform="matrix(0.05,0,0,0.05,32.95,0)" xlink:href="#bj"/><use transform="matrix(0.05,0,0,0.05,42.95,0)" xlink:href="#bk"/><use transform="matrix(0.05,0,0,0.05,47.95,0)" xlink:href="#bl"/><use transform="matrix(0.05,0,0,0.05,53.900000000000006,0)" xlink:href="#bm"/><use transform="matrix(0.05,0,0,0.05,62.900000000000006,0)" xlink:href="#bu"/><use transform="matrix(0.05,0,0,0.05,75.85000000000001,0)" xlink:href="#bv"/><use transform="matrix(0.05,0,0,0.05,85.85000000000001,0)" xlink:href="#bw"/><use transform="matrix(0.05,0,0,0.05,100.80000000000001,0)" xlink:href="#bx"/></g><path d="M108 0H70L1-190h34L89-25l56-165h34" id="by"/><path d="M96-169c-40 0-48 33-48 73s9 75 48 75c24 0 41-14 43-38l32 2c-6 37-31 61-74 61-59 0-76-41-82-99-10-93 101-131 147-64 4 7 5 14 7 22l-32 3c-4-21-16-35-41-35" id="bz"/><path d="M106-169C34-169 62-67 57 0H25v-261h32l-1 103c12-21 28-36 61-36 89 0 53 116 60 194h-32v-121c2-32-8-49-39-48" id="bA"/><path d="M87 75C49 33 22-17 22-94c0-76 28-126 65-167h31c-38 41-64 92-64 168S80 34 118 75H87" id="bB"/><path d="M27 0v-27h64v-190l-56 39v-29l58-41h29v221h61V0H27" id="bC"/><path d="M101-251c68 0 85 55 85 127S166 4 100 4C33 4 14-52 14-124c0-73 17-127 87-127zm-1 229c47 0 54-49 54-102s-4-102-53-102c-51 0-55 48-55 102 0 53 5 102 54 102" id="bD"/><path d="M33-261c38 41 65 92 65 168S71 34 33 75H2C39 34 66-17 66-93S39-220 2-261h31" id="bE"/><g id="g"><use transform="matrix(0.05,0,0,0.05,0,0)" xlink:href="#by"/><use transform="matrix(0.05,0,0,0.05,9,0)" xlink:href="#bv"/><use transform="matrix(0.05,0,0,0.05,19,0)" xlink:href="#bl"/><use transform="matrix(0.05,0,0,0.05,24.95,0)" xlink:href="#bz"/><use transform="matrix(0.05,0,0,0.05,33.95,0)" xlink:href="#bA"/><use transform="matrix(0.05,0,0,0.05,43.95,0)" xlink:href="#bv"/><use transform="matrix(0.05,0,0,0.05,53.95,0)" xlink:href="#bl"/><use transform="matrix(0.05,0,0,0.05,59.900000000000006,0)" xlink:href="#bB"/><use transform="matrix(0.05,0,0,0.05,65.85000000000001,0)" xlink:href="#bC"/><use transform="matrix(0.05,0,0,0.05,75.85000000000001,0)" xlink:href="#bD"/><use transform="matrix(0.05,0,0,0.05,85.85000000000001,0)" xlink:href="#bD"/><use transform="matrix(0.05,0,0,0.05,95.85000000000001,0)" xlink:href="#bE"/></g><use transform="matrix(0.05,0,0,0.05,0,0)" xlink:href="#bq" id="h"/><path d="M63-220v92h138v28H63V0H30v-248h175v28H63" id="bF"/><path d="M24 0v-261h32V0H24" id="bG"/><g id="i"><use transform="matrix(0.05,0,0,0.05,0,0)" xlink:href="#bF"/><use transform="matrix(0.05,0,0,0.05,10.950000000000001,0)" xlink:href="#bp"/><use transform="matrix(0.05,0,0,0.05,14.9,0)" xlink:href="#bG"/><use transform="matrix(0.05,0,0,0.05,18.85,0)" xlink:href="#bw"/></g><g id="j"><use transform="matrix(0.05,0,0,0.05,0,0)" xlink:href="#bF"/><use transform="matrix(0.05,0,0,0.05,10.950000000000001,0)" xlink:href="#bp"/><use transform="matrix(0.05,0,0,0.05,14.9,0)" xlink:href="#bG"/><use transform="matrix(0.05,0,0,0.05,18.85,0)" xlink:href="#bw"/><use transform="matrix(0.05,0,0,0.05,33.800000000000004,0)" xlink:href="#bn"/><use transform="matrix(0.05,0,0,0.05,38.800000000000004,0)" xlink:href="#bo"/></g><g id="k"><use transform="matrix(0.05,0,0,0.05,0,0)" xlink:href="#bF"/><use transform="matrix(0.05,0,0,0.05,10.950000000000001,0)" xlink:href="#bp"/><use transform="matrix(0.05,0,0,0.05,14.9,0)" xlink:href="#bG"/><use transform="matrix(0.05,0,0,0.05,18.85,0)" xlink:href="#bw"/><use transform="matrix(0.05,0,0,0.05,33.800000000000004,0)" xlink:href="#bu"/><use transform="matrix(0.05,0,0,0.05,46.75000000000001,0)" xlink:href="#bv"/><use transform="matrix(0.05,0,0,0.05,56.75,0)" xlink:href="#bw"/><use transform="matrix(0.05,0,0,0.05,71.7,0)" xlink:href="#bx"/></g><path d="M233-177c-1 41-23 64-60 70L243 0h-38l-65-103H63V0H30v-248c88 3 205-21 203 71zM63-129c60-2 137 13 137-47 0-61-80-42-137-45v92" id="bH"/><path d="M135-143c-3-34-86-38-87 0 15 53 115 12 119 90S17 21 10-45l28-5c4 36 97 45 98 0-10-56-113-15-118-90-4-57 82-63 122-42 12 7 21 19 24 35" id="bI"/><path d="M30-248c118-7 216 8 213 122C240-48 200 0 122 0H30v-248zM63-27c89 8 146-16 146-99s-60-101-146-95v194" id="bJ"/><g id="l"><use transform="matrix(0.05,0,0,0.05,0,0)" xlink:href="#bH"/><use transform="matrix(0.05,0,0,0.05,12.950000000000001,0)" xlink:href="#bx"/><use transform="matrix(0.05,0,0,0.05,22.950000000000003,0)" xlink:href="#bG"/><use transform="matrix(0.05,0,0,0.05,26.900000000000002,0)" xlink:href="#bx"/><use transform="matrix(0.05,0,0,0.05,36.900000000000006,0)" xlink:href="#bv"/><use transform="matrix(0.05,0,0,0.05,46.900000000000006,0)" xlink:href="#bI"/><use transform="matrix(0.05,0,0,0.05,55.900000000000006,0)" xlink:href="#bx"/><use transform="matrix(0.05,0,0,0.05,65.9,0)" xlink:href="#bJ"/><use transform="matrix(0.05,0,0,0.05,78.85000000000001,0)" xlink:href="#bv"/><use transform="matrix(0.05,0,0,0.05,88.85000000000001,0)" xlink:href="#bk"/><use transform="matrix(0.05,0,0,0.05,93.85000000000001,0)" xlink:href="#bx"/></g><g id="m"><use transform="matrix(0.05,0,0,0.05,0,0)" xlink:href="#bo"/><use transform="matrix(0.05,0,0,0.05,10,0)" xlink:href="#bv"/><use transform="matrix(0.05,0,0,0.05,20,0)" xlink:href="#bk"/><use transform="matrix(0.05,0,0,0.05,25,0)" xlink:href="#bx"/></g><path d="M185-189c-5-48-123-54-124 2 14 75 158 14 163 119 3 78-121 87-175 55-17-10-28-26-33-46l33-7c5 56 141 63 141-1 0-78-155-14-162-118-5-82 145-84 179-34 5 7 8 16 11 25" id="bK"/><path d="M177-190C167-65 218 103 67 71c-23-6-38-20-44-43l32-5c15 47 100 32 89-28v-30C133-14 115 1 83 1 29 1 15-40 15-95c0-56 16-97 71-98 29-1 48 16 59 35 1-10 0-23 2-32h30zM94-22c36 0 50-32 50-73 0-42-14-75-50-75-39 0-46 34-46 75s6 73 46 73" id="bL"/><g id="n"><use transform="matrix(0.05,0,0,0.05,0,0)" xlink:href="#bK"/><use transform="matrix(0.05,0,0,0.05,12,0)" xlink:href="#bG"/><use transform="matrix(0.05,0,0,0.05,15.949999999999998,0)" xlink:href="#bh"/><use transform="matrix(0.05,0,0,0.05,25.950000000000003,0)" xlink:href="#bL"/><use transform="matrix(0.05,0,0,0.05,35.95,0)" xlink:href="#bv"/><use transform="matrix(0.05,0,0,0.05,45.95,0)" xlink:href="#bj"/></g><path d="M101-251c82-7 93 87 43 132L82-64C71-53 59-42 53-27h129V0H18c2-99 128-94 128-182 0-28-16-43-45-43s-46 15-49 41l-32-3c6-41 34-60 81-64" id="bM"/><g id="o"><use transform="matrix(0.05,0,0,0.05,0,0)" xlink:href="#by"/><use transform="matrix(0.05,0,0,0.05,9,0)" xlink:href="#bv"/><use transform="matrix(0.05,0,0,0.05,19,0)" xlink:href="#bl"/><use transform="matrix(0.05,0,0,0.05,24.95,0)" xlink:href="#bz"/><use transform="matrix(0.05,0,0,0.05,33.95,0)" xlink:href="#bA"/><use transform="matrix(0.05,0,0,0.05,43.95,0)" xlink:href="#bv"/><use transform="matrix(0.05,0,0,0.05,53.95,0)" xlink:href="#bl"/><use transform="matrix(0.05,0,0,0.05,59.900000000000006,0)" xlink:href="#bB"/><use transform="matrix(0.05,0,0,0.05,65.85000000000001,0)" xlink:href="#bM"/><use transform="matrix(0.05,0,0,0.05,75.85000000000001,0)" xlink:href="#bD"/><use transform="matrix(0.05,0,0,0.05,85.85000000000001,0)" xlink:href="#bD"/><use transform="matrix(0.05,0,0,0.05,95.85000000000001,0)" xlink:href="#bE"/></g><path d="M140-251c81 0 123 46 123 126C263-46 219 4 140 4 59 4 17-45 17-125s42-126 123-126zm0 227c63 0 89-41 89-101s-29-99-89-99c-61 0-89 39-89 99S79-25 140-24" id="bN"/><use transform="matrix(0.05,0,0,0.05,0,0)" xlink:href="#bN" id="p"/><path d="M160-131c35 5 61 23 61 61C221 17 115-2 30 0v-248c76 3 177-17 177 60 0 33-19 50-47 57zm-97-11c50-1 110 9 110-42 0-47-63-36-110-37v79zm0 115c55-2 124 14 124-45 0-56-70-42-124-44v89" id="bO"/><path d="M140-251c81 0 123 46 123 126C263-53 228-8 163 1c7 30 30 48 69 40v23c-55 16-95-15-103-61C56-3 17-48 17-125c0-80 42-126 123-126zm0 227c63 0 89-41 89-101s-29-99-89-99c-61 0-89 39-89 99S79-25 140-24" id="bP"/><g id="q"><use transform="matrix(0.05,0,0,0.05,0,0)" xlink:href="#bO"/><use transform="matrix(0.05,0,0,0.05,12,0)" xlink:href="#bi"/><use transform="matrix(0.05,0,0,0.05,22,0)" xlink:href="#bo"/><use transform="matrix(0.05,0,0,0.05,32,0)" xlink:href="#bL"/><use transform="matrix(0.05,0,0,0.05,42,0)" xlink:href="#bx"/><use transform="matrix(0.05,0,0,0.05,52,0)" xlink:href="#bk"/><use transform="matrix(0.05,0,0,0.05,57,0)" xlink:href="#bP"/><use transform="matrix(0.05,0,0,0.05,71,0)" xlink:href="#bj"/><use transform="matrix(0.05,0,0,0.05,81,0)" xlink:href="#bk"/></g><path d="M115-194c53 0 69 39 70 98 0 66-23 100-70 100C84 3 66-7 56-30L54 0H23l1-261h32v101c10-23 28-34 59-34zm-8 174c40 0 45-34 45-75 0-40-5-75-45-74-42 0-51 32-51 76 0 43 10 73 51 73" id="bQ"/><g id="r"><use transform="matrix(0.05,0,0,0.05,0,0)" xlink:href="#bQ"/><use transform="matrix(0.05,0,0,0.05,10,0)" xlink:href="#bp"/><use transform="matrix(0.05,0,0,0.05,13.949999999999998,0)" xlink:href="#bL"/><use transform="matrix(0.05,0,0,0.05,23.95,0)" xlink:href="#bp"/><use transform="matrix(0.05,0,0,0.05,27.899999999999995,0)" xlink:href="#bj"/><use transform="matrix(0.05,0,0,0.05,37.9,0)" xlink:href="#bk"/></g><g id="s"><use transform="matrix(0.05,0,0,0.05,0,0)" xlink:href="#bO"/><use transform="matrix(0.05,0,0,0.05,12,0)" xlink:href="#bi"/><use transform="matrix(0.05,0,0,0.05,22,0)" xlink:href="#bo"/><use transform="matrix(0.05,0,0,0.05,32,0)" xlink:href="#bL"/><use transform="matrix(0.05,0,0,0.05,42,0)" xlink:href="#bx"/><use transform="matrix(0.05,0,0,0.05,52,0)" xlink:href="#bk"/><use transform="matrix(0.05,0,0,0.05,57,0)" xlink:href="#bg"/><use transform="matrix(0.05,0,0,0.05,69.95,0)" xlink:href="#bi"/><use transform="matrix(0.05,0,0,0.05,79.95,0)" xlink:href="#bl"/><use transform="matrix(0.05,0,0,0.05,85.9,0)" xlink:href="#bl"/><use transform="matrix(0.05,0,0,0.05,91.85000000000001,0)" xlink:href="#bx"/><use transform="matrix(0.05,0,0,0.05,101.85000000000001,0)" xlink:href="#bj"/><use transform="matrix(0.05,0,0,0.05,111.85000000000001,0)" xlink:href="#bz"/><use transform="matrix(0.05,0,0,0.05,120.85000000000001,0)" xlink:href="#bm"/></g><g id="t"><use transform="matrix(0.05,0,0,0.05,0,0)" xlink:href="#by"/><use transform="matrix(0.05,0,0,0.05,9,0)" xlink:href="#bv"/><use transform="matrix(0.05,0,0,0.05,19,0)" xlink:href="#bl"/><use transform="matrix(0.05,0,0,0.05,24.95,0)" xlink:href="#bz"/><use transform="matrix(0.05,0,0,0.05,33.95,0)" xlink:href="#bv"/><use transform="matrix(0.05,0,0,0.05,43.95,0)" xlink:href="#bA"/><use transform="matrix(0.05,0,0,0.05,53.95,0)" xlink:href="#bl"/><use transform="matrix(0.05,0,0,0.05,59.900000000000006,0)" xlink:href="#bB"/><use transform="matrix(0.05,0,0,0.05,65.85000000000001,0)" xlink:href="#bC"/><use transform="matrix(0.05,0,0,0.05,75.85000000000001,0)" xlink:href="#bD"/><use transform="matrix(0.05,0,0,0.05,85.85000000000001,0)" xlink:href="#bE"/></g><use transform="matrix(0.05,0,0,0.05,0,0)" xlink:href="#bN" id="u"/><g id="v"><use transform="matrix(0.05,0,0,0.05,0,0)" xlink:href="#bJ"/><use transform="matrix(0.05,0,0,0.05,12.950000000000001,0)" xlink:href="#bi"/><use transform="matrix(0.05,0,0,0.05,22.950000000000003,0)" xlink:href="#bl"/><use transform="matrix(0.05,0,0,0.05,28.900000000000002,0)" xlink:href="#bv"/><use transform="matrix(0.05,0,0,0.05,38.900000000000006,0)" xlink:href="#bk"/><use transform="matrix(0.05,0,0,0.05,43.900000000000006,0)" xlink:href="#bp"/><use transform="matrix(0.05,0,0,0.05,47.85000000000001,0)" xlink:href="#bh"/><use transform="matrix(0.05,0,0,0.05,57.85,0)" xlink:href="#bj"/></g><g id="w"><use transform="matrix(0.05,0,0,0.05,0,0)" xlink:href="#bp"/><use transform="matrix(0.05,0,0,0.05,3.95,0)" xlink:href="#bj"/><use transform="matrix(0.05,0,0,0.05,13.949999999999998,0)" xlink:href="#bk"/><use transform="matrix(0.05,0,0,0.05,18.95,0)" xlink:href="#bx"/><use transform="matrix(0.05,0,0,0.05,28.950000000000003,0)" xlink:href="#bl"/><use transform="matrix(0.05,0,0,0.05,34.9,0)" xlink:href="#by"/><use transform="matrix(0.05,0,0,0.05,43.9,0)" xlink:href="#bv"/><use transform="matrix(0.05,0,0,0.05,53.900000000000006,0)" xlink:href="#bG"/></g><use transform="matrix(0.05,0,0,0.05,0,0)" xlink:href="#bq" id="x"/><path d="M115-194c55 1 70 41 70 98S169 2 115 4C84 4 66-9 55-30l1 105H24l-1-265h31l2 30c10-21 28-34 59-34zm-8 174c40 0 45-34 45-75s-6-73-45-74c-42 0-51 32-51 76 0 43 10 73 51 73" id="bR"/><g id="y"><use transform="matrix(0.05,0,0,0.05,0,0)" xlink:href="#bJ"/><use transform="matrix(0.05,0,0,0.05,12.950000000000001,0)" xlink:href="#bx"/><use transform="matrix(0.05,0,0,0.05,22.950000000000003,0)" xlink:href="#bI"/><use transform="matrix(0.05,0,0,0.05,31.950000000000003,0)" xlink:href="#bz"/><use transform="matrix(0.05,0,0,0.05,40.95,0)" xlink:href="#bl"/><use transform="matrix(0.05,0,0,0.05,46.900000000000006,0)" xlink:href="#bp"/><use transform="matrix(0.05,0,0,0.05,50.85000000000001,0)" xlink:href="#bR"/><use transform="matrix(0.05,0,0,0.05,60.85,0)" xlink:href="#bk"/><use transform="matrix(0.05,0,0,0.05,65.85000000000001,0)" xlink:href="#bp"/><use transform="matrix(0.05,0,0,0.05,69.80000000000001,0)" xlink:href="#bh"/><use transform="matrix(0.05,0,0,0.05,79.80000000000001,0)" xlink:href="#bj"/></g><g id="z"><use transform="matrix(0.05,0,0,0.05,0,0)" xlink:href="#by"/><use transform="matrix(0.05,0,0,0.05,9,0)" xlink:href="#bv"/><use transform="matrix(0.05,0,0,0.05,19,0)" xlink:href="#bl"/><use transform="matrix(0.05,0,0,0.05,24.95,0)" xlink:href="#bz"/><use transform="matrix(0.05,0,0,0.05,33.95,0)" xlink:href="#bA"/><use transform="matrix(0.05,0,0,0.05,43.95,0)" xlink:href="#bv"/><use transform="matrix(0.05,0,0,0.05,53.95,0)" xlink:href="#bl"/><use transform="matrix(0.05,0,0,0.05,59.900000000000006,0)" xlink:href="#bB"/><use transform="matrix(0.05,0,0,0.05,65.85000000000001,0)" xlink:href="#bC"/><use transform="matrix(0.05,0,0,0.05,75.85000000000001,0)" xlink:href="#bD"/><use transform="matrix(0.05,0,0,0.05,85.85000000000001,0)" xlink:href="#bD"/><use transform="matrix(0.05,0,0,0.05,95.85000000000001,0)" xlink:href="#bD"/><use transform="matrix(0.05,0,0,0.05,105.85000000000001,0)" xlink:href="#bE"/></g><path d="M127-220V0H93v-220H8v-28h204v28h-85" id="bS"/><g id="A"><use transform="matrix(0.05,0,0,0.05,0,0)" xlink:href="#bF"/><use transform="matrix(0.05,0,0,0.05,10.950000000000001,0)" xlink:href="#bp"/><use transform="matrix(0.05,0,0,0.05,14.9,0)" xlink:href="#bG"/><use transform="matrix(0.05,0,0,0.05,18.85,0)" xlink:href="#bw"/><use transform="matrix(0.05,0,0,0.05,33.800000000000004,0)" xlink:href="#bS"/><use transform="matrix(0.05,0,0,0.05,43.75000000000001,0)" xlink:href="#bm"/><use transform="matrix(0.05,0,0,0.05,52.75,0)" xlink:href="#bR"/><use transform="matrix(0.05,0,0,0.05,62.75,0)" xlink:href="#bx"/></g><path d="M143 4C61 4 22-44 18-125c-5-107 100-154 193-111 17 8 29 25 37 43l-32 9c-13-25-37-40-76-40-61 0-88 39-88 99 0 61 29 100 91 101 35 0 62-11 79-27v-45h-74v-28h105v86C228-13 192 4 143 4" id="bT"/><g id="B"><use transform="matrix(0.05,0,0,0.05,0,0)" xlink:href="#bT"/><use transform="matrix(0.05,0,0,0.05,14,0)" xlink:href="#bx"/><use transform="matrix(0.05,0,0,0.05,24,0)" xlink:href="#bj"/><use transform="matrix(0.05,0,0,0.05,34,0)" xlink:href="#bl"/><use transform="matrix(0.05,0,0,0.05,39.95,0)" xlink:href="#bx"/><use transform="matrix(0.05,0,0,0.05,49.95,0)" xlink:href="#bn"/><use transform="matrix(0.05,0,0,0.05,54.95,0)" xlink:href="#bo"/></g><g id="C"><use transform="matrix(0.05,0,0,0.05,0,0)" xlink:href="#bq"/><use transform="matrix(0.05,0,0,0.05,14.950000000000001,0)" xlink:href="#br"/></g><g id="D"><use transform="matrix(0.05,0,0,0.05,0,0)" xlink:href="#bF"/><use transform="matrix(0.05,0,0,0.05,10.950000000000001,0)" xlink:href="#bt"/><use transform="matrix(0.05,0,0,0.05,22.950000000000003,0)" xlink:href="#bC"/></g><g id="E"><use transform="matrix(0.05,0,0,0.05,0,0)" xlink:href="#bK"/><use transform="matrix(0.05,0,0,0.05,12,0)" xlink:href="#bz"/><use transform="matrix(0.05,0,0,0.05,21,0)" xlink:href="#bh"/><use transform="matrix(0.05,0,0,0.05,31,0)" xlink:href="#bl"/><use transform="matrix(0.05,0,0,0.05,36.95,0)" xlink:href="#bx"/></g><path d="M232-93c-1 65-40 97-104 97C67 4 28-28 28-90v-158h33c8 89-33 224 67 224 102 0 64-133 71-224h33v155" id="bU"/><g id="F"><use transform="matrix(0.05,0,0,0.05,0,0)" xlink:href="#bU"/><use transform="matrix(0.05,0,0,0.05,12.950000000000001,0)" xlink:href="#bI"/><use transform="matrix(0.05,0,0,0.05,21.950000000000003,0)" xlink:href="#bx"/><use transform="matrix(0.05,0,0,0.05,31.950000000000003,0)" xlink:href="#bl"/><use transform="matrix(0.05,0,0,0.05,37.900000000000006,0)" xlink:href="#bn"/><use transform="matrix(0.05,0,0,0.05,42.900000000000006,0)" xlink:href="#bo"/></g><g id="G"><use transform="matrix(0.05,0,0,0.05,0,0)" xlink:href="#bK"/><use transform="matrix(0.05,0,0,0.05,12,0)" xlink:href="#bz"/><use transform="matrix(0.05,0,0,0.05,21,0)" xlink:href="#bh"/><use transform="matrix(0.05,0,0,0.05,31,0)" xlink:href="#bl"/><use transform="matrix(0.05,0,0,0.05,36.95,0)" xlink:href="#bx"/></g><path d="M101-234c-31-9-42 10-38 44h38v23H63V0H32v-167H5v-23h27c-7-52 17-82 69-68v24" id="bV"/><g id="H"><use transform="matrix(0.05,0,0,0.05,0,0)" xlink:href="#bV"/><use transform="matrix(0.05,0,0,0.05,5,0)" xlink:href="#bG"/><use transform="matrix(0.05,0,0,0.05,8.95,0)" xlink:href="#bh"/><use transform="matrix(0.05,0,0,0.05,18.95,0)" xlink:href="#bv"/><use transform="matrix(0.05,0,0,0.05,28.950000000000003,0)" xlink:href="#bk"/></g><g id="I"><use transform="matrix(0.05,0,0,0.05,0,0)" xlink:href="#bs"/><use transform="matrix(0.05,0,0,0.05,12,0)" xlink:href="#bt"/><use transform="matrix(0.05,0,0,0.05,24,0)" xlink:href="#br"/></g><g id="J"><use transform="matrix(0.05,0,0,0.05,0,0)" xlink:href="#bF"/><use transform="matrix(0.05,0,0,0.05,10.950000000000001,0)" xlink:href="#bt"/><use transform="matrix(0.05,0,0,0.05,22.950000000000003,0)" xlink:href="#bC"/></g><g id="K"><use transform="matrix(0.05,0,0,0.05,0,0)" xlink:href="#bs"/><use transform="matrix(0.05,0,0,0.05,12,0)" xlink:href="#bx"/><use transform="matrix(0.05,0,0,0.05,22,0)" xlink:href="#bl"/><use transform="matrix(0.05,0,0,0.05,27.950000000000003,0)" xlink:href="#bI"/><use transform="matrix(0.05,0,0,0.05,36.95,0)" xlink:href="#bh"/><use transform="matrix(0.05,0,0,0.05,46.95,0)" xlink:href="#bj"/></g><g id="L"><use transform="matrix(0.05,0,0,0.05,0,0)" xlink:href="#bs"/><use transform="matrix(0.05,0,0,0.05,12,0)" xlink:href="#bx"/><use transform="matrix(0.05,0,0,0.05,22,0)" xlink:href="#bl"/><use transform="matrix(0.05,0,0,0.05,27.950000000000003,0)" xlink:href="#bI"/><use transform="matrix(0.05,0,0,0.05,36.95,0)" xlink:href="#bh"/><use transform="matrix(0.05,0,0,0.05,46.95,0)" xlink:href="#bj"/><use transform="matrix(0.05,0,0,0.05,56.95,0)" xlink:href="#bn"/><use transform="matrix(0.05,0,0,0.05,61.95,0)" xlink:href="#bo"/></g><g id="M"><use transform="matrix(0.05,0,0,0.05,0,0)" xlink:href="#bF"/><use transform="matrix(0.05,0,0,0.05,10.950000000000001,0)" xlink:href="#bp"/><use transform="matrix(0.05,0,0,0.05,14.9,0)" xlink:href="#bl"/><use transform="matrix(0.05,0,0,0.05,20.85,0)" xlink:href="#bI"/><use transform="matrix(0.05,0,0,0.05,29.85,0)" xlink:href="#bk"/><use transform="matrix(0.05,0,0,0.05,34.85,0)" xlink:href="#bu"/><use transform="matrix(0.05,0,0,0.05,47.800000000000004,0)" xlink:href="#bv"/><use transform="matrix(0.05,0,0,0.05,57.800000000000004,0)" xlink:href="#bw"/><use transform="matrix(0.05,0,0,0.05,72.75,0)" xlink:href="#bx"/></g><g id="N"><use transform="matrix(0.05,0,0,0.05,0,0)" xlink:href="#bO"/><use transform="matrix(0.05,0,0,0.05,12,0)" xlink:href="#bp"/><use transform="matrix(0.05,0,0,0.05,15.949999999999998,0)" xlink:href="#bl"/><use transform="matrix(0.05,0,0,0.05,21.9,0)" xlink:href="#bk"/><use transform="matrix(0.05,0,0,0.05,26.899999999999995,0)" xlink:href="#bA"/><use transform="matrix(0.05,0,0,0.05,36.9,0)" xlink:href="#bo"/><use transform="matrix(0.05,0,0,0.05,46.9,0)" xlink:href="#bv"/><use transform="matrix(0.05,0,0,0.05,56.900000000000006,0)" xlink:href="#bm"/></g><path d="M30 0v-248h33v221h125V0H30" id="bW"/><g id="O"><use transform="matrix(0.05,0,0,0.05,0,0)" xlink:href="#bW"/><use transform="matrix(0.05,0,0,0.05,10,0)" xlink:href="#bv"/><use transform="matrix(0.05,0,0,0.05,20,0)" xlink:href="#bI"/><use transform="matrix(0.05,0,0,0.05,29,0)" xlink:href="#bk"/><use transform="matrix(0.05,0,0,0.05,34,0)" xlink:href="#bu"/><use transform="matrix(0.05,0,0,0.05,46.95,0)" xlink:href="#bv"/><use transform="matrix(0.05,0,0,0.05,56.95,0)" xlink:href="#bw"/><use transform="matrix(0.05,0,0,0.05,71.9,0)" xlink:href="#bx"/></g><g id="P"><use transform="matrix(0.05,0,0,0.05,0,0)" xlink:href="#bs"/><use transform="matrix(0.05,0,0,0.05,12,0)" xlink:href="#bv"/><use transform="matrix(0.05,0,0,0.05,22,0)" xlink:href="#bk"/><use transform="matrix(0.05,0,0,0.05,27,0)" xlink:href="#bl"/><use transform="matrix(0.05,0,0,0.05,32.95,0)" xlink:href="#bh"/><use transform="matrix(0.05,0,0,0.05,42.95,0)" xlink:href="#bj"/><use transform="matrix(0.05,0,0,0.05,52.95,0)" xlink:href="#bm"/><use transform="matrix(0.05,0,0,0.05,61.95,0)" xlink:href="#bw"/><use transform="matrix(0.05,0,0,0.05,76.9,0)" xlink:href="#bp"/><use transform="matrix(0.05,0,0,0.05,80.85000000000001,0)" xlink:href="#bz"/></g><g id="Q"><use transform="matrix(0.05,0,0,0.05,0,0)" xlink:href="#bp"/><use transform="matrix(0.05,0,0,0.05,3.95,0)" xlink:href="#bj"/><use transform="matrix(0.05,0,0,0.05,13.949999999999998,0)" xlink:href="#bk"/></g><g id="R"><use transform="matrix(0.05,0,0,0.05,0,0)" xlink:href="#bN"/><use transform="matrix(0.05,0,0,0.05,14,0)" xlink:href="#br"/></g><path d="M143 0L79-87 56-68V0H24v-261h32v163l83-92h37l-77 82L181 0h-38" id="bX"/><g id="S"><use transform="matrix(0.05,0,0,0.05,0,0)" xlink:href="#bF"/><use transform="matrix(0.05,0,0,0.05,10.950000000000001,0)" xlink:href="#bp"/><use transform="matrix(0.05,0,0,0.05,14.9,0)" xlink:href="#bG"/><use transform="matrix(0.05,0,0,0.05,18.85,0)" xlink:href="#bw"/><use transform="matrix(0.05,0,0,0.05,33.800000000000004,0)" xlink:href="#bw"/><use transform="matrix(0.05,0,0,0.05,48.75000000000001,0)" xlink:href="#bv"/><use transform="matrix(0.05,0,0,0.05,58.75,0)" xlink:href="#bX"/><use transform="matrix(0.05,0,0,0.05,67.75,0)" xlink:href="#bx"/><use transform="matrix(0.05,0,0,0.05,77.75,0)" xlink:href="#bl"/></g><g id="T"><use transform="matrix(0.05,0,0,0.05,0,0)" xlink:href="#bg"/><use transform="matrix(0.05,0,0,0.05,12.950000000000001,0)" xlink:href="#bA"/><use transform="matrix(0.05,0,0,0.05,22.950000000000003,0)" xlink:href="#bv"/><use transform="matrix(0.05,0,0,0.05,32.95,0)" xlink:href="#bl"/><use transform="matrix(0.05,0,0,0.05,38.900000000000006,0)" xlink:href="#bv"/><use transform="matrix(0.05,0,0,0.05,48.900000000000006,0)" xlink:href="#bz"/><use transform="matrix(0.05,0,0,0.05,57.900000000000006,0)" xlink:href="#bk"/><use transform="matrix(0.05,0,0,0.05,62.900000000000006,0)" xlink:href="#bx"/><use transform="matrix(0.05,0,0,0.05,72.9,0)" xlink:href="#bl"/></g><g id="U"><use transform="matrix(0.05,0,0,0.05,0,0)" xlink:href="#by"/><use transform="matrix(0.05,0,0,0.05,9,0)" xlink:href="#bv"/><use transform="matrix(0.05,0,0,0.05,19,0)" xlink:href="#bl"/><use transform="matrix(0.05,0,0,0.05,24.95,0)" xlink:href="#bz"/><use transform="matrix(0.05,0,0,0.05,33.95,0)" xlink:href="#bA"/><use transform="matrix(0.05,0,0,0.05,43.95,0)" xlink:href="#bv"/><use transform="matrix(0.05,0,0,0.05,53.95,0)" xlink:href="#bl"/><use transform="matrix(0.05,0,0,0.05,59.900000000000006,0)" xlink:href="#bB"/><use transform="matrix(0.05,0,0,0.05,65.85000000000001,0)" xlink:href="#bC"/><use transform="matrix(0.05,0,0,0.05,75.85000000000001,0)" xlink:href="#bD"/><use transform="matrix(0.05,0,0,0.05,85.85000000000001,0)" xlink:href="#bD"/><use transform="matrix(0.05,0,0,0.05,95.85000000000001,0)" xlink:href="#bE"/></g><g id="V"><use transform="matrix(0.05,0,0,0.05,0,0)" xlink:href="#bs"/><use transform="matrix(0.05,0,0,0.05,12,0)" xlink:href="#bl"/><use transform="matrix(0.05,0,0,0.05,17.95,0)" xlink:href="#bh"/><use transform="matrix(0.05,0,0,0.05,27.950000000000003,0)" xlink:href="#bV"/><use transform="matrix(0.05,0,0,0.05,32.95,0)" xlink:href="#bx"/><use transform="matrix(0.05,0,0,0.05,42.95,0)" xlink:href="#bI"/><use transform="matrix(0.05,0,0,0.05,51.95,0)" xlink:href="#bI"/><use transform="matrix(0.05,0,0,0.05,60.95,0)" xlink:href="#bp"/><use transform="matrix(0.05,0,0,0.05,64.9,0)" xlink:href="#bh"/><use transform="matrix(0.05,0,0,0.05,74.9,0)" xlink:href="#bj"/><use transform="matrix(0.05,0,0,0.05,84.9,0)" xlink:href="#bn"/><use transform="matrix(0.05,0,0,0.05,89.9,0)" xlink:href="#bo"/></g><g id="W"><use transform="matrix(0.05,0,0,0.05,0,0)" xlink:href="#bs"/><use transform="matrix(0.05,0,0,0.05,12,0)" xlink:href="#bt"/><use transform="matrix(0.05,0,0,0.05,24,0)" xlink:href="#br"/></g><g id="X"><use transform="matrix(0.05,0,0,0.05,0,0)" xlink:href="#bF"/><use transform="matrix(0.05,0,0,0.05,10.950000000000001,0)" xlink:href="#bt"/><use transform="matrix(0.05,0,0,0.05,22.950000000000003,0)" xlink:href="#bM"/></g><path d="M126-127c33 6 58 20 58 59 0 88-139 92-164 29-3-8-5-16-6-25l32-3c6 27 21 44 54 44 32 0 52-15 52-46 0-38-36-46-79-43v-28c39 1 72-4 72-42 0-27-17-43-46-43-28 0-47 15-49 41l-32-3c6-42 35-63 81-64 48-1 79 21 79 65 0 36-21 52-52 59" id="bY"/><g id="Y"><use transform="matrix(0.05,0,0,0.05,0,0)" xlink:href="#bF"/><use transform="matrix(0.05,0,0,0.05,10.950000000000001,0)" xlink:href="#bt"/><use transform="matrix(0.05,0,0,0.05,22.950000000000003,0)" xlink:href="#bY"/></g><g id="Z"><use transform="matrix(0.05,0,0,0.05,0,0)" xlink:href="#bs"/><use transform="matrix(0.05,0,0,0.05,12,0)" xlink:href="#bl"/><use transform="matrix(0.05,0,0,0.05,17.95,0)" xlink:href="#bh"/><use transform="matrix(0.05,0,0,0.05,27.950000000000003,0)" xlink:href="#bV"/><use transform="matrix(0.05,0,0,0.05,32.95,0)" xlink:href="#bx"/><use transform="matrix(0.05,0,0,0.05,42.95,0)" xlink:href="#bI"/><use transform="matrix(0.05,0,0,0.05,51.95,0)" xlink:href="#bI"/><use transform="matrix(0.05,0,0,0.05,60.95,0)" xlink:href="#bp"/><use transform="matrix(0.05,0,0,0.05,64.9,0)" xlink:href="#bh"/><use transform="matrix(0.05,0,0,0.05,74.9,0)" xlink:href="#bj"/></g><g id="aa"><use transform="matrix(0.05,0,0,0.05,0,0)" xlink:href="#bs"/><use transform="matrix(0.05,0,0,0.05,12,0)" xlink:href="#bl"/><use transform="matrix(0.05,0,0,0.05,17.95,0)" xlink:href="#bh"/><use transform="matrix(0.05,0,0,0.05,27.950000000000003,0)" xlink:href="#bV"/><use transform="matrix(0.05,0,0,0.05,32.95,0)" xlink:href="#bx"/><use transform="matrix(0.05,0,0,0.05,42.95,0)" xlink:href="#bI"/><use transform="matrix(0.05,0,0,0.05,51.95,0)" xlink:href="#bI"/><use transform="matrix(0.05,0,0,0.05,60.95,0)" xlink:href="#bp"/><use transform="matrix(0.05,0,0,0.05,64.9,0)" xlink:href="#bh"/><use transform="matrix(0.05,0,0,0.05,74.9,0)" xlink:href="#bj"/><use transform="matrix(0.05,0,0,0.05,84.9,0)" xlink:href="#bu"/><use transform="matrix(0.05,0,0,0.05,97.85000000000001,0)" xlink:href="#bv"/><use transform="matrix(0.05,0,0,0.05,107.85000000000001,0)" xlink:href="#bw"/><use transform="matrix(0.05,0,0,0.05,122.80000000000001,0)" xlink:href="#bx"/></g><g id="ab"><use transform="matrix(0.05,0,0,0.05,0,0)" xlink:href="#bT"/><use transform="matrix(0.05,0,0,0.05,14,0)" xlink:href="#bx"/><use transform="matrix(0.05,0,0,0.05,24,0)" xlink:href="#bj"/><use transform="matrix(0.05,0,0,0.05,34,0)" xlink:href="#bl"/><use transform="matrix(0.05,0,0,0.05,39.95,0)" xlink:href="#bx"/></g><g id="ac"><use transform="matrix(0.05,0,0,0.05,0,0)" xlink:href="#bT"/><use transform="matrix(0.05,0,0,0.05,14,0)" xlink:href="#bx"/><use transform="matrix(0.05,0,0,0.05,24,0)" xlink:href="#bj"/><use transform="matrix(0.05,0,0,0.05,34,0)" xlink:href="#bl"/><use transform="matrix(0.05,0,0,0.05,39.95,0)" xlink:href="#bx"/><use transform="matrix(0.05,0,0,0.05,49.95,0)" xlink:href="#bn"/><use transform="matrix(0.05,0,0,0.05,54.95,0)" xlink:href="#bo"/></g><g id="ad"><use transform="matrix(0.05,0,0,0.05,0,0)" xlink:href="#bT"/><use transform="matrix(0.05,0,0,0.05,14,0)" xlink:href="#bx"/><use transform="matrix(0.05,0,0,0.05,24,0)" xlink:href="#bj"/><use transform="matrix(0.05,0,0,0.05,34,0)" xlink:href="#bl"/><use transform="matrix(0.05,0,0,0.05,39.95,0)" xlink:href="#bx"/><use transform="matrix(0.05,0,0,0.05,49.95,0)" xlink:href="#bu"/><use transform="matrix(0.05,0,0,0.05,62.900000000000006,0)" xlink:href="#bv"/><use transform="matrix(0.05,0,0,0.05,72.9,0)" xlink:href="#bw"/><use transform="matrix(0.05,0,0,0.05,87.85000000000001,0)" xlink:href="#bx"/></g><path d="M205 0l-28-72H64L36 0H1l101-248h38L239 0h-34zm-38-99l-47-123c-12 45-31 82-46 123h93" id="bZ"/><path d="M206 0h-36l-40-164L89 0H53L-1-190h32L70-26l43-164h34l41 164 42-164h31" id="ca"/><g id="ae"><use transform="matrix(0.05,0,0,0.05,0,0)" xlink:href="#bZ"/><use transform="matrix(0.05,0,0,0.05,11.65,0)" xlink:href="#ca"/><use transform="matrix(0.05,0,0,0.05,24.6,0)" xlink:href="#bv"/><use transform="matrix(0.05,0,0,0.05,34.6,0)" xlink:href="#bl"/><use transform="matrix(0.05,0,0,0.05,40.550000000000004,0)" xlink:href="#bo"/><use transform="matrix(0.05,0,0,0.05,50.550000000000004,0)" xlink:href="#bp"/><use transform="matrix(0.05,0,0,0.05,54.5,0)" xlink:href="#bj"/><use transform="matrix(0.05,0,0,0.05,64.5,0)" xlink:href="#bL"/><use transform="matrix(0.05,0,0,0.05,74.5,0)" xlink:href="#bN"/><use transform="matrix(0.05,0,0,0.05,88.5,0)" xlink:href="#bl"/><use transform="matrix(0.05,0,0,0.05,94.45,0)" xlink:href="#bL"/></g><g id="af"><use transform="matrix(0.05,0,0,0.05,0,0)" xlink:href="#bZ"/><use transform="matrix(0.05,0,0,0.05,11.65,0)" xlink:href="#ca"/><use transform="matrix(0.05,0,0,0.05,24.6,0)" xlink:href="#bv"/><use transform="matrix(0.05,0,0,0.05,34.6,0)" xlink:href="#bl"/><use transform="matrix(0.05,0,0,0.05,40.550000000000004,0)" xlink:href="#bo"/><use transform="matrix(0.05,0,0,0.05,50.550000000000004,0)" xlink:href="#bn"/><use transform="matrix(0.05,0,0,0.05,55.550000000000004,0)" xlink:href="#bo"/></g><g id="ag"><use transform="matrix(0.05,0,0,0.05,0,0)" xlink:href="#bZ"/><use transform="matrix(0.05,0,0,0.05,11.65,0)" xlink:href="#ca"/><use transform="matrix(0.05,0,0,0.05,24.6,0)" xlink:href="#bv"/><use transform="matrix(0.05,0,0,0.05,34.6,0)" xlink:href="#bl"/><use transform="matrix(0.05,0,0,0.05,40.550000000000004,0)" xlink:href="#bo"/><use transform="matrix(0.05,0,0,0.05,50.550000000000004,0)" xlink:href="#bu"/><use transform="matrix(0.05,0,0,0.05,63.5,0)" xlink:href="#bv"/><use transform="matrix(0.05,0,0,0.05,73.5,0)" xlink:href="#bw"/><use transform="matrix(0.05,0,0,0.05,88.45,0)" xlink:href="#bx"/></g><g id="ah"><use transform="matrix(0.05,0,0,0.05,0,0)" xlink:href="#bZ"/><use transform="matrix(0.05,0,0,0.05,11.65,0)" xlink:href="#ca"/><use transform="matrix(0.05,0,0,0.05,24.6,0)" xlink:href="#bv"/><use transform="matrix(0.05,0,0,0.05,34.6,0)" xlink:href="#bl"/><use transform="matrix(0.05,0,0,0.05,40.550000000000004,0)" xlink:href="#bo"/><use transform="matrix(0.05,0,0,0.05,50.550000000000004,0)" xlink:href="#bJ"/><use transform="matrix(0.05,0,0,0.05,63.5,0)" xlink:href="#bv"/><use transform="matrix(0.05,0,0,0.05,73.5,0)" xlink:href="#bk"/><use transform="matrix(0.05,0,0,0.05,78.5,0)" xlink:href="#bx"/></g><g id="ai"><use transform="matrix(0.05,0,0,0.05,0,0)" xlink:href="#bo"/><use transform="matrix(0.05,0,0,0.05,10,0)" xlink:href="#bv"/><use transform="matrix(0.05,0,0,0.05,20,0)" xlink:href="#bk"/><use transform="matrix(0.05,0,0,0.05,25,0)" xlink:href="#bx"/></g><g id="aj"><use transform="matrix(0.05,0,0,0.05,0,0)" xlink:href="#bs"/><use transform="matrix(0.05,0,0,0.05,12,0)" xlink:href="#bx"/><use transform="matrix(0.05,0,0,0.05,22,0)" xlink:href="#bl"/><use transform="matrix(0.05,0,0,0.05,27.950000000000003,0)" xlink:href="#bI"/><use transform="matrix(0.05,0,0,0.05,36.95,0)" xlink:href="#bh"/><use transform="matrix(0.05,0,0,0.05,46.95,0)" xlink:href="#bj"/><use transform="matrix(0.05,0,0,0.05,56.95,0)" xlink:href="#bu"/><use transform="matrix(0.05,0,0,0.05,69.9,0)" xlink:href="#bh"/><use transform="matrix(0.05,0,0,0.05,79.9,0)" xlink:href="#bw"/><use transform="matrix(0.05,0,0,0.05,94.85000000000001,0)" xlink:href="#bp"/><use transform="matrix(0.05,0,0,0.05,98.80000000000001,0)" xlink:href="#bj"/><use transform="matrix(0.05,0,0,0.05,108.80000000000001,0)" xlink:href="#bv"/><use transform="matrix(0.05,0,0,0.05,118.80000000000001,0)" xlink:href="#bk"/><use transform="matrix(0.05,0,0,0.05,123.80000000000001,0)" xlink:href="#bp"/><use transform="matrix(0.05,0,0,0.05,127.75,0)" xlink:href="#bh"/><use transform="matrix(0.05,0,0,0.05,137.75,0)" xlink:href="#bj"/></g><g id="ak"><use transform="matrix(0.05,0,0,0.05,0,0)" xlink:href="#bs"/><use transform="matrix(0.05,0,0,0.05,12,0)" xlink:href="#bu"/><use transform="matrix(0.05,0,0,0.05,24.950000000000003,0)" xlink:href="#bh"/><use transform="matrix(0.05,0,0,0.05,34.95,0)" xlink:href="#bw"/><use transform="matrix(0.05,0,0,0.05,49.900000000000006,0)" xlink:href="#bp"/><use transform="matrix(0.05,0,0,0.05,53.85,0)" xlink:href="#bj"/><use transform="matrix(0.05,0,0,0.05,63.85,0)" xlink:href="#bv"/><use transform="matrix(0.05,0,0,0.05,73.85000000000001,0)" xlink:href="#bk"/><use transform="matrix(0.05,0,0,0.05,78.85000000000001,0)" xlink:href="#bp"/><use transform="matrix(0.05,0,0,0.05,82.80000000000001,0)" xlink:href="#bh"/><use transform="matrix(0.05,0,0,0.05,92.80000000000001,0)" xlink:href="#bj"/><use transform="matrix(0.05,0,0,0.05,102.80000000000001,0)" xlink:href="#bn"/><use transform="matrix(0.05,0,0,0.05,107.80000000000001,0)" xlink:href="#bo"/></g><g id="al"><use transform="matrix(0.05,0,0,0.05,0,0)" xlink:href="#bs"/><use transform="matrix(0.05,0,0,0.05,12,0)" xlink:href="#bu"/><use transform="matrix(0.05,0,0,0.05,24.950000000000003,0)" xlink:href="#bh"/><use transform="matrix(0.05,0,0,0.05,34.95,0)" xlink:href="#bw"/><use transform="matrix(0.05,0,0,0.05,49.900000000000006,0)" xlink:href="#bp"/><use transform="matrix(0.05,0,0,0.05,53.85,0)" xlink:href="#bj"/><use transform="matrix(0.05,0,0,0.05,63.85,0)" xlink:href="#bv"/><use transform="matrix(0.05,0,0,0.05,73.85000000000001,0)" xlink:href="#bk"/><use transform="matrix(0.05,0,0,0.05,78.85000000000001,0)" xlink:href="#bp"/><use transform="matrix(0.05,0,0,0.05,82.80000000000001,0)" xlink:href="#bh"/><use transform="matrix(0.05,0,0,0.05,92.80000000000001,0)" xlink:href="#bj"/><use transform="matrix(0.05,0,0,0.05,102.80000000000001,0)" xlink:href="#bu"/><use transform="matrix(0.05,0,0,0.05,115.75,0)" xlink:href="#bv"/><use transform="matrix(0.05,0,0,0.05,125.75,0)" xlink:href="#bw"/><use transform="matrix(0.05,0,0,0.05,140.70000000000002,0)" xlink:href="#bx"/></g><g id="am"><use transform="matrix(0.05,0,0,0.05,0,0)" xlink:href="#bs"/><use transform="matrix(0.05,0,0,0.05,12,0)" xlink:href="#bl"/><use transform="matrix(0.05,0,0,0.05,17.95,0)" xlink:href="#bh"/><use transform="matrix(0.05,0,0,0.05,27.950000000000003,0)" xlink:href="#bV"/><use transform="matrix(0.05,0,0,0.05,32.95,0)" xlink:href="#bx"/><use transform="matrix(0.05,0,0,0.05,42.95,0)" xlink:href="#bI"/><use transform="matrix(0.05,0,0,0.05,51.95,0)" xlink:href="#bI"/><use transform="matrix(0.05,0,0,0.05,60.95,0)" xlink:href="#bp"/><use transform="matrix(0.05,0,0,0.05,64.9,0)" xlink:href="#bh"/><use transform="matrix(0.05,0,0,0.05,74.9,0)" xlink:href="#bj"/><use transform="matrix(0.05,0,0,0.05,84.9,0)" xlink:href="#bn"/><use transform="matrix(0.05,0,0,0.05,89.9,0)" xlink:href="#bo"/></g><g id="an"><use transform="matrix(0.05,0,0,0.05,0,0)" xlink:href="#bN"/><use transform="matrix(0.05,0,0,0.05,14,0)" xlink:href="#br"/></g><g id="ao"><use transform="matrix(0.05,0,0,0.05,0,0)" xlink:href="#bF"/><use transform="matrix(0.05,0,0,0.05,10.950000000000001,0)" xlink:href="#bp"/><use transform="matrix(0.05,0,0,0.05,14.9,0)" xlink:href="#bG"/><use transform="matrix(0.05,0,0,0.05,18.85,0)" xlink:href="#bw"/><use transform="matrix(0.05,0,0,0.05,33.800000000000004,0)" xlink:href="#bZ"/><use transform="matrix(0.05,0,0,0.05,45.45,0)" xlink:href="#ca"/><use transform="matrix(0.05,0,0,0.05,58.400000000000006,0)" xlink:href="#bv"/><use transform="matrix(0.05,0,0,0.05,68.4,0)" xlink:href="#bl"/><use transform="matrix(0.05,0,0,0.05,74.35000000000001,0)" xlink:href="#bo"/></g><path d="M266 0h-40l-56-210L115 0H75L2-248h35L96-30l15-64 43-154h32l59 218 59-218h35" id="cb"/><g id="ap"><use transform="matrix(0.05,0,0,0.05,0,0)" xlink:href="#cb"/><use transform="matrix(0.05,0,0,0.05,16.95,0)" xlink:href="#bp"/><use transform="matrix(0.05,0,0,0.05,20.9,0)" xlink:href="#bj"/></g><g id="aq"><use transform="matrix(0.05,0,0,0.05,0,0)" xlink:href="#bQ"/><use transform="matrix(0.05,0,0,0.05,10,0)" xlink:href="#bh"/><use transform="matrix(0.05,0,0,0.05,20,0)" xlink:href="#bh"/><use transform="matrix(0.05,0,0,0.05,30,0)" xlink:href="#bG"/></g><g id="ar"><use transform="matrix(0.05,0,0,0.05,0,0)" xlink:href="#bZ"/><use transform="matrix(0.05,0,0,0.05,11.65,0)" xlink:href="#ca"/><use transform="matrix(0.05,0,0,0.05,24.6,0)" xlink:href="#bv"/><use transform="matrix(0.05,0,0,0.05,34.6,0)" xlink:href="#bl"/><use transform="matrix(0.05,0,0,0.05,40.550000000000004,0)" xlink:href="#bo"/><use transform="matrix(0.05,0,0,0.05,50.550000000000004,0)" xlink:href="#bn"/><use transform="matrix(0.05,0,0,0.05,55.550000000000004,0)" xlink:href="#bo"/></g><g id="as"><use transform="matrix(0.05,0,0,0.05,0,0)" xlink:href="#bq"/><use transform="matrix(0.05,0,0,0.05,14.950000000000001,0)" xlink:href="#br"/></g><g id="at"><use transform="matrix(0.05,0,0,0.05,0,0)" xlink:href="#bs"/><use transform="matrix(0.05,0,0,0.05,12,0)" xlink:href="#bt"/><use transform="matrix(0.05,0,0,0.05,24,0)" xlink:href="#br"/></g><g id="au"><use transform="matrix(0.05,0,0,0.05,0,0)" xlink:href="#bF"/><use transform="matrix(0.05,0,0,0.05,10.950000000000001,0)" xlink:href="#bu"/><use transform="matrix(0.05,0,0,0.05,23.900000000000002,0)" xlink:href="#bh"/><use transform="matrix(0.05,0,0,0.05,33.900000000000006,0)" xlink:href="#bw"/><use transform="matrix(0.05,0,0,0.05,48.85000000000001,0)" xlink:href="#bp"/><use transform="matrix(0.05,0,0,0.05,52.80000000000001,0)" xlink:href="#bj"/><use transform="matrix(0.05,0,0,0.05,62.80000000000001,0)" xlink:href="#bv"/><use transform="matrix(0.05,0,0,0.05,72.80000000000001,0)" xlink:href="#bk"/><use transform="matrix(0.05,0,0,0.05,77.80000000000001,0)" xlink:href="#bp"/><use transform="matrix(0.05,0,0,0.05,81.75000000000001,0)" xlink:href="#bh"/><use transform="matrix(0.05,0,0,0.05,91.75000000000001,0)" xlink:href="#bj"/><use transform="matrix(0.05,0,0,0.05,101.75000000000001,0)" xlink:href="#bn"/><use transform="matrix(0.05,0,0,0.05,106.75,0)" xlink:href="#bo"/></g><g id="av"><use transform="matrix(0.05,0,0,0.05,0,0)" xlink:href="#bF"/><use transform="matrix(0.05,0,0,0.05,10.950000000000001,0)" xlink:href="#bt"/><use transform="matrix(0.05,0,0,0.05,22.950000000000003,0)" xlink:href="#bM"/></g><g id="aw"><use transform="matrix(0.05,0,0,0.05,0,0)" xlink:href="#bF"/><use transform="matrix(0.05,0,0,0.05,10.950000000000001,0)" xlink:href="#bp"/><use transform="matrix(0.05,0,0,0.05,14.9,0)" xlink:href="#bG"/><use transform="matrix(0.05,0,0,0.05,18.85,0)" xlink:href="#bw"/><use transform="matrix(0.05,0,0,0.05,33.800000000000004,0)" xlink:href="#bn"/><use transform="matrix(0.05,0,0,0.05,38.800000000000004,0)" xlink:href="#bo"/></g><g id="ax"><use transform="matrix(0.05,0,0,0.05,0,0)" xlink:href="#bF"/><use transform="matrix(0.05,0,0,0.05,10.950000000000001,0)" xlink:href="#bt"/><use transform="matrix(0.05,0,0,0.05,22.950000000000003,0)" xlink:href="#bY"/></g><path d="M141 0L90-78 38 0H4l68-98-65-92h35l48 74 47-74h35l-64 92 68 98h-35" id="cc"/><g id="ay"><use transform="matrix(0.05,0,0,0.05,0,0)" xlink:href="#bO"/><use transform="matrix(0.05,0,0,0.05,12,0)" xlink:href="#bh"/><use transform="matrix(0.05,0,0,0.05,22,0)" xlink:href="#cc"/><use transform="matrix(0.05,0,0,0.05,31,0)" xlink:href="#bh"/><use transform="matrix(0.05,0,0,0.05,41,0)" xlink:href="#bV"/><use transform="matrix(0.05,0,0,0.05,45.65,0)" xlink:href="#bV"/><use transform="matrix(0.05,0,0,0.05,50.65,0)" xlink:href="#bp"/><use transform="matrix(0.05,0,0,0.05,54.6,0)" xlink:href="#bz"/><use transform="matrix(0.05,0,0,0.05,63.6,0)" xlink:href="#bx"/></g><g id="az"><use transform="matrix(0.05,0,0,0.05,0,0)" xlink:href="#bn"/><use transform="matrix(0.05,0,0,0.05,5,0)" xlink:href="#bj"/><use transform="matrix(0.05,0,0,0.05,15,0)" xlink:href="#bz"/><use transform="matrix(0.05,0,0,0.05,24,0)" xlink:href="#bh"/><use transform="matrix(0.05,0,0,0.05,34,0)" xlink:href="#bw"/><use transform="matrix(0.05,0,0,0.05,48.95,0)" xlink:href="#bx"/><use transform="matrix(0.05,0,0,0.05,58.95,0)" xlink:href="#bP"/><use transform="matrix(0.05,0,0,0.05,72.95,0)" xlink:href="#bj"/><use transform="matrix(0.05,0,0,0.05,82.95,0)" xlink:href="#bk"/></g><g id="aB"><use transform="matrix(0.05,0,0,0.05,0,0)" xlink:href="#bQ"/><use transform="matrix(0.05,0,0,0.05,10,0)" xlink:href="#bp"/><use transform="matrix(0.05,0,0,0.05,13.949999999999998,0)" xlink:href="#bL"/><use transform="matrix(0.05,0,0,0.05,23.95,0)" xlink:href="#bp"/><use transform="matrix(0.05,0,0,0.05,27.899999999999995,0)" xlink:href="#bj"/><use transform="matrix(0.05,0,0,0.05,37.9,0)" xlink:href="#bk"/></g><g id="aC"><use transform="matrix(0.05,0,0,0.05,0,0)" xlink:href="#bn"/><use transform="matrix(0.05,0,0,0.05,5,0)" xlink:href="#bj"/><use transform="matrix(0.05,0,0,0.05,15,0)" xlink:href="#bz"/><use transform="matrix(0.05,0,0,0.05,24,0)" xlink:href="#bh"/><use transform="matrix(0.05,0,0,0.05,34,0)" xlink:href="#bw"/><use transform="matrix(0.05,0,0,0.05,48.95,0)" xlink:href="#bx"/><use transform="matrix(0.05,0,0,0.05,58.95,0)" xlink:href="#bg"/><use transform="matrix(0.05,0,0,0.05,71.9,0)" xlink:href="#bi"/><use transform="matrix(0.05,0,0,0.05,81.9,0)" xlink:href="#bl"/><use transform="matrix(0.05,0,0,0.05,87.85000000000001,0)" xlink:href="#bl"/><use transform="matrix(0.05,0,0,0.05,93.80000000000001,0)" xlink:href="#bx"/><use transform="matrix(0.05,0,0,0.05,103.80000000000001,0)" xlink:href="#bj"/><use transform="matrix(0.05,0,0,0.05,113.80000000000001,0)" xlink:href="#bz"/><use transform="matrix(0.05,0,0,0.05,122.80000000000001,0)" xlink:href="#bm"/></g><g id="aD"><use transform="matrix(0.05,0,0,0.05,0,0)" xlink:href="#by"/><use transform="matrix(0.05,0,0,0.05,9,0)" xlink:href="#bv"/><use transform="matrix(0.05,0,0,0.05,19,0)" xlink:href="#bl"/><use transform="matrix(0.05,0,0,0.05,24.95,0)" xlink:href="#bz"/><use transform="matrix(0.05,0,0,0.05,33.95,0)" xlink:href="#bA"/><use transform="matrix(0.05,0,0,0.05,43.95,0)" xlink:href="#bv"/><use transform="matrix(0.05,0,0,0.05,53.95,0)" xlink:href="#bl"/><use transform="matrix(0.05,0,0,0.05,59.900000000000006,0)" xlink:href="#bB"/><use transform="matrix(0.05,0,0,0.05,65.85000000000001,0)" xlink:href="#bC"/><use transform="matrix(0.05,0,0,0.05,75.85000000000001,0)" xlink:href="#bD"/><use transform="matrix(0.05,0,0,0.05,85.85000000000001,0)" xlink:href="#bE"/></g><g id="aE"><use transform="matrix(0.05,0,0,0.05,0,0)" xlink:href="#bg"/><use transform="matrix(0.05,0,0,0.05,12.950000000000001,0)" xlink:href="#bh"/><use transform="matrix(0.05,0,0,0.05,22.950000000000003,0)" xlink:href="#bi"/><use transform="matrix(0.05,0,0,0.05,32.95,0)" xlink:href="#bj"/><use transform="matrix(0.05,0,0,0.05,42.95,0)" xlink:href="#bk"/><use transform="matrix(0.05,0,0,0.05,47.95,0)" xlink:href="#bl"/><use transform="matrix(0.05,0,0,0.05,53.900000000000006,0)" xlink:href="#bm"/><use transform="matrix(0.05,0,0,0.05,62.900000000000006,0)" xlink:href="#bn"/><use transform="matrix(0.05,0,0,0.05,67.9,0)" xlink:href="#bo"/></g><g id="aF"><use transform="matrix(0.05,0,0,0.05,0,0)" xlink:href="#bF"/><use transform="matrix(0.05,0,0,0.05,10.950000000000001,0)" xlink:href="#bt"/><use transform="matrix(0.05,0,0,0.05,22.950000000000003,0)" xlink:href="#bM"/></g><g id="aG"><use transform="matrix(0.05,0,0,0.05,0,0)" xlink:href="#bK"/><use transform="matrix(0.05,0,0,0.05,12,0)" xlink:href="#bx"/><use transform="matrix(0.05,0,0,0.05,22,0)" xlink:href="#bl"/><use transform="matrix(0.05,0,0,0.05,27.950000000000003,0)" xlink:href="#bp"/><use transform="matrix(0.05,0,0,0.05,31.899999999999995,0)" xlink:href="#bx"/><use transform="matrix(0.05,0,0,0.05,41.9,0)" xlink:href="#bI"/></g><g id="aH"><use transform="matrix(0.05,0,0,0.05,0,0)" xlink:href="#bK"/><use transform="matrix(0.05,0,0,0.05,12,0)" xlink:href="#bx"/><use transform="matrix(0.05,0,0,0.05,22,0)" xlink:href="#bv"/><use transform="matrix(0.05,0,0,0.05,32,0)" xlink:href="#bI"/><use transform="matrix(0.05,0,0,0.05,41,0)" xlink:href="#bh"/><use transform="matrix(0.05,0,0,0.05,51,0)" xlink:href="#bj"/></g><g id="aI"><use transform="matrix(0.05,0,0,0.05,0,0)" xlink:href="#bK"/><use transform="matrix(0.05,0,0,0.05,12,0)" xlink:href="#bx"/><use transform="matrix(0.05,0,0,0.05,22,0)" xlink:href="#bl"/><use transform="matrix(0.05,0,0,0.05,27.950000000000003,0)" xlink:href="#bp"/><use transform="matrix(0.05,0,0,0.05,31.899999999999995,0)" xlink:href="#bx"/><use transform="matrix(0.05,0,0,0.05,41.9,0)" xlink:href="#bI"/><use transform="matrix(0.05,0,0,0.05,50.9,0)" xlink:href="#bu"/><use transform="matrix(0.05,0,0,0.05,63.85,0)" xlink:href="#bh"/></g><g id="aJ"><use transform="matrix(0.05,0,0,0.05,0,0)" xlink:href="#bK"/><use transform="matrix(0.05,0,0,0.05,12,0)" xlink:href="#bx"/><use transform="matrix(0.05,0,0,0.05,22,0)" xlink:href="#bl"/><use transform="matrix(0.05,0,0,0.05,27.950000000000003,0)" xlink:href="#bp"/><use transform="matrix(0.05,0,0,0.05,31.899999999999995,0)" xlink:href="#bx"/><use transform="matrix(0.05,0,0,0.05,41.9,0)" xlink:href="#bI"/><use transform="matrix(0.05,0,0,0.05,50.9,0)" xlink:href="#bu"/><use transform="matrix(0.05,0,0,0.05,63.85,0)" xlink:href="#bv"/><use transform="matrix(0.05,0,0,0.05,73.85,0)" xlink:href="#bw"/><use transform="matrix(0.05,0,0,0.05,88.8,0)" xlink:href="#bx"/></g><g id="aK"><use transform="matrix(0.05,0,0,0.05,0,0)" xlink:href="#bF"/><use transform="matrix(0.05,0,0,0.05,10.950000000000001,0)" xlink:href="#bp"/><use transform="matrix(0.05,0,0,0.05,14.9,0)" xlink:href="#bG"/><use transform="matrix(0.05,0,0,0.05,18.85,0)" xlink:href="#bw"/><use transform="matrix(0.05,0,0,0.05,33.800000000000004,0)" xlink:href="#bu"/><use transform="matrix(0.05,0,0,0.05,46.75000000000001,0)" xlink:href="#bh"/><use transform="matrix(0.05,0,0,0.05,56.75,0)" xlink:href="#bw"/><use transform="matrix(0.05,0,0,0.05,71.7,0)" xlink:href="#bp"/><use transform="matrix(0.05,0,0,0.05,75.65,0)" xlink:href="#bj"/><use transform="matrix(0.05,0,0,0.05,85.65,0)" xlink:href="#bv"/><use transform="matrix(0.05,0,0,0.05,95.65,0)" xlink:href="#bk"/><use transform="matrix(0.05,0,0,0.05,100.65,0)" xlink:href="#bp"/><use transform="matrix(0.05,0,0,0.05,104.60000000000001,0)" xlink:href="#bh"/><use transform="matrix(0.05,0,0,0.05,114.60000000000001,0)" xlink:href="#bj"/></g><g id="aL"><use transform="matrix(0.05,0,0,0.05,0,0)" xlink:href="#bF"/><use transform="matrix(0.05,0,0,0.05,10.950000000000001,0)" xlink:href="#bu"/><use transform="matrix(0.05,0,0,0.05,23.900000000000002,0)" xlink:href="#bh"/><use transform="matrix(0.05,0,0,0.05,33.900000000000006,0)" xlink:href="#bw"/><use transform="matrix(0.05,0,0,0.05,48.85000000000001,0)" xlink:href="#bp"/><use transform="matrix(0.05,0,0,0.05,52.80000000000001,0)" xlink:href="#bj"/><use transform="matrix(0.05,0,0,0.05,62.80000000000001,0)" xlink:href="#bv"/><use transform="matrix(0.05,0,0,0.05,72.80000000000001,0)" xlink:href="#bk"/><use transform="matrix(0.05,0,0,0.05,77.80000000000001,0)" xlink:href="#bp"/><use transform="matrix(0.05,0,0,0.05,81.75000000000001,0)" xlink:href="#bh"/><use transform="matrix(0.05,0,0,0.05,91.75000000000001,0)" xlink:href="#bj"/><use transform="matrix(0.05,0,0,0.05,101.75000000000001,0)" xlink:href="#bn"/><use transform="matrix(0.05,0,0,0.05,106.75,0)" xlink:href="#bo"/></g><g id="aM"><use transform="matrix(0.05,0,0,0.05,0,0)" xlink:href="#bF"/><use transform="matrix(0.05,0,0,0.05,10.950000000000001,0)" xlink:href="#bu"/><use transform="matrix(0.05,0,0,0.05,23.900000000000002,0)" xlink:href="#bh"/><use transform="matrix(0.05,0,0,0.05,33.900000000000006,0)" xlink:href="#bw"/><use transform="matrix(0.05,0,0,0.05,48.85000000000001,0)" xlink:href="#bp"/><use transform="matrix(0.05,0,0,0.05,52.80000000000001,0)" xlink:href="#bj"/><use transform="matrix(0.05,0,0,0.05,62.80000000000001,0)" xlink:href="#bv"/><use transform="matrix(0.05,0,0,0.05,72.80000000000001,0)" xlink:href="#bk"/><use transform="matrix(0.05,0,0,0.05,77.80000000000001,0)" xlink:href="#bp"/><use transform="matrix(0.05,0,0,0.05,81.75000000000001,0)" xlink:href="#bh"/><use transform="matrix(0.05,0,0,0.05,91.75000000000001,0)" xlink:href="#bj"/><use transform="matrix(0.05,0,0,0.05,101.75000000000001,0)" xlink:href="#bu"/><use transform="matrix(0.05,0,0,0.05,114.7,0)" xlink:href="#bv"/><use transform="matrix(0.05,0,0,0.05,124.7,0)" xlink:href="#bw"/><use transform="matrix(0.05,0,0,0.05,139.65,0)" xlink:href="#bx"/></g><g id="aN"><use transform="matrix(0.05,0,0,0.05,0,0)" xlink:href="#bs"/><use transform="matrix(0.05,0,0,0.05,12,0)" xlink:href="#bx"/><use transform="matrix(0.05,0,0,0.05,22,0)" xlink:href="#bl"/><use transform="matrix(0.05,0,0,0.05,27.950000000000003,0)" xlink:href="#bI"/><use transform="matrix(0.05,0,0,0.05,36.95,0)" xlink:href="#bh"/><use transform="matrix(0.05,0,0,0.05,46.95,0)" xlink:href="#bj"/><use transform="matrix(0.05,0,0,0.05,56.95,0)" xlink:href="#bZ"/><use transform="matrix(0.05,0,0,0.05,68.6,0)" xlink:href="#ca"/><use transform="matrix(0.05,0,0,0.05,81.55,0)" xlink:href="#bv"/><use transform="matrix(0.05,0,0,0.05,91.55,0)" xlink:href="#bl"/><use transform="matrix(0.05,0,0,0.05,97.5,0)" xlink:href="#bo"/></g><g id="aO"><use transform="matrix(0.05,0,0,0.05,0,0)" xlink:href="#bs"/><use transform="matrix(0.05,0,0,0.05,12,0)" xlink:href="#bu"/><use transform="matrix(0.05,0,0,0.05,24.950000000000003,0)" xlink:href="#bh"/><use transform="matrix(0.05,0,0,0.05,34.95,0)" xlink:href="#bw"/><use transform="matrix(0.05,0,0,0.05,49.900000000000006,0)" xlink:href="#bp"/><use transform="matrix(0.05,0,0,0.05,53.85,0)" xlink:href="#bj"/><use transform="matrix(0.05,0,0,0.05,63.85,0)" xlink:href="#bv"/><use transform="matrix(0.05,0,0,0.05,73.85000000000001,0)" xlink:href="#bk"/><use transform="matrix(0.05,0,0,0.05,78.85000000000001,0)" xlink:href="#bp"/><use transform="matrix(0.05,0,0,0.05,82.80000000000001,0)" xlink:href="#bh"/><use transform="matrix(0.05,0,0,0.05,92.80000000000001,0)" xlink:href="#bj"/><use transform="matrix(0.05,0,0,0.05,102.80000000000001,0)" xlink:href="#bn"/><use transform="matrix(0.05,0,0,0.05,107.80000000000001,0)" xlink:href="#bo"/></g><g id="aP"><use transform="matrix(0.05,0,0,0.05,0,0)" xlink:href="#bs"/><use transform="matrix(0.05,0,0,0.05,12,0)" xlink:href="#bx"/><use transform="matrix(0.05,0,0,0.05,22,0)" xlink:href="#bl"/><use transform="matrix(0.05,0,0,0.05,27.950000000000003,0)" xlink:href="#bI"/><use transform="matrix(0.05,0,0,0.05,36.95,0)" xlink:href="#bh"/><use transform="matrix(0.05,0,0,0.05,46.95,0)" xlink:href="#bj"/><use transform="matrix(0.05,0,0,0.05,56.95,0)" xlink:href="#bn"/><use transform="matrix(0.05,0,0,0.05,61.95,0)" xlink:href="#bo"/></g><g id="aQ"><use transform="matrix(0.05,0,0,0.05,0,0)" xlink:href="#bF"/><use transform="matrix(0.05,0,0,0.05,10.950000000000001,0)" xlink:href="#bt"/><use transform="matrix(0.05,0,0,0.05,22.950000000000003,0)" xlink:href="#bC"/></g><g id="aR"><use transform="matrix(0.05,0,0,0.05,0,0)" xlink:href="#bF"/><use transform="matrix(0.05,0,0,0.05,10.950000000000001,0)" xlink:href="#bt"/><use transform="matrix(0.05,0,0,0.05,22.950000000000003,0)" xlink:href="#bY"/></g><g id="aS"><use transform="matrix(0.05,0,0,0.05,0,0)" xlink:href="#bF"/><use transform="matrix(0.05,0,0,0.05,10.950000000000001,0)" xlink:href="#bp"/><use transform="matrix(0.05,0,0,0.05,14.9,0)" xlink:href="#bG"/><use transform="matrix(0.05,0,0,0.05,18.85,0)" xlink:href="#bw"/><use transform="matrix(0.05,0,0,0.05,33.800000000000004,0)" xlink:href="#bg"/><use transform="matrix(0.05,0,0,0.05,46.75000000000001,0)" xlink:href="#bh"/><use transform="matrix(0.05,0,0,0.05,56.75,0)" xlink:href="#bi"/><use transform="matrix(0.05,0,0,0.05,66.75,0)" xlink:href="#bj"/><use transform="matrix(0.05,0,0,0.05,76.75,0)" xlink:href="#bk"/><use transform="matrix(0.05,0,0,0.05,81.75,0)" xlink:href="#bl"/><use transform="matrix(0.05,0,0,0.05,87.7,0)" xlink:href="#bm"/></g><g id="aT"><use transform="matrix(0.05,0,0,0.05,0,0)" xlink:href="#bF"/><use transform="matrix(0.05,0,0,0.05,10.950000000000001,0)" xlink:href="#bp"/><use transform="matrix(0.05,0,0,0.05,14.9,0)" xlink:href="#bG"/><use transform="matrix(0.05,0,0,0.05,18.85,0)" xlink:href="#bw"/><use transform="matrix(0.05,0,0,0.05,33.800000000000004,0)" xlink:href="#bn"/><use transform="matrix(0.05,0,0,0.05,38.800000000000004,0)" xlink:href="#bo"/></g><g id="aU"><use transform="matrix(0.05,0,0,0.05,0,0)" xlink:href="#bp"/><use transform="matrix(0.05,0,0,0.05,3.95,0)" xlink:href="#bj"/><use transform="matrix(0.05,0,0,0.05,13.949999999999998,0)" xlink:href="#bk"/></g><g id="aV"><use transform="matrix(0.05,0,0,0.05,0,0)" xlink:href="#bq"/><use transform="matrix(0.05,0,0,0.05,14.950000000000001,0)" xlink:href="#br"/></g><g id="aW"><use transform="matrix(0.05,0,0,0.05,0,0)" xlink:href="#bs"/><use transform="matrix(0.05,0,0,0.05,12,0)" xlink:href="#bt"/><use transform="matrix(0.05,0,0,0.05,24,0)" xlink:href="#br"/></g><g id="aX"><use transform="matrix(0.05,0,0,0.05,0,0)" xlink:href="#bF"/><use transform="matrix(0.05,0,0,0.05,10.950000000000001,0)" xlink:href="#bt"/><use transform="matrix(0.05,0,0,0.05,22.950000000000003,0)" xlink:href="#bC"/></g><g id="aY"><use transform="matrix(0.05,0,0,0.05,0,0)" xlink:href="#bg"/><use transform="matrix(0.05,0,0,0.05,12.950000000000001,0)" xlink:href="#bh"/><use transform="matrix(0.05,0,0,0.05,22.950000000000003,0)" xlink:href="#bi"/><use transform="matrix(0.05,0,0,0.05,32.95,0)" xlink:href="#bj"/><use transform="matrix(0.05,0,0,0.05,42.95,0)" xlink:href="#bk"/><use transform="matrix(0.05,0,0,0.05,47.95,0)" xlink:href="#bl"/><use transform="matrix(0.05,0,0,0.05,53.900000000000006,0)" xlink:href="#bm"/><use transform="matrix(0.05,0,0,0.05,62.900000000000006,0)" xlink:href="#bn"/><use transform="matrix(0.05,0,0,0.05,67.9,0)" xlink:href="#bo"/></g><g id="aZ"><use transform="matrix(0.05,0,0,0.05,0,0)" xlink:href="#bF"/><use transform="matrix(0.05,0,0,0.05,10.950000000000001,0)" xlink:href="#bt"/><use transform="matrix(0.05,0,0,0.05,22.950000000000003,0)" xlink:href="#bM"/></g><g id="ba"><use transform="matrix(0.05,0,0,0.05,0,0)" xlink:href="#bF"/><use transform="matrix(0.05,0,0,0.05,10.950000000000001,0)" xlink:href="#bp"/><use transform="matrix(0.05,0,0,0.05,14.9,0)" xlink:href="#bG"/><use transform="matrix(0.05,0,0,0.05,18.85,0)" xlink:href="#bw"/><use transform="matrix(0.05,0,0,0.05,33.800000000000004,0)" xlink:href="#bT"/><use transform="matrix(0.05,0,0,0.05,47.800000000000004,0)" xlink:href="#bx"/><use transform="matrix(0.05,0,0,0.05,57.800000000000004,0)" xlink:href="#bj"/><use transform="matrix(0.05,0,0,0.05,67.80000000000001,0)" xlink:href="#bl"/><use transform="matrix(0.05,0,0,0.05,73.75000000000001,0)" xlink:href="#bx"/></g><g id="bb"><use transform="matrix(0.05,0,0,0.05,0,0)" xlink:href="#bp"/><use transform="matrix(0.05,0,0,0.05,3.95,0)" xlink:href="#bj"/><use transform="matrix(0.05,0,0,0.05,13.949999999999998,0)" xlink:href="#bk"/></g><g id="bc"><use transform="matrix(0.05,0,0,0.05,0,0)" xlink:href="#bT"/><use transform="matrix(0.05,0,0,0.05,14,0)" xlink:href="#bx"/><use transform="matrix(0.05,0,0,0.05,24,0)" xlink:href="#bj"/><use transform="matrix(0.05,0,0,0.05,34,0)" xlink:href="#bl"/><use transform="matrix(0.05,0,0,0.05,39.95,0)" xlink:href="#bx"/><use transform="matrix(0.05,0,0,0.05,49.95,0)" xlink:href="#bn"/><use transform="matrix(0.05,0,0,0.05,54.95,0)" xlink:href="#bo"/></g><g id="bd"><use transform="matrix(0.05,0,0,0.05,0,0)" xlink:href="#bF"/><use transform="matrix(0.05,0,0,0.05,10.950000000000001,0)" xlink:href="#bt"/><use transform="matrix(0.05,0,0,0.05,22.950000000000003,0)" xlink:href="#bY"/></g><g id="be"><use transform="matrix(0.05,0,0,0.05,0,0)" xlink:href="#bF"/><use transform="matrix(0.05,0,0,0.05,10.950000000000001,0)" xlink:href="#bt"/><use transform="matrix(0.05,0,0,0.05,22.950000000000003,0)" xlink:href="#bC"/></g><g id="bf"><use transform="matrix(0.05,0,0,0.05,0,0)" xlink:href="#bF"/><use transform="matrix(0.05,0,0,0.05,10.950000000000001,0)" xlink:href="#bt"/><use transform="matrix(0.05,0,0,0.05,22.950000000000003,0)" xlink:href="#bM"/></g></defs></g></svg>