<svg xmlns="http://www.w3.org/2000/svg" xmlns:xlink="http://www.w3.org/1999/xlink" xmlns:lucid="lucid" width="1760" height="1360"><g transform="translate(0 0)" lucid:page-tab-id="0_0"><path d="M0 0h1760v1360H0z" fill="#fff"/><path d="M504.72 120h300v104h-300z" fill="#fff"/><path d="M504.72 120h300v40h-300z" fill="#ccc"/><path d="M504.72 120h300v104h-300zM504.72 160h300M639.47 160v64M721.35 160v64" stroke="#000" stroke-width="2" fill="none"/><use xlink:href="#a" transform="matrix(1,0,0,1,514.7249761158317,120) translate(108.55 23.6)"/><use xlink:href="#b" transform="matrix(1,0,0,1,509.72497611583174,162.5) translate(23.549999999999997 17.1)"/><use xlink:href="#c" transform="matrix(1,0,0,1,644.4736198771337,162.5) translate(0 17.1)"/><use xlink:href="#d" transform="matrix(1,0,0,1,726.3544766605088,162.5) translate(0 17.1)"/><use xlink:href="#e" transform="matrix(1,0,0,1,726.3544766605088,162.5) translate(24.950000000000003 17.1)"/><use xlink:href="#f" transform="matrix(1,0,0,1,509.72497611583174,194.5) translate(7.099999999999994 17.1)"/><use xlink:href="#g" transform="matrix(1,0,0,1,644.4736198771337,194.5) translate(0 17.1)"/><use xlink:href="#h" transform="matrix(1,0,0,1,726.3544766605088,194.5) translate(0 17.1)"/><path d="M144.72 480h280v317h-280z" fill="#fff"/><path d="M144.72 480h280v40h-280z" fill="#ccc"/><path d="M144.72 480h280v317h-280zM144.72 520h280M276.6 520v277M373.08 520v277" stroke="#000" stroke-width="2" fill="none"/><use xlink:href="#i" transform="matrix(1,0,0,1,154.72497611583174,480) translate(113.1 23.6)"/><use xlink:href="#j" transform="matrix(1,0,0,1,149.72497611583174,522.5) translate(36.599999999999994 27.6)"/><use xlink:href="#c" transform="matrix(1,0,0,1,281.597794070944,522.5) translate(0 27.6)"/><use xlink:href="#k" transform="matrix(1,0,0,1,378.07578985905053,522.5) translate(0 16.799999999999997)"/><use xlink:href="#e" transform="matrix(1,0,0,1,378.07578985905053,522.5) translate(0 38.4)"/><use xlink:href="#l" transform="matrix(1,0,0,1,149.72497611583174,575.5) translate(20.15 17.1)"/><use xlink:href="#g" transform="matrix(1,0,0,1,281.597794070944,575.5) translate(0 17.1)"/><use xlink:href="#h" transform="matrix(1,0,0,1,378.07578985905053,575.5) translate(0 17.1)"/><use xlink:href="#m" transform="matrix(1,0,0,1,149.72497611583174,607.5) translate(9.074999999999996 17.1)"/><use xlink:href="#n" transform="matrix(1,0,0,1,281.597794070944,607.5) translate(0 17.1)"/><use xlink:href="#h" transform="matrix(1,0,0,1,378.07578985905053,607.5) translate(0 17.1)"/><use xlink:href="#o" transform="matrix(1,0,0,1,149.72497611583174,639.5) translate(33.025 17.1)"/><use xlink:href="#p" transform="matrix(1,0,0,1,281.597794070944,639.5) translate(0 17.1)"/><use xlink:href="#q" transform="matrix(1,0,0,1,378.07578985905053,639.5) translate(0 17.1)"/><use xlink:href="#r" transform="matrix(1,0,0,1,149.72497611583174,671.5) translate(32.5 17.1)"/><use xlink:href="#s" transform="matrix(1,0,0,1,281.597794070944,671.5) translate(0 17.1)"/><use xlink:href="#q" transform="matrix(1,0,0,1,378.07578985905053,671.5) translate(0 17.1)"/><use xlink:href="#t" transform="matrix(1,0,0,1,149.72497611583174,703.5) translate(27.074999999999996 17.1)"/><use xlink:href="#u" transform="matrix(1,0,0,1,281.597794070944,703.5) translate(0 17.1)"/><use xlink:href="#h" transform="matrix(1,0,0,1,378.07578985905053,703.5) translate(0 17.1)"/><use xlink:href="#v" transform="matrix(1,0,0,1,149.72497611583174,735.5) translate(16.099999999999994 17.1)"/><use xlink:href="#w" transform="matrix(1,0,0,1,281.597794070944,735.5) translate(0 17.1)"/><use xlink:href="#q" transform="matrix(1,0,0,1,378.07578985905053,735.5) translate(0 17.1)"/><use xlink:href="#x" transform="matrix(1,0,0,1,149.72497611583174,767.5) translate(24.625 17.1)"/><use xlink:href="#y" transform="matrix(1,0,0,1,281.597794070944,767.5) translate(0 17.1)"/><use xlink:href="#h" transform="matrix(1,0,0,1,378.07578985905053,767.5) translate(0 17.1)"/><path d="M452.35 887h260v104h-260z" fill="#fff"/><path d="M452.35 887h260v104h-260zM452.35 927h260M575.77 927v64M637 927v64" stroke="#000" stroke-width="2" fill="none"/><use xlink:href="#z" transform="matrix(1,0,0,1,462.34521267244145,887) translate(96.525 23.6)"/><use xlink:href="#A" transform="matrix(1,0,0,1,457.34521267244145,929.5) translate(30.549999999999997 17.1)"/><use xlink:href="#c" transform="matrix(1,0,0,1,580.7691528220673,929.5) translate(0 17.1)"/><use xlink:href="#d" transform="matrix(1,0,0,1,641.9985792559826,929.5) translate(0 17.1)"/><use xlink:href="#e" transform="matrix(1,0,0,1,641.9985792559826,929.5) translate(24.950000000000003 17.1)"/><use xlink:href="#B" transform="matrix(1,0,0,1,457.34521267244145,961.5) translate(33.525 17.1)"/><use xlink:href="#C" transform="matrix(1,0,0,1,580.7691528220673,961.5) translate(0 17.1)"/><use xlink:href="#h" transform="matrix(1,0,0,1,641.9985792559826,961.5) translate(0 17.1)"/><path d="M124.72 140h280v200h-280z" fill="#fff"/><path d="M124.72 140h280v40h-280z" fill="#ccc"/><path d="M124.72 140h280v200h-280zM124.72 180h280M245.3 180v160M317.03 180v160" stroke="#000" stroke-width="2" fill="none"/><use xlink:href="#D" transform="matrix(1,0,0,1,134.72497611583174,140) translate(101.525 23.6)"/><use xlink:href="#E" transform="matrix(1,0,0,1,129.72497611583174,182.5) translate(19.525 17.1)"/><use xlink:href="#c" transform="matrix(1,0,0,1,250.30103596620586,182.5) translate(0 17.1)"/><use xlink:href="#d" transform="matrix(1,0,0,1,322.0298647888586,182.5) translate(0 17.1)"/><use xlink:href="#e" transform="matrix(1,0,0,1,322.0298647888586,182.5) translate(24.950000000000003 17.1)"/><use xlink:href="#F" transform="matrix(1,0,0,1,129.72497611583174,214.5) translate(14.125 17.1)"/><use xlink:href="#g" transform="matrix(1,0,0,1,250.30103596620586,214.5) translate(0 17.1)"/><use xlink:href="#h" transform="matrix(1,0,0,1,322.0298647888586,214.5) translate(0 17.1)"/><use xlink:href="#G" transform="matrix(1,0,0,1,129.72497611583174,246.5) translate(22.549999999999997 17.1)"/><use xlink:href="#n" transform="matrix(1,0,0,1,250.30103596620586,246.5) translate(0 17.1)"/><use xlink:href="#h" transform="matrix(1,0,0,1,322.0298647888586,246.5) translate(0 17.1)"/><use xlink:href="#H" transform="matrix(1,0,0,1,129.72497611583174,278.5) translate(14.549999999999997 17.1)"/><use xlink:href="#g" transform="matrix(1,0,0,1,250.30103596620586,278.5) translate(0 17.1)"/><use xlink:href="#q" transform="matrix(1,0,0,1,322.0298647888586,278.5) translate(0 17.1)"/><use xlink:href="#I" transform="matrix(1,0,0,1,129.72497611583174,310.5) translate(10.574999999999996 17.1)"/><use xlink:href="#g" transform="matrix(1,0,0,1,250.30103596620586,310.5) translate(0 17.1)"/><use xlink:href="#q" transform="matrix(1,0,0,1,322.0298647888586,310.5) translate(0 17.1)"/><path d="M719.97 422.54h247.65v72H719.97z" fill="#fff"/><path d="M719.97 422.54h247.65v72H719.97zM719.97 462.54h247.65M823.12 462.54v32M886 462.54v32" stroke="#000" stroke-width="2" fill="none"/><use xlink:href="#J" transform="matrix(1,0,0,1,729.9654492290513,422.5356353793503) translate(72.15 23.6)"/><use xlink:href="#K" transform="matrix(1,0,0,1,724.9654492290513,465.0356353793503) translate(7.574999999999996 17.1)"/><use xlink:href="#g" transform="matrix(1,0,0,1,828.1237294360685,465.0356353793503) translate(0 17.1)"/><use xlink:href="#q" transform="matrix(1,0,0,1,891,465.0356353793503) translate(0 17.1)"/><path d="M844.72 120h340v104h-340z" fill="#fff"/><path d="M844.72 120h340v40h-340z" fill="#ccc"/><path d="M844.72 120h340v104h-340zM844.72 160h340M995.97 160v64M1101.35 160v64" stroke="#000" stroke-width="2" fill="none"/><use xlink:href="#L" transform="matrix(1,0,0,1,854.7249761158317,120) translate(117.55 23.6)"/><use xlink:href="#M" transform="matrix(1,0,0,1,849.7249761158317,162.5) translate(21.049999999999997 17.1)"/><use xlink:href="#c" transform="matrix(1,0,0,1,1000.9727157180017,162.5) translate(0 17.1)"/><use xlink:href="#d" transform="matrix(1,0,0,1,1106.3544766605087,162.5) translate(0 17.1)"/><use xlink:href="#e" transform="matrix(1,0,0,1,1106.3544766605087,162.5) translate(24.950000000000003 17.1)"/><use xlink:href="#N" transform="matrix(1,0,0,1,849.7249761158317,194.5) translate(4.599999999999994 17.1)"/><use xlink:href="#g" transform="matrix(1,0,0,1,1000.9727157180017,194.5) translate(0 17.1)"/><use xlink:href="#h" transform="matrix(1,0,0,1,1106.3544766605087,194.5) translate(0 17.1)"/><path d="M406.72 196h48v-20.43h48" stroke="#000" stroke-width="2" fill="none"/><path d="M406.75 197h-1.03v-2h1.03zM503.72 176.57h-1.02v-2h1.02z"/><path d="M484.9 208.24h-20.18V546.5h-20.17" stroke="#000" stroke-width="2" fill="none"/><path d="M503.28 218.24l-20-10 20-10M503.28 208.24h-20M426.17 536.5l20 10-20 10M426.17 546.5h20" stroke="#000" stroke-width="2" fill="#fff"/><path d="M144.72 880h260v104h-260z" fill="#fff"/><path d="M144.72 880h260v40h-260z" fill="#ccc"/><path d="M144.72 880h260v104h-260zM144.72 920h260M268.15 920v64M329.38 920v64" stroke="#000" stroke-width="2" fill="none"/><use xlink:href="#O" transform="matrix(1,0,0,1,154.72497611583174,880) translate(95.025 23.6)"/><use xlink:href="#P" transform="matrix(1,0,0,1,149.72497611583174,922.5) translate(24.525 17.1)"/><use xlink:href="#c" transform="matrix(1,0,0,1,273.1489162654576,922.5) translate(0 17.1)"/><use xlink:href="#d" transform="matrix(1,0,0,1,334.37834269937287,922.5) translate(0 17.1)"/><use xlink:href="#e" transform="matrix(1,0,0,1,334.37834269937287,922.5) translate(24.950000000000003 17.1)"/><use xlink:href="#Q" transform="matrix(1,0,0,1,149.72497611583174,954.5) translate(8.074999999999996 17.1)"/><use xlink:href="#g" transform="matrix(1,0,0,1,273.1489162654576,954.5) translate(0 17.1)"/><use xlink:href="#h" transform="matrix(1,0,0,1,334.37834269937287,954.5) translate(0 17.1)"/><path d="M274.72 859v-42.18" stroke="#000" stroke-width="2" fill="none"/><path d="M264.72 878.55l10-20 10 20M274.72 878.55v-20M284.72 858.55h-20M284.73 798.45l-10 20-10-20M274.73 798.45v20" stroke="#000" stroke-width="2" fill="#fff"/><path d="M841.8 405.07V294H425.7" stroke="#000" stroke-width="2" fill="none"/><path d="M845.8 405.07V292l-.6-1.4-1.4-.6H425.7" stroke="#000" stroke-width="2" fill="none"/><path d="M833.8 421.1l10-20 10 20M843.8 421.1v-20M425.72 302v-20M405.72 292h20" stroke="#000" stroke-width="2" fill="#fff"/><path d="M845.8 512v141l-.6 1.4-1.4.6H445.7" stroke="#000" stroke-width="2" fill="none"/><path d="M841.8 512v139H445.7" stroke="#000" stroke-width="2" fill="none"/><path d="M853.8 495.98l-10 20-10-20M843.8 495.98v20M445.72 663v-20M425.72 653h20" stroke="#000" stroke-width="2" fill="#fff"/><path d="M444.72 880h275.25v118H444.72z" stroke="#000" stroke-width="2" fill-opacity="0"/><path d="M450.62 885.9h263.45v106.2H450.62z" stroke="#000" stroke-width="2" fill-opacity="0"/><path d="M450.62 885.9h263.45v106.2H450.62z" fill="none"/><path d="M580.35 862.53V852H358.57l-1.42-.6-.58-1.4v-32" stroke="#000" stroke-width="2" fill="none"/><path d="M584.35 862.53V850l-.6-1.4-1.4-.6H360.57v-30" stroke="#000" stroke-width="2" fill="none"/><path d="M572.35 878.55l10-20 10 20M582.35 878.55v-20M348.57 818h20M358.57 798v20" stroke="#000" stroke-width="2" fill="#fff"/><path d="M1260 120h260v136h-260z" fill="#fff"/><path d="M1260 120h260v40h-260z" fill="#ccc"/><path d="M1260 120h260v136h-260zM1260 160h260M1383.42 160v96M1444.65 160v96" stroke="#000" stroke-width="2" fill="none"/><use xlink:href="#R" transform="matrix(1,0,0,1,1270,120) translate(67.775 23.6)"/><use xlink:href="#S" transform="matrix(1,0,0,1,1265,162.5) translate(24.224999999999994 17.1)"/><use xlink:href="#c" transform="matrix(1,0,0,1,1388.4239401496259,162.5) translate(0 17.1)"/><use xlink:href="#d" transform="matrix(1,0,0,1,1449.6533665835411,162.5) translate(0 17.1)"/><use xlink:href="#e" transform="matrix(1,0,0,1,1449.6533665835411,162.5) translate(24.950000000000003 17.1)"/><use xlink:href="#T" transform="matrix(1,0,0,1,1265,194.5) translate(7.774999999999999 17.1)"/><use xlink:href="#g" transform="matrix(1,0,0,1,1388.4239401496259,194.5) translate(0 17.1)"/><use xlink:href="#h" transform="matrix(1,0,0,1,1449.6533665835411,194.5) translate(0 17.1)"/><use xlink:href="#U" transform="matrix(1,0,0,1,1265,226.5) translate(12.75 17.1)"/><use xlink:href="#V" transform="matrix(1,0,0,1,1388.4239401496259,226.5) translate(0 17.1)"/><use xlink:href="#W" transform="matrix(1,0,0,1,1449.6533665835411,226.5) translate(0 17.1)"/><path d="M1080 540h300v104h-300z" fill="#fff"/><path d="M1080 540h300v40h-300z" fill="#ccc"/><path d="M1080 540h300v104h-300zM1080 580h300M1242.97 580v64M1304.65 580v64" stroke="#000" stroke-width="2" fill="none"/><use xlink:href="#X" transform="matrix(1,0,0,1,1089.9999999999998,540) translate(66.125 23.6)"/><use xlink:href="#Y" transform="matrix(1,0,0,1,1084.9999999999998,582.5) translate(17.599999999999994 17.1)"/><use xlink:href="#c" transform="matrix(1,0,0,1,1247.9656419529833,582.5) translate(0 17.1)"/><use xlink:href="#d" transform="matrix(1,0,0,1,1309.653366583541,582.5) translate(0 17.1)"/><use xlink:href="#e" transform="matrix(1,0,0,1,1309.653366583541,582.5) translate(24.950000000000003 17.1)"/><use xlink:href="#Z" transform="matrix(1,0,0,1,1084.9999999999998,614.5) translate(1.1499999999999915 17.1)"/><use xlink:href="#g" transform="matrix(1,0,0,1,1247.9656419529833,614.5) translate(0 17.1)"/><use xlink:href="#h" transform="matrix(1,0,0,1,1309.653366583541,614.5) translate(0 17.1)"/><path d="M1440 330c0-16.57 13.43-30 30-30h200c16.57 0 30 13.43 30 30v12c0 16.57-13.43 30-30 30h-200c-16.57 0-30-13.43-30-30z" fill="#fff"/><path d="M1440 330c0-16.57 13.43-30 30-30h200c16.57 0 30 13.43 30 30v12c0 16.57-13.43 30-30 30h-200c-16.57 0-30-13.43-30-30zM1440 340h260M1543.16 340v32M1600 340v32" stroke="#000" stroke-width="2" fill="none"/><use xlink:href="#aa" transform="matrix(1,0,0,1,1450,300) translate(77.82499999999999 23.6)"/><use xlink:href="#ab" transform="matrix(1,0,0,1,1445,342.5) translate(31.55 17.1)"/><use xlink:href="#ac" transform="matrix(1,0,0,1,1548.1582802070172,342.5) translate(0 17.1)"/><use xlink:href="#h" transform="matrix(1,0,0,1,1605,342.5) translate(0 17.1)"/><path d="M1204.72 885.8c0-16.57 13.44-30 30-30h200c16.57 0 30 13.43 30 30v12c0 16.57-13.43 30-30 30h-200c-16.56 0-30-13.43-30-30z" fill="#fff"/><path d="M1204.72 885.8c0-16.57 13.44-30 30-30h200c16.57 0 30 13.43 30 30v12c0 16.57-13.43 30-30 30h-200c-16.56 0-30-13.43-30-30zM1204.72 895.8h260M1328.15 895.8v32M1389.38 895.8v32" stroke="#000" stroke-width="2" fill="none"/><use xlink:href="#ad" transform="matrix(1,0,0,1,1214.7249761158319,855.7966253859341) translate(83.2 23.6)"/><use xlink:href="#ae" transform="matrix(1,0,0,1,1209.7249761158319,898.2966253859341) translate(27.525 17.1)"/><use xlink:href="#s" transform="matrix(1,0,0,1,1333.1489162654577,898.2966253859341) translate(0 17.1)"/><use xlink:href="#h" transform="matrix(1,0,0,1,1394.378342699373,898.2966253859341) translate(0 17.1)"/><path d="M1334.72 929.8V1070h-1240V99h560v1.18" stroke="#000" stroke-width="2" fill="none"/><path d="M1335.72 929.82h-2v-1.02h2z"/><path d="M644.72 118.55l10-20 10 20M654.72 118.55v-20" stroke="#000" stroke-width="2" fill="#fff"/><path d="M1334.72 853.8V749H444.55" stroke="#000" stroke-width="2" fill="none"/><path d="M1335.72 854.8h-2v-1.03h2z"/><path d="M426.17 739l20 10-20 10M426.17 749h20" stroke="#000" stroke-width="2" fill="#fff"/><path d="M800 860h280v180H800z" stroke="#000" stroke-width="2" fill-opacity="0"/><path d="M809 869h262v162H809z" stroke="#000" stroke-width="2" fill-opacity="0"/><path d="M809 869h262v162H809z" fill="none"/><path d="M810 866h260v168H810z" fill="#fff"/><path d="M810 866h260v168H810zM810 906h260M933.42 906v128M994.65 906v128" stroke="#000" stroke-width="2" fill="none"/><use xlink:href="#af" transform="matrix(1,0,0,1,819.9999999999998,866) translate(94.55 23.6)"/><use xlink:href="#ag" transform="matrix(1,0,0,1,814.9999999999998,908.5) translate(26.5 17.1)"/><use xlink:href="#y" transform="matrix(1,0,0,1,938.4239401496257,908.5) translate(0 17.1)"/><use xlink:href="#d" transform="matrix(1,0,0,1,999.6533665835409,908.5) translate(0 17.1)"/><use xlink:href="#e" transform="matrix(1,0,0,1,999.6533665835409,908.5) translate(24.950000000000003 17.1)"/><use xlink:href="#ah" transform="matrix(1,0,0,1,814.9999999999998,940.5) translate(20.075000000000003 17.1)"/><use xlink:href="#ai" transform="matrix(1,0,0,1,938.4239401496257,940.5) translate(0 17.1)"/><use xlink:href="#d" transform="matrix(1,0,0,1,999.6533665835409,940.5) translate(0 17.1)"/><use xlink:href="#e" transform="matrix(1,0,0,1,999.6533665835409,940.5) translate(24.950000000000003 17.1)"/><use xlink:href="#m" transform="matrix(1,0,0,1,814.9999999999998,972.5) translate(5.074999999999996 17.1)"/><use xlink:href="#n" transform="matrix(1,0,0,1,938.4239401496257,972.5) translate(0 17.1)"/><use xlink:href="#h" transform="matrix(1,0,0,1,999.6533665835409,972.5) translate(0 17.1)"/><use xlink:href="#aj" transform="matrix(1,0,0,1,814.9999999999998,1004.5) translate(7.600000000000001 17.1)"/><use xlink:href="#ak" transform="matrix(1,0,0,1,938.4239401496257,1004.5) translate(0 17.1)"/><use xlink:href="#W" transform="matrix(1,0,0,1,999.6533665835409,1004.5) translate(0 17.1)"/><path d="M938 842.53V832H390.55l-1.4-.6-.6-1.4v-12" stroke="#000" stroke-width="2" fill="none"/><path d="M942 842.53V830l-.6-1.4-1.4-.6H392.55v-10" stroke="#000" stroke-width="2" fill="none"/><path d="M930 858.55l10-20 10 20M940 858.55v-20M380.55 818h20M390.55 798v20" stroke="#000" stroke-width="2" fill="#fff"/><path d="M985.1 440.54h32.17V245" stroke="#000" stroke-width="2" fill="none"/><path d="M985.1 444.54h34.17l1.42-.6.57-1.4V245" stroke="#000" stroke-width="2" fill="none"/><path d="M969.07 432.54l20 10-20 10M969.07 442.54h20M1009.27 245h20M1019.27 225v20" stroke="#000" stroke-width="2" fill="#fff"/><path d="M1420 540h300v104h-300z" fill="#fff"/><path d="M1420 540h300v40h-300z" fill="#ccc"/><path d="M1420 540h300v104h-300zM1420 580h300M1582.97 580v64M1644.65 580v64" stroke="#000" stroke-width="2" fill="none"/><use xlink:href="#al" transform="matrix(1,0,0,1,1430,540) translate(77.69999999999999 23.6)"/><use xlink:href="#am" transform="matrix(1,0,0,1,1425,582.5) translate(18.124999999999993 17.1)"/><use xlink:href="#c" transform="matrix(1,0,0,1,1587.9656419529836,582.5) translate(0 17.1)"/><use xlink:href="#d" transform="matrix(1,0,0,1,1649.6533665835411,582.5) translate(0 17.1)"/><use xlink:href="#e" transform="matrix(1,0,0,1,1649.6533665835411,582.5) translate(24.950000000000003 17.1)"/><use xlink:href="#an" transform="matrix(1,0,0,1,1425,614.5) translate(1.6749999999999972 17.1)"/><use xlink:href="#g" transform="matrix(1,0,0,1,1587.9656419529836,614.5) translate(0 17.1)"/><use xlink:href="#h" transform="matrix(1,0,0,1,1649.6533665835411,614.5) translate(0 17.1)"/><path d="M1080 330c0-16.57 13.43-30 30-30h200c16.57 0 30 13.43 30 30v12c0 16.57-13.43 30-30 30h-200c-16.57 0-30-13.43-30-30z" fill="#fff"/><path d="M1080 330c0-16.57 13.43-30 30-30h200c16.57 0 30 13.43 30 30v12c0 16.57-13.43 30-30 30h-200c-16.57 0-30-13.43-30-30zM1080 340h260M1183.16 340v32M1240 340v32" stroke="#000" stroke-width="2" fill="none"/><use xlink:href="#ao" transform="matrix(1,0,0,1,1089.9999999999998,300) translate(66.25 23.6)"/><use xlink:href="#ab" transform="matrix(1,0,0,1,1084.9999999999998,342.5) translate(31.55 17.1)"/><use xlink:href="#ac" transform="matrix(1,0,0,1,1188.158280207017,342.5) translate(0 17.1)"/><use xlink:href="#h" transform="matrix(1,0,0,1,1244.9999999999998,342.5) translate(0 17.1)"/><path d="M1210 374v104.54H987.44" stroke="#000" stroke-width="2" fill="none"/><path d="M1211 374.03h-2V373h2z"/><path d="M969.07 468.54l20 10-20 10M969.07 478.54h20" stroke="#000" stroke-width="2" fill="#fff"/><path d="M1539.82 176H1570v122" stroke="#000" stroke-width="2" fill="none"/><path d="M1521.45 166l20 10-20 10M1521.45 176h20" stroke="#000" stroke-width="2" fill="#fff"/><path d="M1571 299h-2v-1.03h2z"/><path d="M1240.18 176H1210v122" stroke="#000" stroke-width="2" fill="none"/><path d="M1258.55 186l-20-10 20-10M1258.55 176h-20" stroke="#000" stroke-width="2" fill="#fff"/><path d="M1211 299h-2v-1.03h2z"/><path d="M1570 520.18V374" stroke="#000" stroke-width="2" fill="none"/><path d="M1560 538.55l10-20 10 20M1570 538.55v-20" stroke="#000" stroke-width="2" fill="#fff"/><path d="M1571 374.03h-2V373h2z"/><path d="M1230 520.18V499h147.8V355.5h-39" stroke="#000" stroke-width="2" fill="none"/><path d="M1220 538.55l10-20 10 20M1230 538.55v-20" stroke="#000" stroke-width="2" fill="#fff"/><path d="M1338.84 356.5h-1.47l.9-2h.57z"/><path d="M716.16 418.24h255.27v80.6H716.16z" stroke="#000" stroke-width="2" fill-opacity="0"/><path d="M720.2 422.27h247.2v72.53H720.2z" stroke="#000" stroke-width="2" fill-opacity="0"/><path d="M720.2 422.27h247.2v72.53H720.2z" fill="none"/><path d="M1698.8 355.5h39V685H444.56" stroke="#000" stroke-width="2" fill="none"/><path d="M1698.84 356.5h-1.47l.9-2h.57z"/><path d="M426.17 675l20 10-20 10M426.17 685h20" stroke="#000" stroke-width="2" fill="#fff"/><path d="M1078 596.03h-29.1V226" stroke="#000" stroke-width="2" fill="none"/><path d="M1079 597.03h-1.03v-2h1.03zM1049.9 226.03h-2V225h2z"/><defs><path d="M212-179c-10-28-35-45-73-45-59 0-87 40-87 99 0 60 29 101 89 101 43 0 62-24 78-52l27 14C228-24 195 4 139 4 59 4 22-46 18-125c-6-104 99-153 187-111 19 9 31 26 39 46" id="ap"/><path d="M100-194c62-1 85 37 85 99 1 63-27 99-86 99S16-35 15-95c0-66 28-99 85-99zM99-20c44 1 53-31 53-75 0-43-8-75-51-75s-53 32-53 75 10 74 51 75" id="aq"/><path d="M84 4C-5 8 30-112 23-190h32v120c0 31 7 50 39 49 72-2 45-101 50-169h31l1 190h-30c-1-10 1-25-2-33-11 22-28 36-60 37" id="ar"/><path d="M117-194c89-4 53 116 60 194h-32v-121c0-31-8-49-39-48C34-167 62-67 57 0H25l-1-190h30c1 10-1 24 2 32 11-22 29-35 61-36" id="as"/><path d="M59-47c-2 24 18 29 38 22v24C64 9 27 4 27-40v-127H5v-23h24l9-43h21v43h35v23H59v120" id="at"/><path d="M114-163C36-179 61-72 57 0H25l-1-190h30c1 12-1 29 2 39 6-27 23-49 58-41v29" id="au"/><path d="M179-190L93 31C79 59 56 82 12 73V49c39 6 53-20 64-50L1-190h34L92-34l54-156h33" id="av"/><g id="a"><use transform="matrix(0.05,0,0,0.05,0,0)" xlink:href="#ap"/><use transform="matrix(0.05,0,0,0.05,12.950000000000001,0)" xlink:href="#aq"/><use transform="matrix(0.05,0,0,0.05,22.950000000000003,0)" xlink:href="#ar"/><use transform="matrix(0.05,0,0,0.05,32.95,0)" xlink:href="#as"/><use transform="matrix(0.05,0,0,0.05,42.95,0)" xlink:href="#at"/><use transform="matrix(0.05,0,0,0.05,47.95,0)" xlink:href="#au"/><use transform="matrix(0.05,0,0,0.05,53.900000000000006,0)" xlink:href="#av"/></g><path d="M33 0v-248h34V0H33" id="aw"/><path d="M85-194c31 0 48 13 60 33l-1-100h32l1 261h-30c-2-10 0-23-3-31C134-8 116 4 85 4 32 4 16-35 15-94c0-66 23-100 70-100zm9 24c-40 0-46 34-46 75 0 40 6 74 45 74 42 0 51-32 51-76 0-42-9-74-50-73" id="ax"/><g id="b"><use transform="matrix(0.05,0,0,0.05,0,0)" xlink:href="#ap"/><use transform="matrix(0.05,0,0,0.05,12.950000000000001,0)" xlink:href="#aq"/><use transform="matrix(0.05,0,0,0.05,22.950000000000003,0)" xlink:href="#ar"/><use transform="matrix(0.05,0,0,0.05,32.95,0)" xlink:href="#as"/><use transform="matrix(0.05,0,0,0.05,42.95,0)" xlink:href="#at"/><use transform="matrix(0.05,0,0,0.05,47.95,0)" xlink:href="#au"/><use transform="matrix(0.05,0,0,0.05,53.900000000000006,0)" xlink:href="#av"/><use transform="matrix(0.05,0,0,0.05,62.900000000000006,0)" xlink:href="#aw"/><use transform="matrix(0.05,0,0,0.05,67.9,0)" xlink:href="#ax"/></g><path d="M24-231v-30h32v30H24zM24 0v-190h32V0H24" id="ay"/><g id="c"><use transform="matrix(0.05,0,0,0.05,0,0)" xlink:href="#ay"/><use transform="matrix(0.05,0,0,0.05,3.95,0)" xlink:href="#ax"/></g><path d="M240 0l2-218c-23 76-54 145-80 218h-23L58-218 59 0H30v-248h44l77 211c21-75 51-140 76-211h43V0h-30" id="az"/><path d="M68-38c1 34 0 65-14 84H32c9-13 17-26 17-46H33v-38h35" id="aA"/><g id="d"><use transform="matrix(0.05,0,0,0.05,0,0)" xlink:href="#az"/><use transform="matrix(0.05,0,0,0.05,14.950000000000001,0)" xlink:href="#aA"/></g><path d="M30-248c87 1 191-15 191 75 0 78-77 80-158 76V0H30v-248zm33 125c57 0 124 11 124-50 0-59-68-47-124-48v98" id="aB"/><path d="M194 0L95-120 63-95V0H30v-248h33v124l119-124h40L117-140 236 0h-42" id="aC"/><g id="e"><use transform="matrix(0.05,0,0,0.05,0,0)" xlink:href="#aB"/><use transform="matrix(0.05,0,0,0.05,12,0)" xlink:href="#aC"/></g><path d="M190 0L58-211 59 0H30v-248h39L202-35l-2-213h31V0h-41" id="aD"/><path d="M141-36C126-15 110 5 73 4 37 3 15-17 15-53c-1-64 63-63 125-63 3-35-9-54-41-54-24 1-41 7-42 31l-33-3c5-37 33-52 76-52 45 0 72 20 72 64v82c-1 20 7 32 28 27v20c-31 9-61-2-59-35zM48-53c0 20 12 33 32 33 41-3 63-29 60-74-43 2-92-5-92 41" id="aE"/><path d="M210-169c-67 3-38 105-44 169h-31v-121c0-29-5-50-35-48C34-165 62-65 56 0H25l-1-190h30c1 10-1 24 2 32 10-44 99-50 107 0 11-21 27-35 58-36 85-2 47 119 55 194h-31v-121c0-29-5-49-35-48" id="aF"/><path d="M100-194c63 0 86 42 84 106H49c0 40 14 67 53 68 26 1 43-12 49-29l28 8c-11 28-37 45-77 45C44 4 14-33 15-96c1-61 26-98 85-98zm52 81c6-60-76-77-97-28-3 7-6 17-6 28h103" id="aG"/><g id="f"><use transform="matrix(0.05,0,0,0.05,0,0)" xlink:href="#ap"/><use transform="matrix(0.05,0,0,0.05,12.950000000000001,0)" xlink:href="#aq"/><use transform="matrix(0.05,0,0,0.05,22.950000000000003,0)" xlink:href="#ar"/><use transform="matrix(0.05,0,0,0.05,32.95,0)" xlink:href="#as"/><use transform="matrix(0.05,0,0,0.05,42.95,0)" xlink:href="#at"/><use transform="matrix(0.05,0,0,0.05,47.95,0)" xlink:href="#au"/><use transform="matrix(0.05,0,0,0.05,53.900000000000006,0)" xlink:href="#av"/><use transform="matrix(0.05,0,0,0.05,62.900000000000006,0)" xlink:href="#aD"/><use transform="matrix(0.05,0,0,0.05,75.85000000000001,0)" xlink:href="#aE"/><use transform="matrix(0.05,0,0,0.05,85.85000000000001,0)" xlink:href="#aF"/><use transform="matrix(0.05,0,0,0.05,100.80000000000001,0)" xlink:href="#aG"/></g><g id="g"><use transform="matrix(0.05,0,0,0.05,0,0)" xlink:href="#as"/><use transform="matrix(0.05,0,0,0.05,10,0)" xlink:href="#aE"/><use transform="matrix(0.05,0,0,0.05,20,0)" xlink:href="#aF"/><use transform="matrix(0.05,0,0,0.05,34.95,0)" xlink:href="#aG"/></g><use transform="matrix(0.05,0,0,0.05,0,0)" xlink:href="#az" id="h"/><path d="M63-220v92h138v28H63V0H30v-248h175v28H63" id="aH"/><path d="M24 0v-261h32V0H24" id="aI"/><g id="i"><use transform="matrix(0.05,0,0,0.05,0,0)" xlink:href="#aH"/><use transform="matrix(0.05,0,0,0.05,10.950000000000001,0)" xlink:href="#ay"/><use transform="matrix(0.05,0,0,0.05,14.9,0)" xlink:href="#aI"/><use transform="matrix(0.05,0,0,0.05,18.85,0)" xlink:href="#aF"/></g><g id="j"><use transform="matrix(0.05,0,0,0.05,0,0)" xlink:href="#aH"/><use transform="matrix(0.05,0,0,0.05,10.950000000000001,0)" xlink:href="#ay"/><use transform="matrix(0.05,0,0,0.05,14.9,0)" xlink:href="#aI"/><use transform="matrix(0.05,0,0,0.05,18.85,0)" xlink:href="#aF"/><use transform="matrix(0.05,0,0,0.05,33.800000000000004,0)" xlink:href="#aw"/><use transform="matrix(0.05,0,0,0.05,38.800000000000004,0)" xlink:href="#ax"/></g><g id="k"><use transform="matrix(0.05,0,0,0.05,0,0)" xlink:href="#az"/><use transform="matrix(0.05,0,0,0.05,14.950000000000001,0)" xlink:href="#aA"/></g><g id="l"><use transform="matrix(0.05,0,0,0.05,0,0)" xlink:href="#aH"/><use transform="matrix(0.05,0,0,0.05,10.950000000000001,0)" xlink:href="#ay"/><use transform="matrix(0.05,0,0,0.05,14.9,0)" xlink:href="#aI"/><use transform="matrix(0.05,0,0,0.05,18.85,0)" xlink:href="#aF"/><use transform="matrix(0.05,0,0,0.05,33.800000000000004,0)" xlink:href="#aD"/><use transform="matrix(0.05,0,0,0.05,46.75000000000001,0)" xlink:href="#aE"/><use transform="matrix(0.05,0,0,0.05,56.75,0)" xlink:href="#aF"/><use transform="matrix(0.05,0,0,0.05,71.7,0)" xlink:href="#aG"/></g><path d="M233-177c-1 41-23 64-60 70L243 0h-38l-65-103H63V0H30v-248c88 3 205-21 203 71zM63-129c60-2 137 13 137-47 0-61-80-42-137-45v92" id="aJ"/><path d="M135-143c-3-34-86-38-87 0 15 53 115 12 119 90S17 21 10-45l28-5c4 36 97 45 98 0-10-56-113-15-118-90-4-57 82-63 122-42 12 7 21 19 24 35" id="aK"/><path d="M30-248c118-7 216 8 213 122C240-48 200 0 122 0H30v-248zM63-27c89 8 146-16 146-99s-60-101-146-95v194" id="aL"/><g id="m"><use transform="matrix(0.05,0,0,0.05,0,0)" xlink:href="#aJ"/><use transform="matrix(0.05,0,0,0.05,12.950000000000001,0)" xlink:href="#aG"/><use transform="matrix(0.05,0,0,0.05,22.950000000000003,0)" xlink:href="#aI"/><use transform="matrix(0.05,0,0,0.05,26.900000000000002,0)" xlink:href="#aG"/><use transform="matrix(0.05,0,0,0.05,36.900000000000006,0)" xlink:href="#aE"/><use transform="matrix(0.05,0,0,0.05,46.900000000000006,0)" xlink:href="#aK"/><use transform="matrix(0.05,0,0,0.05,55.900000000000006,0)" xlink:href="#aG"/><use transform="matrix(0.05,0,0,0.05,65.9,0)" xlink:href="#aL"/><use transform="matrix(0.05,0,0,0.05,78.85000000000001,0)" xlink:href="#aE"/><use transform="matrix(0.05,0,0,0.05,88.85000000000001,0)" xlink:href="#at"/><use transform="matrix(0.05,0,0,0.05,93.85000000000001,0)" xlink:href="#aG"/></g><g id="n"><use transform="matrix(0.05,0,0,0.05,0,0)" xlink:href="#ax"/><use transform="matrix(0.05,0,0,0.05,10,0)" xlink:href="#aE"/><use transform="matrix(0.05,0,0,0.05,20,0)" xlink:href="#at"/><use transform="matrix(0.05,0,0,0.05,25,0)" xlink:href="#aG"/></g><path d="M185-189c-5-48-123-54-124 2 14 75 158 14 163 119 3 78-121 87-175 55-17-10-28-26-33-46l33-7c5 56 141 63 141-1 0-78-155-14-162-118-5-82 145-84 179-34 5 7 8 16 11 25" id="aM"/><path d="M177-190C167-65 218 103 67 71c-23-6-38-20-44-43l32-5c15 47 100 32 89-28v-30C133-14 115 1 83 1 29 1 15-40 15-95c0-56 16-97 71-98 29-1 48 16 59 35 1-10 0-23 2-32h30zM94-22c36 0 50-32 50-73 0-42-14-75-50-75-39 0-46 34-46 75s6 73 46 73" id="aN"/><g id="o"><use transform="matrix(0.05,0,0,0.05,0,0)" xlink:href="#aM"/><use transform="matrix(0.05,0,0,0.05,12,0)" xlink:href="#aI"/><use transform="matrix(0.05,0,0,0.05,15.949999999999998,0)" xlink:href="#aq"/><use transform="matrix(0.05,0,0,0.05,25.950000000000003,0)" xlink:href="#aN"/><use transform="matrix(0.05,0,0,0.05,35.95,0)" xlink:href="#aE"/><use transform="matrix(0.05,0,0,0.05,45.95,0)" xlink:href="#as"/></g><path d="M106-169C34-169 62-67 57 0H25v-261h32l-1 103c12-21 28-36 61-36 89 0 53 116 60 194h-32v-121c2-32-8-49-39-48" id="aO"/><path d="M-5 72V49h209v23H-5" id="aP"/><path d="M141 0L90-78 38 0H4l68-98-65-92h35l48 74 47-74h35l-64 92 68 98h-35" id="aQ"/><g id="p"><use transform="matrix(0.05,0,0,0.05,0,0)" xlink:href="#aK"/><use transform="matrix(0.05,0,0,0.05,9,0)" xlink:href="#aO"/><use transform="matrix(0.05,0,0,0.05,19,0)" xlink:href="#aq"/><use transform="matrix(0.05,0,0,0.05,29,0)" xlink:href="#au"/><use transform="matrix(0.05,0,0,0.05,34.95,0)" xlink:href="#at"/><use transform="matrix(0.05,0,0,0.05,39.95,0)" xlink:href="#aP"/><use transform="matrix(0.05,0,0,0.05,49.95,0)" xlink:href="#at"/><use transform="matrix(0.05,0,0,0.05,54.95,0)" xlink:href="#aG"/><use transform="matrix(0.05,0,0,0.05,64.95,0)" xlink:href="#aQ"/><use transform="matrix(0.05,0,0,0.05,73.95,0)" xlink:href="#at"/></g><path d="M140-251c81 0 123 46 123 126C263-46 219 4 140 4 59 4 17-45 17-125s42-126 123-126zm0 227c63 0 89-41 89-101s-29-99-89-99c-61 0-89 39-89 99S79-25 140-24" id="aR"/><use transform="matrix(0.05,0,0,0.05,0,0)" xlink:href="#aR" id="q"/><path d="M160-131c35 5 61 23 61 61C221 17 115-2 30 0v-248c76 3 177-17 177 60 0 33-19 50-47 57zm-97-11c50-1 110 9 110-42 0-47-63-36-110-37v79zm0 115c55-2 124 14 124-45 0-56-70-42-124-44v89" id="aS"/><g id="r"><use transform="matrix(0.05,0,0,0.05,0,0)" xlink:href="#aS"/><use transform="matrix(0.05,0,0,0.05,12,0)" xlink:href="#ar"/><use transform="matrix(0.05,0,0,0.05,22,0)" xlink:href="#ax"/><use transform="matrix(0.05,0,0,0.05,32,0)" xlink:href="#aN"/><use transform="matrix(0.05,0,0,0.05,42,0)" xlink:href="#aG"/><use transform="matrix(0.05,0,0,0.05,52,0)" xlink:href="#at"/></g><g id="s"><use transform="matrix(0.05,0,0,0.05,0,0)" xlink:href="#aF"/><use transform="matrix(0.05,0,0,0.05,14.950000000000001,0)" xlink:href="#aq"/><use transform="matrix(0.05,0,0,0.05,24.950000000000003,0)" xlink:href="#as"/><use transform="matrix(0.05,0,0,0.05,34.95,0)" xlink:href="#aG"/><use transform="matrix(0.05,0,0,0.05,44.95,0)" xlink:href="#av"/></g><g id="t"><use transform="matrix(0.05,0,0,0.05,0,0)" xlink:href="#aL"/><use transform="matrix(0.05,0,0,0.05,12.950000000000001,0)" xlink:href="#ar"/><use transform="matrix(0.05,0,0,0.05,22.950000000000003,0)" xlink:href="#au"/><use transform="matrix(0.05,0,0,0.05,28.900000000000002,0)" xlink:href="#aE"/><use transform="matrix(0.05,0,0,0.05,38.900000000000006,0)" xlink:href="#at"/><use transform="matrix(0.05,0,0,0.05,43.900000000000006,0)" xlink:href="#ay"/><use transform="matrix(0.05,0,0,0.05,47.85000000000001,0)" xlink:href="#aq"/><use transform="matrix(0.05,0,0,0.05,57.85,0)" xlink:href="#as"/></g><g id="u"><use transform="matrix(0.05,0,0,0.05,0,0)" xlink:href="#ax"/><use transform="matrix(0.05,0,0,0.05,10,0)" xlink:href="#ar"/><use transform="matrix(0.05,0,0,0.05,20,0)" xlink:href="#au"/><use transform="matrix(0.05,0,0,0.05,25.950000000000003,0)" xlink:href="#aE"/><use transform="matrix(0.05,0,0,0.05,35.95,0)" xlink:href="#at"/><use transform="matrix(0.05,0,0,0.05,40.95,0)" xlink:href="#ay"/><use transform="matrix(0.05,0,0,0.05,44.900000000000006,0)" xlink:href="#aq"/><use transform="matrix(0.05,0,0,0.05,54.900000000000006,0)" xlink:href="#as"/></g><path d="M96-169c-40 0-48 33-48 73s9 75 48 75c24 0 41-14 43-38l32 2c-6 37-31 61-74 61-59 0-76-41-82-99-10-93 101-131 147-64 4 7 5 14 7 22l-32 3c-4-21-16-35-41-35" id="aT"/><path d="M115-194c55 1 70 41 70 98S169 2 115 4C84 4 66-9 55-30l1 105H24l-1-265h31l2 30c10-21 28-34 59-34zm-8 174c40 0 45-34 45-75s-6-73-45-74c-42 0-51 32-51 76 0 43 10 73 51 73" id="aU"/><g id="v"><use transform="matrix(0.05,0,0,0.05,0,0)" xlink:href="#aL"/><use transform="matrix(0.05,0,0,0.05,12.950000000000001,0)" xlink:href="#aG"/><use transform="matrix(0.05,0,0,0.05,22.950000000000003,0)" xlink:href="#aK"/><use transform="matrix(0.05,0,0,0.05,31.950000000000003,0)" xlink:href="#aT"/><use transform="matrix(0.05,0,0,0.05,40.95,0)" xlink:href="#au"/><use transform="matrix(0.05,0,0,0.05,46.900000000000006,0)" xlink:href="#ay"/><use transform="matrix(0.05,0,0,0.05,50.85000000000001,0)" xlink:href="#aU"/><use transform="matrix(0.05,0,0,0.05,60.85,0)" xlink:href="#at"/><use transform="matrix(0.05,0,0,0.05,65.85000000000001,0)" xlink:href="#ay"/><use transform="matrix(0.05,0,0,0.05,69.80000000000001,0)" xlink:href="#aq"/><use transform="matrix(0.05,0,0,0.05,79.80000000000001,0)" xlink:href="#as"/></g><g id="w"><use transform="matrix(0.05,0,0,0.05,0,0)" xlink:href="#at"/><use transform="matrix(0.05,0,0,0.05,5,0)" xlink:href="#aG"/><use transform="matrix(0.05,0,0,0.05,15,0)" xlink:href="#aQ"/><use transform="matrix(0.05,0,0,0.05,24,0)" xlink:href="#at"/></g><path d="M127-220V0H93v-220H8v-28h204v28h-85" id="aV"/><g id="x"><use transform="matrix(0.05,0,0,0.05,0,0)" xlink:href="#aH"/><use transform="matrix(0.05,0,0,0.05,10.950000000000001,0)" xlink:href="#ay"/><use transform="matrix(0.05,0,0,0.05,14.9,0)" xlink:href="#aI"/><use transform="matrix(0.05,0,0,0.05,18.85,0)" xlink:href="#aF"/><use transform="matrix(0.05,0,0,0.05,33.800000000000004,0)" xlink:href="#aV"/><use transform="matrix(0.05,0,0,0.05,43.75000000000001,0)" xlink:href="#av"/><use transform="matrix(0.05,0,0,0.05,52.75,0)" xlink:href="#aU"/><use transform="matrix(0.05,0,0,0.05,62.75,0)" xlink:href="#aG"/></g><g id="y"><use transform="matrix(0.05,0,0,0.05,0,0)" xlink:href="#ay"/><use transform="matrix(0.05,0,0,0.05,3.95,0)" xlink:href="#as"/><use transform="matrix(0.05,0,0,0.05,13.949999999999998,0)" xlink:href="#at"/></g><g id="z"><use transform="matrix(0.05,0,0,0.05,0,0)" xlink:href="#aM"/><use transform="matrix(0.05,0,0,0.05,12,0)" xlink:href="#aT"/><use transform="matrix(0.05,0,0,0.05,21,0)" xlink:href="#aq"/><use transform="matrix(0.05,0,0,0.05,31,0)" xlink:href="#au"/><use transform="matrix(0.05,0,0,0.05,36.95,0)" xlink:href="#aG"/></g><path d="M232-93c-1 65-40 97-104 97C67 4 28-28 28-90v-158h33c8 89-33 224 67 224 102 0 64-133 71-224h33v155" id="aW"/><g id="A"><use transform="matrix(0.05,0,0,0.05,0,0)" xlink:href="#aW"/><use transform="matrix(0.05,0,0,0.05,12.950000000000001,0)" xlink:href="#aK"/><use transform="matrix(0.05,0,0,0.05,21.950000000000003,0)" xlink:href="#aG"/><use transform="matrix(0.05,0,0,0.05,31.950000000000003,0)" xlink:href="#au"/><use transform="matrix(0.05,0,0,0.05,37.900000000000006,0)" xlink:href="#aw"/><use transform="matrix(0.05,0,0,0.05,42.900000000000006,0)" xlink:href="#ax"/></g><g id="B"><use transform="matrix(0.05,0,0,0.05,0,0)" xlink:href="#aM"/><use transform="matrix(0.05,0,0,0.05,12,0)" xlink:href="#aT"/><use transform="matrix(0.05,0,0,0.05,21,0)" xlink:href="#aq"/><use transform="matrix(0.05,0,0,0.05,31,0)" xlink:href="#au"/><use transform="matrix(0.05,0,0,0.05,36.95,0)" xlink:href="#aG"/></g><g id="C"><use transform="matrix(0.05,0,0,0.05,0,0)" xlink:href="#aK"/><use transform="matrix(0.05,0,0,0.05,9,0)" xlink:href="#aT"/><use transform="matrix(0.05,0,0,0.05,18,0)" xlink:href="#aq"/><use transform="matrix(0.05,0,0,0.05,28,0)" xlink:href="#au"/><use transform="matrix(0.05,0,0,0.05,33.95,0)" xlink:href="#aG"/></g><g id="D"><use transform="matrix(0.05,0,0,0.05,0,0)" xlink:href="#aB"/><use transform="matrix(0.05,0,0,0.05,12,0)" xlink:href="#aG"/><use transform="matrix(0.05,0,0,0.05,22,0)" xlink:href="#au"/><use transform="matrix(0.05,0,0,0.05,27.950000000000003,0)" xlink:href="#aK"/><use transform="matrix(0.05,0,0,0.05,36.95,0)" xlink:href="#aq"/><use transform="matrix(0.05,0,0,0.05,46.95,0)" xlink:href="#as"/></g><g id="E"><use transform="matrix(0.05,0,0,0.05,0,0)" xlink:href="#aB"/><use transform="matrix(0.05,0,0,0.05,12,0)" xlink:href="#aG"/><use transform="matrix(0.05,0,0,0.05,22,0)" xlink:href="#au"/><use transform="matrix(0.05,0,0,0.05,27.950000000000003,0)" xlink:href="#aK"/><use transform="matrix(0.05,0,0,0.05,36.95,0)" xlink:href="#aq"/><use transform="matrix(0.05,0,0,0.05,46.95,0)" xlink:href="#as"/><use transform="matrix(0.05,0,0,0.05,56.95,0)" xlink:href="#aw"/><use transform="matrix(0.05,0,0,0.05,61.95,0)" xlink:href="#ax"/></g><g id="F"><use transform="matrix(0.05,0,0,0.05,0,0)" xlink:href="#aH"/><use transform="matrix(0.05,0,0,0.05,10.950000000000001,0)" xlink:href="#ay"/><use transform="matrix(0.05,0,0,0.05,14.9,0)" xlink:href="#au"/><use transform="matrix(0.05,0,0,0.05,20.85,0)" xlink:href="#aK"/><use transform="matrix(0.05,0,0,0.05,29.85,0)" xlink:href="#at"/><use transform="matrix(0.05,0,0,0.05,34.85,0)" xlink:href="#aD"/><use transform="matrix(0.05,0,0,0.05,47.800000000000004,0)" xlink:href="#aE"/><use transform="matrix(0.05,0,0,0.05,57.800000000000004,0)" xlink:href="#aF"/><use transform="matrix(0.05,0,0,0.05,72.75,0)" xlink:href="#aG"/></g><g id="G"><use transform="matrix(0.05,0,0,0.05,0,0)" xlink:href="#aS"/><use transform="matrix(0.05,0,0,0.05,12,0)" xlink:href="#ay"/><use transform="matrix(0.05,0,0,0.05,15.949999999999998,0)" xlink:href="#au"/><use transform="matrix(0.05,0,0,0.05,21.9,0)" xlink:href="#at"/><use transform="matrix(0.05,0,0,0.05,26.899999999999995,0)" xlink:href="#aO"/><use transform="matrix(0.05,0,0,0.05,36.9,0)" xlink:href="#ax"/><use transform="matrix(0.05,0,0,0.05,46.9,0)" xlink:href="#aE"/><use transform="matrix(0.05,0,0,0.05,56.900000000000006,0)" xlink:href="#av"/></g><path d="M30 0v-248h33v221h125V0H30" id="aX"/><g id="H"><use transform="matrix(0.05,0,0,0.05,0,0)" xlink:href="#aX"/><use transform="matrix(0.05,0,0,0.05,10,0)" xlink:href="#aE"/><use transform="matrix(0.05,0,0,0.05,20,0)" xlink:href="#aK"/><use transform="matrix(0.05,0,0,0.05,29,0)" xlink:href="#at"/><use transform="matrix(0.05,0,0,0.05,34,0)" xlink:href="#aD"/><use transform="matrix(0.05,0,0,0.05,46.95,0)" xlink:href="#aE"/><use transform="matrix(0.05,0,0,0.05,56.95,0)" xlink:href="#aF"/><use transform="matrix(0.05,0,0,0.05,71.9,0)" xlink:href="#aG"/></g><g id="I"><use transform="matrix(0.05,0,0,0.05,0,0)" xlink:href="#aB"/><use transform="matrix(0.05,0,0,0.05,12,0)" xlink:href="#aE"/><use transform="matrix(0.05,0,0,0.05,22,0)" xlink:href="#at"/><use transform="matrix(0.05,0,0,0.05,27,0)" xlink:href="#au"/><use transform="matrix(0.05,0,0,0.05,32.95,0)" xlink:href="#aq"/><use transform="matrix(0.05,0,0,0.05,42.95,0)" xlink:href="#as"/><use transform="matrix(0.05,0,0,0.05,52.95,0)" xlink:href="#av"/><use transform="matrix(0.05,0,0,0.05,61.95,0)" xlink:href="#aF"/><use transform="matrix(0.05,0,0,0.05,76.9,0)" xlink:href="#ay"/><use transform="matrix(0.05,0,0,0.05,80.85000000000001,0)" xlink:href="#aT"/></g><path d="M143 0L79-87 56-68V0H24v-261h32v163l83-92h37l-77 82L181 0h-38" id="aY"/><g id="J"><use transform="matrix(0.05,0,0,0.05,0,0)" xlink:href="#aH"/><use transform="matrix(0.05,0,0,0.05,10.950000000000001,0)" xlink:href="#ay"/><use transform="matrix(0.05,0,0,0.05,14.9,0)" xlink:href="#aI"/><use transform="matrix(0.05,0,0,0.05,18.85,0)" xlink:href="#aF"/><use transform="matrix(0.05,0,0,0.05,33.800000000000004,0)" xlink:href="#aF"/><use transform="matrix(0.05,0,0,0.05,48.75000000000001,0)" xlink:href="#aE"/><use transform="matrix(0.05,0,0,0.05,58.75,0)" xlink:href="#aY"/><use transform="matrix(0.05,0,0,0.05,67.75,0)" xlink:href="#aG"/><use transform="matrix(0.05,0,0,0.05,77.75,0)" xlink:href="#au"/></g><g id="K"><use transform="matrix(0.05,0,0,0.05,0,0)" xlink:href="#ap"/><use transform="matrix(0.05,0,0,0.05,12.950000000000001,0)" xlink:href="#aO"/><use transform="matrix(0.05,0,0,0.05,22.950000000000003,0)" xlink:href="#aE"/><use transform="matrix(0.05,0,0,0.05,32.95,0)" xlink:href="#au"/><use transform="matrix(0.05,0,0,0.05,38.900000000000006,0)" xlink:href="#aE"/><use transform="matrix(0.05,0,0,0.05,48.900000000000006,0)" xlink:href="#aT"/><use transform="matrix(0.05,0,0,0.05,57.900000000000006,0)" xlink:href="#at"/><use transform="matrix(0.05,0,0,0.05,62.900000000000006,0)" xlink:href="#aG"/><use transform="matrix(0.05,0,0,0.05,72.9,0)" xlink:href="#au"/></g><path d="M101-234c-31-9-42 10-38 44h38v23H63V0H32v-167H5v-23h27c-7-52 17-82 69-68v24" id="aZ"/><g id="L"><use transform="matrix(0.05,0,0,0.05,0,0)" xlink:href="#aB"/><use transform="matrix(0.05,0,0,0.05,12,0)" xlink:href="#au"/><use transform="matrix(0.05,0,0,0.05,17.95,0)" xlink:href="#aq"/><use transform="matrix(0.05,0,0,0.05,27.950000000000003,0)" xlink:href="#aZ"/><use transform="matrix(0.05,0,0,0.05,32.95,0)" xlink:href="#aG"/><use transform="matrix(0.05,0,0,0.05,42.95,0)" xlink:href="#aK"/><use transform="matrix(0.05,0,0,0.05,51.95,0)" xlink:href="#aK"/><use transform="matrix(0.05,0,0,0.05,60.95,0)" xlink:href="#ay"/><use transform="matrix(0.05,0,0,0.05,64.9,0)" xlink:href="#aq"/><use transform="matrix(0.05,0,0,0.05,74.9,0)" xlink:href="#as"/></g><g id="M"><use transform="matrix(0.05,0,0,0.05,0,0)" xlink:href="#aB"/><use transform="matrix(0.05,0,0,0.05,12,0)" xlink:href="#au"/><use transform="matrix(0.05,0,0,0.05,17.95,0)" xlink:href="#aq"/><use transform="matrix(0.05,0,0,0.05,27.950000000000003,0)" xlink:href="#aZ"/><use transform="matrix(0.05,0,0,0.05,32.95,0)" xlink:href="#aG"/><use transform="matrix(0.05,0,0,0.05,42.95,0)" xlink:href="#aK"/><use transform="matrix(0.05,0,0,0.05,51.95,0)" xlink:href="#aK"/><use transform="matrix(0.05,0,0,0.05,60.95,0)" xlink:href="#ay"/><use transform="matrix(0.05,0,0,0.05,64.9,0)" xlink:href="#aq"/><use transform="matrix(0.05,0,0,0.05,74.9,0)" xlink:href="#as"/><use transform="matrix(0.05,0,0,0.05,84.9,0)" xlink:href="#aw"/><use transform="matrix(0.05,0,0,0.05,89.9,0)" xlink:href="#ax"/></g><g id="N"><use transform="matrix(0.05,0,0,0.05,0,0)" xlink:href="#aB"/><use transform="matrix(0.05,0,0,0.05,12,0)" xlink:href="#au"/><use transform="matrix(0.05,0,0,0.05,17.95,0)" xlink:href="#aq"/><use transform="matrix(0.05,0,0,0.05,27.950000000000003,0)" xlink:href="#aZ"/><use transform="matrix(0.05,0,0,0.05,32.95,0)" xlink:href="#aG"/><use transform="matrix(0.05,0,0,0.05,42.95,0)" xlink:href="#aK"/><use transform="matrix(0.05,0,0,0.05,51.95,0)" xlink:href="#aK"/><use transform="matrix(0.05,0,0,0.05,60.95,0)" xlink:href="#ay"/><use transform="matrix(0.05,0,0,0.05,64.9,0)" xlink:href="#aq"/><use transform="matrix(0.05,0,0,0.05,74.9,0)" xlink:href="#as"/><use transform="matrix(0.05,0,0,0.05,84.9,0)" xlink:href="#aD"/><use transform="matrix(0.05,0,0,0.05,97.85000000000001,0)" xlink:href="#aE"/><use transform="matrix(0.05,0,0,0.05,107.85000000000001,0)" xlink:href="#aF"/><use transform="matrix(0.05,0,0,0.05,122.80000000000001,0)" xlink:href="#aG"/></g><path d="M143 4C61 4 22-44 18-125c-5-107 100-154 193-111 17 8 29 25 37 43l-32 9c-13-25-37-40-76-40-61 0-88 39-88 99 0 61 29 100 91 101 35 0 62-11 79-27v-45h-74v-28h105v86C228-13 192 4 143 4" id="ba"/><g id="O"><use transform="matrix(0.05,0,0,0.05,0,0)" xlink:href="#ba"/><use transform="matrix(0.05,0,0,0.05,14,0)" xlink:href="#aG"/><use transform="matrix(0.05,0,0,0.05,24,0)" xlink:href="#as"/><use transform="matrix(0.05,0,0,0.05,34,0)" xlink:href="#au"/><use transform="matrix(0.05,0,0,0.05,39.95,0)" xlink:href="#aG"/></g><g id="P"><use transform="matrix(0.05,0,0,0.05,0,0)" xlink:href="#ba"/><use transform="matrix(0.05,0,0,0.05,14,0)" xlink:href="#aG"/><use transform="matrix(0.05,0,0,0.05,24,0)" xlink:href="#as"/><use transform="matrix(0.05,0,0,0.05,34,0)" xlink:href="#au"/><use transform="matrix(0.05,0,0,0.05,39.95,0)" xlink:href="#aG"/><use transform="matrix(0.05,0,0,0.05,49.95,0)" xlink:href="#aw"/><use transform="matrix(0.05,0,0,0.05,54.95,0)" xlink:href="#ax"/></g><g id="Q"><use transform="matrix(0.05,0,0,0.05,0,0)" xlink:href="#ba"/><use transform="matrix(0.05,0,0,0.05,14,0)" xlink:href="#aG"/><use transform="matrix(0.05,0,0,0.05,24,0)" xlink:href="#as"/><use transform="matrix(0.05,0,0,0.05,34,0)" xlink:href="#au"/><use transform="matrix(0.05,0,0,0.05,39.95,0)" xlink:href="#aG"/><use transform="matrix(0.05,0,0,0.05,49.95,0)" xlink:href="#aD"/><use transform="matrix(0.05,0,0,0.05,62.900000000000006,0)" xlink:href="#aE"/><use transform="matrix(0.05,0,0,0.05,72.9,0)" xlink:href="#aF"/><use transform="matrix(0.05,0,0,0.05,87.85000000000001,0)" xlink:href="#aG"/></g><path d="M205 0l-28-72H64L36 0H1l101-248h38L239 0h-34zm-38-99l-47-123c-12 45-31 82-46 123h93" id="bb"/><path d="M206 0h-36l-40-164L89 0H53L-1-190h32L70-26l43-164h34l41 164 42-164h31" id="bc"/><g id="R"><use transform="matrix(0.05,0,0,0.05,0,0)" xlink:href="#bb"/><use transform="matrix(0.05,0,0,0.05,11.65,0)" xlink:href="#bc"/><use transform="matrix(0.05,0,0,0.05,24.6,0)" xlink:href="#aE"/><use transform="matrix(0.05,0,0,0.05,34.6,0)" xlink:href="#au"/><use transform="matrix(0.05,0,0,0.05,40.550000000000004,0)" xlink:href="#ax"/><use transform="matrix(0.05,0,0,0.05,50.550000000000004,0)" xlink:href="#ay"/><use transform="matrix(0.05,0,0,0.05,54.5,0)" xlink:href="#as"/><use transform="matrix(0.05,0,0,0.05,64.5,0)" xlink:href="#aN"/><use transform="matrix(0.05,0,0,0.05,74.5,0)" xlink:href="#aR"/><use transform="matrix(0.05,0,0,0.05,88.5,0)" xlink:href="#au"/><use transform="matrix(0.05,0,0,0.05,94.45,0)" xlink:href="#aN"/></g><g id="S"><use transform="matrix(0.05,0,0,0.05,0,0)" xlink:href="#bb"/><use transform="matrix(0.05,0,0,0.05,11.65,0)" xlink:href="#bc"/><use transform="matrix(0.05,0,0,0.05,24.6,0)" xlink:href="#aE"/><use transform="matrix(0.05,0,0,0.05,34.6,0)" xlink:href="#au"/><use transform="matrix(0.05,0,0,0.05,40.550000000000004,0)" xlink:href="#ax"/><use transform="matrix(0.05,0,0,0.05,50.550000000000004,0)" xlink:href="#aw"/><use transform="matrix(0.05,0,0,0.05,55.550000000000004,0)" xlink:href="#ax"/></g><g id="T"><use transform="matrix(0.05,0,0,0.05,0,0)" xlink:href="#bb"/><use transform="matrix(0.05,0,0,0.05,11.65,0)" xlink:href="#bc"/><use transform="matrix(0.05,0,0,0.05,24.6,0)" xlink:href="#aE"/><use transform="matrix(0.05,0,0,0.05,34.6,0)" xlink:href="#au"/><use transform="matrix(0.05,0,0,0.05,40.550000000000004,0)" xlink:href="#ax"/><use transform="matrix(0.05,0,0,0.05,50.550000000000004,0)" xlink:href="#aD"/><use transform="matrix(0.05,0,0,0.05,63.5,0)" xlink:href="#aE"/><use transform="matrix(0.05,0,0,0.05,73.5,0)" xlink:href="#aF"/><use transform="matrix(0.05,0,0,0.05,88.45,0)" xlink:href="#aG"/></g><g id="U"><use transform="matrix(0.05,0,0,0.05,0,0)" xlink:href="#bb"/><use transform="matrix(0.05,0,0,0.05,11.65,0)" xlink:href="#bc"/><use transform="matrix(0.05,0,0,0.05,24.6,0)" xlink:href="#aE"/><use transform="matrix(0.05,0,0,0.05,34.6,0)" xlink:href="#au"/><use transform="matrix(0.05,0,0,0.05,40.550000000000004,0)" xlink:href="#ax"/><use transform="matrix(0.05,0,0,0.05,50.550000000000004,0)" xlink:href="#aL"/><use transform="matrix(0.05,0,0,0.05,63.5,0)" xlink:href="#aE"/><use transform="matrix(0.05,0,0,0.05,73.5,0)" xlink:href="#at"/><use transform="matrix(0.05,0,0,0.05,78.5,0)" xlink:href="#aG"/></g><g id="V"><use transform="matrix(0.05,0,0,0.05,0,0)" xlink:href="#ax"/><use transform="matrix(0.05,0,0,0.05,10,0)" xlink:href="#aE"/><use transform="matrix(0.05,0,0,0.05,20,0)" xlink:href="#at"/><use transform="matrix(0.05,0,0,0.05,25,0)" xlink:href="#aG"/></g><use transform="matrix(0.05,0,0,0.05,0,0)" xlink:href="#az" id="W"/><g id="X"><use transform="matrix(0.05,0,0,0.05,0,0)" xlink:href="#aB"/><use transform="matrix(0.05,0,0,0.05,12,0)" xlink:href="#aG"/><use transform="matrix(0.05,0,0,0.05,22,0)" xlink:href="#au"/><use transform="matrix(0.05,0,0,0.05,27.950000000000003,0)" xlink:href="#aK"/><use transform="matrix(0.05,0,0,0.05,36.95,0)" xlink:href="#aq"/><use transform="matrix(0.05,0,0,0.05,46.95,0)" xlink:href="#as"/><use transform="matrix(0.05,0,0,0.05,56.95,0)" xlink:href="#aD"/><use transform="matrix(0.05,0,0,0.05,69.9,0)" xlink:href="#aq"/><use transform="matrix(0.05,0,0,0.05,79.9,0)" xlink:href="#aF"/><use transform="matrix(0.05,0,0,0.05,94.85000000000001,0)" xlink:href="#ay"/><use transform="matrix(0.05,0,0,0.05,98.80000000000001,0)" xlink:href="#as"/><use transform="matrix(0.05,0,0,0.05,108.80000000000001,0)" xlink:href="#aE"/><use transform="matrix(0.05,0,0,0.05,118.80000000000001,0)" xlink:href="#at"/><use transform="matrix(0.05,0,0,0.05,123.80000000000001,0)" xlink:href="#ay"/><use transform="matrix(0.05,0,0,0.05,127.75,0)" xlink:href="#aq"/><use transform="matrix(0.05,0,0,0.05,137.75,0)" xlink:href="#as"/></g><g id="Y"><use transform="matrix(0.05,0,0,0.05,0,0)" xlink:href="#aB"/><use transform="matrix(0.05,0,0,0.05,12,0)" xlink:href="#aD"/><use transform="matrix(0.05,0,0,0.05,24.950000000000003,0)" xlink:href="#aq"/><use transform="matrix(0.05,0,0,0.05,34.95,0)" xlink:href="#aF"/><use transform="matrix(0.05,0,0,0.05,49.900000000000006,0)" xlink:href="#ay"/><use transform="matrix(0.05,0,0,0.05,53.85,0)" xlink:href="#as"/><use transform="matrix(0.05,0,0,0.05,63.85,0)" xlink:href="#aE"/><use transform="matrix(0.05,0,0,0.05,73.85000000000001,0)" xlink:href="#at"/><use transform="matrix(0.05,0,0,0.05,78.85000000000001,0)" xlink:href="#ay"/><use transform="matrix(0.05,0,0,0.05,82.80000000000001,0)" xlink:href="#aq"/><use transform="matrix(0.05,0,0,0.05,92.80000000000001,0)" xlink:href="#as"/><use transform="matrix(0.05,0,0,0.05,102.80000000000001,0)" xlink:href="#aw"/><use transform="matrix(0.05,0,0,0.05,107.80000000000001,0)" xlink:href="#ax"/></g><g id="Z"><use transform="matrix(0.05,0,0,0.05,0,0)" xlink:href="#aB"/><use transform="matrix(0.05,0,0,0.05,12,0)" xlink:href="#aD"/><use transform="matrix(0.05,0,0,0.05,24.950000000000003,0)" xlink:href="#aq"/><use transform="matrix(0.05,0,0,0.05,34.95,0)" xlink:href="#aF"/><use transform="matrix(0.05,0,0,0.05,49.900000000000006,0)" xlink:href="#ay"/><use transform="matrix(0.05,0,0,0.05,53.85,0)" xlink:href="#as"/><use transform="matrix(0.05,0,0,0.05,63.85,0)" xlink:href="#aE"/><use transform="matrix(0.05,0,0,0.05,73.85000000000001,0)" xlink:href="#at"/><use transform="matrix(0.05,0,0,0.05,78.85000000000001,0)" xlink:href="#ay"/><use transform="matrix(0.05,0,0,0.05,82.80000000000001,0)" xlink:href="#aq"/><use transform="matrix(0.05,0,0,0.05,92.80000000000001,0)" xlink:href="#as"/><use transform="matrix(0.05,0,0,0.05,102.80000000000001,0)" xlink:href="#aD"/><use transform="matrix(0.05,0,0,0.05,115.75,0)" xlink:href="#aE"/><use transform="matrix(0.05,0,0,0.05,125.75,0)" xlink:href="#aF"/><use transform="matrix(0.05,0,0,0.05,140.70000000000002,0)" xlink:href="#aG"/></g><g id="aa"><use transform="matrix(0.05,0,0,0.05,0,0)" xlink:href="#aH"/><use transform="matrix(0.05,0,0,0.05,10.950000000000001,0)" xlink:href="#ay"/><use transform="matrix(0.05,0,0,0.05,14.9,0)" xlink:href="#aI"/><use transform="matrix(0.05,0,0,0.05,18.85,0)" xlink:href="#aF"/><use transform="matrix(0.05,0,0,0.05,33.800000000000004,0)" xlink:href="#bb"/><use transform="matrix(0.05,0,0,0.05,45.45,0)" xlink:href="#bc"/><use transform="matrix(0.05,0,0,0.05,58.400000000000006,0)" xlink:href="#aE"/><use transform="matrix(0.05,0,0,0.05,68.4,0)" xlink:href="#au"/><use transform="matrix(0.05,0,0,0.05,74.35000000000001,0)" xlink:href="#ax"/></g><path d="M266 0h-40l-56-210L115 0H75L2-248h35L96-30l15-64 43-154h32l59 218 59-218h35" id="bd"/><g id="ab"><use transform="matrix(0.05,0,0,0.05,0,0)" xlink:href="#bd"/><use transform="matrix(0.05,0,0,0.05,16.95,0)" xlink:href="#ay"/><use transform="matrix(0.05,0,0,0.05,20.9,0)" xlink:href="#as"/></g><path d="M115-194c53 0 69 39 70 98 0 66-23 100-70 100C84 3 66-7 56-30L54 0H23l1-261h32v101c10-23 28-34 59-34zm-8 174c40 0 45-34 45-75 0-40-5-75-45-74-42 0-51 32-51 76 0 43 10 73 51 73" id="be"/><g id="ac"><use transform="matrix(0.05,0,0,0.05,0,0)" xlink:href="#be"/><use transform="matrix(0.05,0,0,0.05,10,0)" xlink:href="#aq"/><use transform="matrix(0.05,0,0,0.05,20,0)" xlink:href="#aq"/><use transform="matrix(0.05,0,0,0.05,30,0)" xlink:href="#aI"/></g><g id="ad"><use transform="matrix(0.05,0,0,0.05,0,0)" xlink:href="#aS"/><use transform="matrix(0.05,0,0,0.05,12,0)" xlink:href="#aq"/><use transform="matrix(0.05,0,0,0.05,22,0)" xlink:href="#aQ"/><use transform="matrix(0.05,0,0,0.05,31,0)" xlink:href="#aq"/><use transform="matrix(0.05,0,0,0.05,41,0)" xlink:href="#aZ"/><use transform="matrix(0.05,0,0,0.05,45.65,0)" xlink:href="#aZ"/><use transform="matrix(0.05,0,0,0.05,50.65,0)" xlink:href="#ay"/><use transform="matrix(0.05,0,0,0.05,54.6,0)" xlink:href="#aT"/><use transform="matrix(0.05,0,0,0.05,63.6,0)" xlink:href="#aG"/></g><g id="ae"><use transform="matrix(0.05,0,0,0.05,0,0)" xlink:href="#aw"/><use transform="matrix(0.05,0,0,0.05,5,0)" xlink:href="#as"/><use transform="matrix(0.05,0,0,0.05,15,0)" xlink:href="#aT"/><use transform="matrix(0.05,0,0,0.05,24,0)" xlink:href="#aq"/><use transform="matrix(0.05,0,0,0.05,34,0)" xlink:href="#aF"/><use transform="matrix(0.05,0,0,0.05,48.95,0)" xlink:href="#aG"/></g><g id="af"><use transform="matrix(0.05,0,0,0.05,0,0)" xlink:href="#aM"/><use transform="matrix(0.05,0,0,0.05,12,0)" xlink:href="#aG"/><use transform="matrix(0.05,0,0,0.05,22,0)" xlink:href="#au"/><use transform="matrix(0.05,0,0,0.05,27.950000000000003,0)" xlink:href="#ay"/><use transform="matrix(0.05,0,0,0.05,31.899999999999995,0)" xlink:href="#aG"/><use transform="matrix(0.05,0,0,0.05,41.9,0)" xlink:href="#aK"/></g><g id="ag"><use transform="matrix(0.05,0,0,0.05,0,0)" xlink:href="#aM"/><use transform="matrix(0.05,0,0,0.05,12,0)" xlink:href="#aG"/><use transform="matrix(0.05,0,0,0.05,22,0)" xlink:href="#aE"/><use transform="matrix(0.05,0,0,0.05,32,0)" xlink:href="#aK"/><use transform="matrix(0.05,0,0,0.05,41,0)" xlink:href="#aq"/><use transform="matrix(0.05,0,0,0.05,51,0)" xlink:href="#as"/></g><g id="ah"><use transform="matrix(0.05,0,0,0.05,0,0)" xlink:href="#aM"/><use transform="matrix(0.05,0,0,0.05,12,0)" xlink:href="#aG"/><use transform="matrix(0.05,0,0,0.05,22,0)" xlink:href="#au"/><use transform="matrix(0.05,0,0,0.05,27.950000000000003,0)" xlink:href="#ay"/><use transform="matrix(0.05,0,0,0.05,31.899999999999995,0)" xlink:href="#aG"/><use transform="matrix(0.05,0,0,0.05,41.9,0)" xlink:href="#aK"/><use transform="matrix(0.05,0,0,0.05,50.9,0)" xlink:href="#aD"/><use transform="matrix(0.05,0,0,0.05,63.85,0)" xlink:href="#aq"/></g><g id="ai"><use transform="matrix(0.05,0,0,0.05,0,0)" xlink:href="#ay"/><use transform="matrix(0.05,0,0,0.05,3.95,0)" xlink:href="#as"/><use transform="matrix(0.05,0,0,0.05,13.949999999999998,0)" xlink:href="#at"/></g><g id="aj"><use transform="matrix(0.05,0,0,0.05,0,0)" xlink:href="#aM"/><use transform="matrix(0.05,0,0,0.05,12,0)" xlink:href="#aG"/><use transform="matrix(0.05,0,0,0.05,22,0)" xlink:href="#au"/><use transform="matrix(0.05,0,0,0.05,27.950000000000003,0)" xlink:href="#ay"/><use transform="matrix(0.05,0,0,0.05,31.899999999999995,0)" xlink:href="#aG"/><use transform="matrix(0.05,0,0,0.05,41.9,0)" xlink:href="#aK"/><use transform="matrix(0.05,0,0,0.05,50.9,0)" xlink:href="#aD"/><use transform="matrix(0.05,0,0,0.05,63.85,0)" xlink:href="#aE"/><use transform="matrix(0.05,0,0,0.05,73.85,0)" xlink:href="#aF"/><use transform="matrix(0.05,0,0,0.05,88.8,0)" xlink:href="#aG"/></g><g id="ak"><use transform="matrix(0.05,0,0,0.05,0,0)" xlink:href="#as"/><use transform="matrix(0.05,0,0,0.05,10,0)" xlink:href="#aE"/><use transform="matrix(0.05,0,0,0.05,20,0)" xlink:href="#aF"/><use transform="matrix(0.05,0,0,0.05,34.95,0)" xlink:href="#aG"/></g><g id="al"><use transform="matrix(0.05,0,0,0.05,0,0)" xlink:href="#aH"/><use transform="matrix(0.05,0,0,0.05,10.950000000000001,0)" xlink:href="#ay"/><use transform="matrix(0.05,0,0,0.05,14.9,0)" xlink:href="#aI"/><use transform="matrix(0.05,0,0,0.05,18.85,0)" xlink:href="#aF"/><use transform="matrix(0.05,0,0,0.05,33.800000000000004,0)" xlink:href="#aD"/><use transform="matrix(0.05,0,0,0.05,46.75000000000001,0)" xlink:href="#aq"/><use transform="matrix(0.05,0,0,0.05,56.75,0)" xlink:href="#aF"/><use transform="matrix(0.05,0,0,0.05,71.7,0)" xlink:href="#ay"/><use transform="matrix(0.05,0,0,0.05,75.65,0)" xlink:href="#as"/><use transform="matrix(0.05,0,0,0.05,85.65,0)" xlink:href="#aE"/><use transform="matrix(0.05,0,0,0.05,95.65,0)" xlink:href="#at"/><use transform="matrix(0.05,0,0,0.05,100.65,0)" xlink:href="#ay"/><use transform="matrix(0.05,0,0,0.05,104.60000000000001,0)" xlink:href="#aq"/><use transform="matrix(0.05,0,0,0.05,114.60000000000001,0)" xlink:href="#as"/></g><g id="am"><use transform="matrix(0.05,0,0,0.05,0,0)" xlink:href="#aH"/><use transform="matrix(0.05,0,0,0.05,10.950000000000001,0)" xlink:href="#aD"/><use transform="matrix(0.05,0,0,0.05,23.900000000000002,0)" xlink:href="#aq"/><use transform="matrix(0.05,0,0,0.05,33.900000000000006,0)" xlink:href="#aF"/><use transform="matrix(0.05,0,0,0.05,48.85000000000001,0)" xlink:href="#ay"/><use transform="matrix(0.05,0,0,0.05,52.80000000000001,0)" xlink:href="#as"/><use transform="matrix(0.05,0,0,0.05,62.80000000000001,0)" xlink:href="#aE"/><use transform="matrix(0.05,0,0,0.05,72.80000000000001,0)" xlink:href="#at"/><use transform="matrix(0.05,0,0,0.05,77.80000000000001,0)" xlink:href="#ay"/><use transform="matrix(0.05,0,0,0.05,81.75000000000001,0)" xlink:href="#aq"/><use transform="matrix(0.05,0,0,0.05,91.75000000000001,0)" xlink:href="#as"/><use transform="matrix(0.05,0,0,0.05,101.75000000000001,0)" xlink:href="#aw"/><use transform="matrix(0.05,0,0,0.05,106.75,0)" xlink:href="#ax"/></g><g id="an"><use transform="matrix(0.05,0,0,0.05,0,0)" xlink:href="#aH"/><use transform="matrix(0.05,0,0,0.05,10.950000000000001,0)" xlink:href="#aD"/><use transform="matrix(0.05,0,0,0.05,23.900000000000002,0)" xlink:href="#aq"/><use transform="matrix(0.05,0,0,0.05,33.900000000000006,0)" xlink:href="#aF"/><use transform="matrix(0.05,0,0,0.05,48.85000000000001,0)" xlink:href="#ay"/><use transform="matrix(0.05,0,0,0.05,52.80000000000001,0)" xlink:href="#as"/><use transform="matrix(0.05,0,0,0.05,62.80000000000001,0)" xlink:href="#aE"/><use transform="matrix(0.05,0,0,0.05,72.80000000000001,0)" xlink:href="#at"/><use transform="matrix(0.05,0,0,0.05,77.80000000000001,0)" xlink:href="#ay"/><use transform="matrix(0.05,0,0,0.05,81.75000000000001,0)" xlink:href="#aq"/><use transform="matrix(0.05,0,0,0.05,91.75000000000001,0)" xlink:href="#as"/><use transform="matrix(0.05,0,0,0.05,101.75000000000001,0)" xlink:href="#aD"/><use transform="matrix(0.05,0,0,0.05,114.7,0)" xlink:href="#aE"/><use transform="matrix(0.05,0,0,0.05,124.7,0)" xlink:href="#aF"/><use transform="matrix(0.05,0,0,0.05,139.65,0)" xlink:href="#aG"/></g><g id="ao"><use transform="matrix(0.05,0,0,0.05,0,0)" xlink:href="#aB"/><use transform="matrix(0.05,0,0,0.05,12,0)" xlink:href="#aG"/><use transform="matrix(0.05,0,0,0.05,22,0)" xlink:href="#au"/><use transform="matrix(0.05,0,0,0.05,27.950000000000003,0)" xlink:href="#aK"/><use transform="matrix(0.05,0,0,0.05,36.95,0)" xlink:href="#aq"/><use transform="matrix(0.05,0,0,0.05,46.95,0)" xlink:href="#as"/><use transform="matrix(0.05,0,0,0.05,56.95,0)" xlink:href="#bb"/><use transform="matrix(0.05,0,0,0.05,68.6,0)" xlink:href="#bc"/><use transform="matrix(0.05,0,0,0.05,81.55,0)" xlink:href="#aE"/><use transform="matrix(0.05,0,0,0.05,91.55,0)" xlink:href="#au"/><use transform="matrix(0.05,0,0,0.05,97.5,0)" xlink:href="#ax"/></g></defs></g></svg>